<?xml version="1.0" encoding="UTF-8" standalone="no"?>
<!-- Created with Inkscape (http://www.inkscape.org/) -->

<svg
   xmlns:dc="http://purl.org/dc/elements/1.1/"
   xmlns:cc="http://creativecommons.org/ns#"
   xmlns:rdf="http://www.w3.org/1999/02/22-rdf-syntax-ns#"
   xmlns:svg="http://www.w3.org/2000/svg"
   xmlns="http://www.w3.org/2000/svg"
   version="1.1"
   width="1192.0671"
   height="293.39838"
   viewbox="0 0 1192.0671 293.39838"
   id="svg3207">
  <defs
     id="defs3209" />
  <metadata
     id="metadata3212">
    <rdf:RDF>
      <cc:Work
         rdf:about="">
        <dc:format>image/svg+xml</dc:format>
        <dc:type
           rdf:resource="http://purl.org/dc/dcmitype/StillImage" />
        <dc:title></dc:title>
      </cc:Work>
    </rdf:RDF>
  </metadata>
  <g
     transform="translate(327.46125,-137.1034)"
     id="layer1">
    <g
       transform="matrix(0.52581597,0,0,0.52581597,404.26485,-47.364789)"
       id="layer1-3">
      <g
         id="text3070"
         style="font-size:275.53421021px;font-style:normal;font-variant:normal;font-weight:normal;font-stretch:normal;line-height:125%;letter-spacing:0px;word-spacing:0px;fill:#393637;fill-opacity:1;stroke:#393637;stroke-opacity:0;font-family:Greenbone;-inkscape-font-specification:Greenbone">
        <g
           transform="translate(-1298.0296,136.58175)"
           id="g3059">
          <path
             d="m 87.680264,320.06883 -46.185302,0 0,77.28969 c -10.99649,5.96952 -23.563945,10.9965 -38.9590307,10.9965 -27.0199453,0 -35.5029873,-16.6519 -35.5029873,-70.69179 0,-62.83709 11.939094,-72.26272 48.070417,-72.26272 18.851124,0 39.901609,0.62837 61.266217,1.57093 l 3.770229,-35.1888 c -20.422052,-5.65534 -41.158356,-7.54046 -66.607375,-7.54046 -71.32009,0 -97.083391,26.0775 -97.083391,111.85012 0,79.48891 20.422121,113.10686 69.120861,113.10686 29.847614,0 51.212285,-14.13837 62.52296,-25.76323 l 4.3986,21.67882 35.188802,0 0,-125.04592"
             id="path3023"
             style="font-size:314.18572998px;font-style:normal;font-variant:normal;font-weight:bold;font-stretch:normal;line-height:125%;letter-spacing:0px;word-spacing:0px;fill:#393637;fill-opacity:1;stroke:#393637;stroke-opacity:0;font-family:Greenbone;-inkscape-font-specification:Greenbone Bold" />
          <path
             d="m 234.57191,285.82258 -8.16883,0 c -20.10787,0 -42.10091,9.42559 -62.83715,27.01997 l -4.08441,-22.62137 -36.13136,0 0,154.89357 46.49949,0 0,-105.56641 c 20.73623,-6.91208 34.24626,-10.68231 47.44204,-10.68231 l 12.56743,0 4.71279,-43.04345"
             id="path3025"
             style="font-size:314.18572998px;font-style:normal;font-variant:normal;font-weight:bold;font-stretch:normal;line-height:125%;letter-spacing:0px;word-spacing:0px;fill:#393637;fill-opacity:1;stroke:#393637;stroke-opacity:0;font-family:Greenbone;-inkscape-font-specification:Greenbone Bold" />
          <path
             d="m 353.32429,383.22016 c 33.61784,0 47.12786,-15.08095 47.12786,-43.35763 -0.31419,-35.50296 -20.73631,-54.03995 -73.51946,-54.03995 -56.23919,0 -78.86062,20.73632 -78.86062,82.00248 0,57.18174 21.99306,81.05991 80.74573,81.05991 21.99298,0 49.32718,-2.82768 67.54993,-11.62487 l -4.3986,-28.90508 c -21.05042,2.19929 -43.67183,3.45604 -57.81017,3.45604 -23.56391,0 -33.93206,-5.34118 -36.75973,-28.5909 l 55.92506,0 m -56.86762,-27.96253 c 1.25674,-29.21925 8.79722,-35.50299 32.04694,-35.50299 20.10787,0 26.39161,5.02699 26.39161,19.47952 0,8.79719 -1.88513,16.02347 -14.45255,16.02347 l -43.986,0"
             id="path3027"
             style="font-size:314.18572998px;font-style:normal;font-variant:normal;font-weight:bold;font-stretch:normal;line-height:125%;letter-spacing:0px;word-spacing:0px;fill:#393637;fill-opacity:1;stroke:#393637;stroke-opacity:0;font-family:Greenbone;-inkscape-font-specification:Greenbone Bold" />
          <path
             d="m 529.44013,383.22016 c 33.61784,0 47.12786,-15.08095 47.12786,-43.35763 -0.31418,-35.50296 -20.73631,-54.03995 -73.51946,-54.03995 -56.23919,0 -78.86062,20.73632 -78.86062,82.00248 0,57.18174 21.99306,81.05991 80.74574,81.05991 21.99297,0 49.32717,-2.82768 67.54993,-11.62487 l -4.3986,-28.90508 c -21.05043,2.19929 -43.67183,3.45604 -57.81018,3.45604 -23.5639,0 -33.93206,-5.34118 -36.75973,-28.5909 l 55.92506,0 m -56.86761,-27.96253 c 1.25674,-29.21925 8.79722,-35.50299 32.04694,-35.50299 20.10787,0 26.3916,5.02699 26.3916,19.47952 0,8.79719 -1.88513,16.02347 -14.45254,16.02347 l -43.986,0"
             id="path3029"
             style="font-size:314.18572998px;font-style:normal;font-variant:normal;font-weight:bold;font-stretch:normal;line-height:125%;letter-spacing:0px;word-spacing:0px;fill:#393637;fill-opacity:1;stroke:#393637;stroke-opacity:0;font-family:Greenbone;-inkscape-font-specification:Greenbone Bold" />
          <path
             d="m 644.60395,290.22118 -37.70229,0 0,154.89357 46.49949,0 0,-105.88059 c 18.22275,-9.11138 30.47602,-14.13836 43.04344,-14.13836 11.31068,0 15.08092,4.08443 15.08092,18.22277 l 0,101.79618 46.1853,0 0,-116.24872 c 0,-27.96251 -15.08095,-43.04345 -43.35763,-43.04345 -21.99298,0 -44.6144,9.73978 -66.29319,27.33416 l -3.45604,-22.93556"
             id="path3031"
             style="font-size:314.18572998px;font-style:normal;font-variant:normal;font-weight:bold;font-stretch:normal;line-height:125%;letter-spacing:0px;word-spacing:0px;fill:#393637;fill-opacity:1;stroke:#393637;stroke-opacity:0;font-family:Greenbone;-inkscape-font-specification:Greenbone Bold" />
          <path
             d="m 841.47563,225.18474 -46.81367,0 0,211.76118 c 19.16531,8.16882 56.86764,11.93905 78.86062,11.93905 61.89452,0 75.71876,-35.18884 75.71876,-82.63084 0,-57.49593 -16.96607,-80.43155 -56.86762,-80.43155 -20.42205,0 -40.21579,10.05396 -54.9825,25.13486 3.14185,-11.31068 4.08441,-23.56394 4.08441,-36.44555 l 0,-49.32715 m -0.31418,110.90756 c 11.31067,-7.54045 20.42208,-13.1958 32.67531,-13.1958 22.93554,0 27.64835,10.05397 27.64835,43.67181 0,36.7597 -7.85467,47.12786 -28.90509,47.75623 -8.79719,0.31419 -21.05046,-0.62837 -31.41857,-2.82767 l 0,-75.40457"
             id="path3033"
             style="font-size:314.18572998px;font-style:normal;font-variant:normal;font-weight:bold;font-stretch:normal;line-height:125%;letter-spacing:0px;word-spacing:0px;fill:#393637;fill-opacity:1;stroke:#393637;stroke-opacity:0;font-family:Greenbone;-inkscape-font-specification:Greenbone Bold" />
          <path
             d="m 1054.4297,285.82258 c -58.12425,0 -79.80313,22.30725 -79.80313,82.00248 0,59.38104 21.67888,81.3741 79.80313,81.3741 57.8102,0 79.489,-21.99306 79.489,-81.3741 0,-59.69523 -21.6788,-82.00248 -79.489,-82.00248 m 0,34.87462 c 23.8781,0 30.7902,9.42561 30.7902,47.12786 0,37.07388 -6.9121,46.49948 -30.7902,46.49948 -24.5064,0 -31.1043,-9.4256 -31.1043,-46.49948 0,-37.70225 6.5979,-47.12786 31.1043,-47.12786"
             id="path3035"
             style="font-size:314.18572998px;font-style:normal;font-variant:normal;font-weight:bold;font-stretch:normal;line-height:125%;letter-spacing:0px;word-spacing:0px;fill:#393637;fill-opacity:1;stroke:#393637;stroke-opacity:0;font-family:Greenbone;-inkscape-font-specification:Greenbone Bold" />
          <path
             d="m 1203.6337,290.22118 -37.7023,0 0,154.89357 46.4995,0 0,-105.88059 c 18.2227,-9.11138 30.476,-14.13836 43.0434,-14.13836 11.3107,0 15.0809,4.08443 15.0809,18.22277 l 0,101.79618 46.1853,0 0,-116.24872 c 0,-27.96251 -15.0809,-43.04345 -43.3576,-43.04345 -21.993,0 -44.6144,9.73978 -66.2932,27.33416 l -3.456,-22.93556"
             id="path3037"
             style="font-size:314.18572998px;font-style:normal;font-variant:normal;font-weight:bold;font-stretch:normal;line-height:125%;letter-spacing:0px;word-spacing:0px;fill:#393637;fill-opacity:1;stroke:#393637;stroke-opacity:0;font-family:Greenbone;-inkscape-font-specification:Greenbone Bold" />
          <path
             d="m 1452.9744,383.22016 c 33.6178,0 47.1278,-15.08095 47.1278,-43.35763 -0.3142,-35.50296 -20.7363,-54.03995 -73.5194,-54.03995 -56.2392,0 -78.8606,20.73632 -78.8606,82.00248 0,57.18174 21.993,81.05991 80.7457,81.05991 21.993,0 49.3272,-2.82768 67.5499,-11.62487 l -4.3986,-28.90508 c -21.0504,2.19929 -43.6718,3.45604 -57.8102,3.45604 -23.5639,0 -33.932,-5.34118 -36.7597,-28.5909 l 55.9251,0 m -56.8676,-27.96253 c 1.2567,-29.21925 8.7972,-35.50299 32.0469,-35.50299 20.1079,0 26.3916,5.02699 26.3916,19.47952 0,8.79719 -1.8851,16.02347 -14.4525,16.02347 l -43.986,0"
             id="path3039"
             style="font-size:314.18572998px;font-style:normal;font-variant:normal;font-weight:bold;font-stretch:normal;line-height:125%;letter-spacing:0px;word-spacing:0px;fill:#393637;fill-opacity:1;stroke:#393637;stroke-opacity:0;font-family:Greenbone;-inkscape-font-specification:Greenbone Bold" />
          <path
             d="m 9.9311819,624.96552 c 16.5320361,4.13301 23.9714761,9.36818 23.9714761,31.4109 0,26.17572 -9.092658,30.5843 -38.299255,30.5843 -15.705434,0.27553 -25.900248,-0.27554 -58.137718,-1.37767 l -1.653206,17.90972 c 25.90019,4.68408 46.565294,5.23515 58.9643214,5.23515 44.3609636,0 63.6484026,-7.99054 63.6484026,-51.80043 0,-29.48213 -9.092658,-46.28976 -38.299255,-53.45364 l -38.57479,-9.6437 c -16.80757,-4.13301 -23.971476,-10.19478 -23.971476,-31.13536 0,-28.10446 10.745862,-28.93109 38.2992552,-28.93109 17.6341718,0 37.7482028,0.55107 53.7291708,1.37767 l 1.653205,-17.63419 c -19.011841,-4.13301 -38.574807,-5.23515 -56.4845126,-5.51069 -42.4322264,0 -61.7196634,5.78627 -61.7196634,50.14723 0,28.93106 9.919259,46.01422 37.472653,52.90257 l 39.4013919,9.91923"
             id="path2988" />
          <path
             d="m 174.57579,649.7636 c 22.31825,0 32.2375,-14.05227 31.96197,-38.02372 0,-28.93107 -17.08316,-43.80994 -57.58665,-43.80994 -43.25883,0 -61.719663,17.35871 -61.719663,69.98569 0,51.52484 17.909773,70.81229 64.199473,70.81229 15.4299,0 39.4014,-2.20428 52.07596,-7.43942 l -2.4798,-15.70545 c -13.7767,1.92873 -32.23752,3.30641 -46.56529,3.30641 -27.55339,0 -39.95246,-7.16393 -42.43226,-39.12586 l 62.54626,0 m -62.8218,-18.18526 c 0.8266,-33.89067 10.1948,-43.80994 38.29926,-43.80994 23.97145,0 32.78857,6.88837 33.0641,23.97148 0,9.91922 -2.47982,19.83846 -14.60331,19.83846 l -56.76005,0"
             id="path2990" />
          <path
             d="m 342.40624,686.13411 c -13.77669,2.20428 -31.4109,2.75535 -39.40139,2.75535 -31.96193,0 -42.98333,-11.29695 -42.98333,-50.6983 0,-39.12582 11.0214,-50.42276 42.98333,-50.42276 9.36816,0 24.24702,0.55107 36.37052,1.65321 l 3.03087,-15.15439 c -13.22562,-4.95961 -31.41091,-6.33728 -43.25887,-6.33728 -46.56523,0 -63.92393,18.46084 -63.92393,70.26122 0,51.80038 17.3587,70.53676 63.6484,70.53676 15.70543,0 32.51305,-2.20428 46.01421,-6.88836 l -2.47981,-15.70545"
             id="path2992" />
          <path
             d="m 490.44563,571.23635 -23.42041,0 0,98.09018 c -19.56291,12.67456 -32.51305,19.28739 -46.84081,19.28739 -15.42991,0 -21.49167,-6.06177 -21.21614,-23.14487 l 0,-94.2327 -23.42041,0 0,100.84552 c 0,24.24699 12.39907,36.92158 36.64605,36.92158 19.28738,0 37.74821,-7.71497 57.86219,-22.86934 l 1.6532,19.2874 18.73633,0 0,-134.18516"
             id="path2994" />
          <path
             d="m 617.55302,567.92994 -6.06175,0 c -18.18524,0 -37.7482,9.09264 -57.31111,24.52254 l -2.47981,-21.21613 -18.18526,0 0,134.18516 23.42041,0 0,-98.36571 c 21.21611,-10.74583 35.26839,-17.08313 50.14722,-17.08313 l 7.71496,0 2.75534,-22.04273"
             id="path2996" />
          <path
             d="m 651.00027,514.20077 c -4.68408,0 -7.16389,2.75534 -7.16389,7.16389 l 0,15.70545 c 0,4.95961 2.47981,7.16389 7.16389,7.16389 l 11.02137,0 c 4.95961,0 7.16389,-2.20428 7.16389,-7.16389 l 0,-15.70545 c 0,-4.40855 -2.20428,-7.16389 -7.16389,-7.16389 l -11.02137,0 m 17.08312,191.22074 0,-134.18516 -23.14487,0 0,134.18516 23.14487,0"
             id="path2998" />
          <path
             d="m 745.79695,589.69714 42.7078,0 0,-18.46079 -42.7078,0 0,-39.67693 -23.42041,0 0,39.95246 -24.24701,1.10214 0,17.08312 24.24701,0 0,81.83366 c 0,23.42039 11.848,36.37052 34.44178,36.37052 6.61281,0 21.49168,-1.10214 30.30876,-3.58195 l -2.75534,-17.90972 -20.38953,0 c -13.22563,0 -18.18526,-4.95963 -18.18526,-17.90973 l 0,-78.80278"
             id="path3000" />
          <path
             d="m 936.15238,571.23635 -25.34915,0 -34.99285,100.01892 c -1.6532,4.95961 -3.58194,10.74584 -5.78621,16.25652 l -3.85748,0 c -1.10214,-5.51068 -3.03088,-10.74584 -4.95962,-16.25652 l -35.54391,-100.01892 -25.07362,0 48.76956,128.12341 c 1.10214,3.85747 4.40855,6.06175 8.26603,6.06175 l 5.23515,0 -2.20428,5.78622 c -6.88835,16.80757 -17.35867,28.65556 -39.12586,35.54391 l 2.20428,15.42992 c 33.3396,-1.65321 49.8717,-25.62471 58.68878,-49.32063 l 53.72918,-141.62458"
             id="path3002" />
          <path
             d="m 1115.2582,645.90612 18.7363,59.51539 25.0736,0 -61.1686,-183.50579 c -1.1021,-4.133 -4.684,-6.61282 -9.0926,-6.61282 l -25.3491,0 c -4.4086,0 -7.9905,2.47982 -9.0927,6.61282 l -61.16855,183.50579 25.07365,0 18.7363,-59.51539 78.2517,0 m -6.6128,-20.9406 -65.0261,0 23.9715,-75.49637 4.6841,-15.42992 7.7149,0 c 1.3777,4.95961 3.0309,10.4703 4.6841,15.42992 l 23.9715,75.49637"
             id="path3004" />
          <path
             d="m 1244.234,651.14127 c 12.9501,3.03087 21.2162,5.5107 21.2162,18.73633 0,15.98096 -9.3682,18.73632 -39.4014,18.73632 -17.3587,0.27554 -33.0641,-0.27553 -46.2898,-1.10213 l -1.6532,17.08312 c 22.8693,3.58194 42.9834,3.85748 52.6271,3.85748 38.8502,0 57.3111,-5.51072 57.3111,-38.57479 0,-22.86932 -9.9193,-31.68644 -31.1354,-36.92159 l -39.1258,-8.81709 c -12.9501,-3.03088 -19.563,-5.23517 -19.563,-19.2874 0,-16.80757 8.2661,-17.35865 33.0641,-17.08312 16.8076,0 34.1663,0.8266 50.9739,1.37767 l 1.9287,-17.08312 c -16.532,-2.4798 -38.8503,-3.85748 -56.4845,-4.13301 -36.646,-0.55107 -52.3515,5.78625 -52.3515,36.92158 0,22.04272 8.5416,32.23751 30.3087,37.47265 l 38.5748,8.8171"
             id="path3006" />
          <path
             d="m 1384.1537,651.14127 c 12.9501,3.03087 21.2162,5.5107 21.2162,18.73633 0,15.98096 -9.3682,18.73632 -39.4014,18.73632 -17.3587,0.27554 -33.0642,-0.27553 -46.2898,-1.10213 l -1.6532,17.08312 c 22.8693,3.58194 42.9834,3.85748 52.627,3.85748 38.8503,0 57.3112,-5.51072 57.3112,-38.57479 0,-22.86932 -9.9193,-31.68644 -31.1354,-36.92159 l -39.1259,-8.81709 c -12.9501,-3.03088 -19.5629,-5.23517 -19.5629,-19.2874 0,-16.80757 8.2661,-17.35865 33.0641,-17.08312 16.8076,0 34.1663,0.8266 50.9738,1.37767 l 1.9288,-17.08312 c -16.5321,-2.4798 -38.8504,-3.85748 -56.4845,-4.13301 -36.646,-0.55107 -52.3515,5.78625 -52.3515,36.92158 0,22.04272 8.5415,32.23751 30.3087,37.47265 l 38.5748,8.8171"
             id="path3008" />
          <path
             d="m 1470.0688,514.20077 c -4.6841,0 -7.1639,2.75534 -7.1639,7.16389 l 0,15.70545 c 0,4.95961 2.4798,7.16389 7.1639,7.16389 l 11.0214,0 c 4.9596,0 7.1639,-2.20428 7.1639,-7.16389 l 0,-15.70545 c 0,-4.40855 -2.2043,-7.16389 -7.1639,-7.16389 l -11.0214,0 m 17.0831,191.22074 0,-134.18516 -23.1448,0 0,134.18516 23.1448,0"
             id="path3010" />
          <path
             d="m 1592.4189,651.14127 c 12.95,3.03087 21.2161,5.5107 21.2161,18.73633 0,15.98096 -9.3682,18.73632 -39.4014,18.73632 -17.3586,0.27554 -33.0641,-0.27553 -46.2898,-1.10213 l -1.6532,17.08312 c 22.8694,3.58194 42.9834,3.85748 52.6271,3.85748 38.8503,0 57.3111,-5.51072 57.3111,-38.57479 0,-22.86932 -9.9193,-31.68644 -31.1354,-36.92159 l -39.1258,-8.81709 c -12.9501,-3.03088 -19.563,-5.23517 -19.563,-19.2874 0,-16.80757 8.2661,-17.35865 33.0641,-17.08312 16.8076,0 34.1663,0.8266 50.9739,1.37767 l 1.9287,-17.08312 c -16.532,-2.4798 -38.8503,-3.85748 -56.4845,-4.13301 -36.646,-0.55107 -52.3515,5.78625 -52.3515,36.92158 0,22.04272 8.5416,32.23751 30.3088,37.47265 l 38.5748,8.8171"
             id="path3012" />
          <path
             d="m 1704.7852,589.69714 42.7078,0 0,-18.46079 -42.7078,0 0,-39.67693 -23.4204,0 0,39.95246 -24.247,1.10214 0,17.08312 24.247,0 0,81.83366 c 0,23.42039 11.848,36.37052 34.4418,36.37052 6.6128,0 21.4917,-1.10214 30.3088,-3.58195 l -2.7554,-17.90972 -20.3895,0 c -13.2256,0 -18.1853,-4.95963 -18.1853,-17.90973 l 0,-78.80278"
             id="path3014" />
          <path
             d="m 1776.9364,591.35035 c 20.3895,-1.92874 43.5344,-3.58195 57.5866,-3.58195 21.2161,0 27.2779,6.61284 27.2779,23.14487 l 0,11.84798 -55.9334,0 c -23.4204,0 -37.1972,12.12352 -37.1972,33.0641 l 0,14.60331 c 0,24.24699 16.2566,37.47266 40.228,37.47266 24.5225,0 44.9121,-13.77672 55.3824,-24.52255 l 2.7553,22.04274 18.4608,0 0,-94.50824 c 0,-32.513 -16.2565,-42.98333 -46.0142,-42.98333 -20.114,0 -46.2897,3.03088 -64.7505,6.06175 l 2.2043,17.35866 m 15.7054,67.78141 c 0,-11.29689 4.4086,-17.90972 17.3587,-18.46079 l 51.8004,0 0,27.00235 c -15.4299,13.7767 -34.9929,20.38953 -48.2185,20.114 -14.6033,0 -20.9406,-6.06177 -20.9406,-20.114 l 0,-8.54156"
             id="path3016" />
          <path
             d="m 1947.1692,571.23635 -19.8385,0 0,134.18516 23.4204,0 0,-96.43697 c 21.4917,-13.22563 35.8195,-21.21614 51.8004,-21.21614 13.7767,0 19.2874,5.78624 19.2874,23.69594 l 0,93.95717 23.4204,0 0,-100.56999 c 0,-24.24698 -12.6746,-36.92158 -36.3705,-36.92158 -19.8384,0 -39.6769,9.09264 -60.0664,24.52254 l -1.6532,-21.21613"
             id="path3018" />
          <path
             d="m 2120.7772,589.69714 42.7078,0 0,-18.46079 -42.7078,0 0,-39.67693 -23.4204,0 0,39.95246 -24.247,1.10214 0,17.08312 24.247,0 0,81.83366 c 0,23.42039 11.848,36.37052 34.4417,36.37052 6.6129,0 21.4917,-1.10214 30.3088,-3.58195 l -2.7553,-17.90972 -20.3896,0 c -13.2256,0 -18.1852,-4.95963 -18.1852,-17.90973 l 0,-78.80278"
             id="path3020" />
        </g>
      </g>
    </g>
  </g>
</svg>
