<svg id="Layer_1" data-name="Layer 1" xmlns="http://www.w3.org/2000/svg" viewBox="0 0 558 180"><defs><style>.cls-1{fill:#7b69a8;}.cls-2{fill:#fff;}.cls-3{fill:#b7afd7;}.cls-4{fill:#e4e41c;}</style></defs><path d="M320.27,143a6.38,6.38,0,1,0,0,12.76,7.48,7.48,0,0,0,5-2.15l1.82,2a10.32,10.32,0,0,1-7,3,9.17,9.17,0,1,1,.11-18.33A10,10,0,0,1,327.1,143l-1.79,2.23A7.07,7.07,0,0,0,320.27,143Z"/><path d="M339.49,152.4v6h-3V152.5l-6.76-12.19h3.09l5.17,8.82,5.08-8.82h3.1Z"/><path d="M364.32,144.84a4,4,0,0,1-3.18,4,4.39,4.39,0,0,1,3.88,4.58c0,3.1-2.51,5-6.6,5h-8.05V140.31h7.87C362,140.31,364.32,142,364.32,144.84Zm-3.13.54c0-1.5-1.16-2.36-3.11-2.33h-4.66v4.76h4.66C360,147.81,361.19,146.94,361.19,145.38Zm.7,7.69c0-1.61-1.43-2.59-3.81-2.56h-4.66v5.17h4.66C360.46,155.71,361.89,154.75,361.89,153.07Z"/><path d="M383.41,140.31v2.74h-9.89V148h8.86v2.72h-8.86v5h10.2v2.75H370.47V140.31Z"/><path d="M400.77,158.43l-3.32-5.49c-.25,0-.54,0-.82,0h-4.3v5.47h-3.05V140.31h7.35c4.63,0,7.3,2.25,7.3,6.18a5.83,5.83,0,0,1-3.76,5.88l4.07,6.06Zm-4.14-8.21c2.79,0,4.4-1.19,4.4-3.65s-1.61-3.52-4.4-3.52h-4.3v7.17Z"/><path d="M415.53,143.05c-1.78,0-2.95.67-2.95,1.89,0,4,9.79,1.84,9.76,8.36,0,3.24-2.85,5.23-6.83,5.23a11.16,11.16,0,0,1-7.41-2.87l1.32-2.64a9.63,9.63,0,0,0,6.14,2.64c2.12,0,3.39-.8,3.39-2.2,0-4-9.78-1.79-9.78-8.23,0-3.11,2.66-5,6.6-5a11.83,11.83,0,0,1,6.34,1.86l-1.27,2.69A10.86,10.86,0,0,0,415.53,143.05Z"/><path d="M440.68,140.31v2.74h-9.89V148h8.85v2.72h-8.85v5H441v2.75H427.74V140.31Z"/><path d="M454.62,143a6.38,6.38,0,1,0,0,12.76,7.52,7.52,0,0,0,5.05-2.15l1.81,2a10.3,10.3,0,0,1-7,3,9.17,9.17,0,1,1,.11-18.33,10,10,0,0,1,6.88,2.79l-1.78,2.23A7.09,7.09,0,0,0,454.62,143Z"/><path d="M474,155.81c2.95,0,4.79-1.81,4.79-4.89V140.31h3.05v10.61c0,4.74-3,7.64-7.87,7.64s-7.89-2.9-7.89-7.64V140.31h3.05v10.61A4.52,4.52,0,0,0,474,155.81Z"/><path d="M499.5,158.43l-3.31-5.49c-.26,0-.54,0-.83,0h-4.29v5.47H488V140.31h7.35c4.64,0,7.3,2.25,7.3,6.18a5.82,5.82,0,0,1-3.75,5.88l4.06,6.06Zm-4.14-8.21c2.8,0,4.4-1.19,4.4-3.65s-1.6-3.52-4.4-3.52h-4.29v7.17Z"/><path d="M511.61,140.31v18.12h-3.06V140.31Z"/><path d="M530.56,140.31v2.74h-5.75v15.38h-3V143.05H516v-2.74Z"/><path d="M542.42,152.4v6h-3V152.5l-6.76-12.19h3.08l5.18,8.82,5.07-8.82h3.11Z"/><path d="M247.16,65.81A22.06,22.06,0,0,0,230,74,22.08,22.08,0,0,0,190.73,87.9v32.28a4.93,4.93,0,1,0,9.85,0V87.9a12.24,12.24,0,0,1,24.48,0v32.28a4.93,4.93,0,1,0,9.86,0V87.9a12.24,12.24,0,0,1,24.47,0v32.28a4.93,4.93,0,1,0,9.86,0V87.9A22.12,22.12,0,0,0,247.16,65.81Z"/><path d="M334.94,65.81A22.06,22.06,0,0,0,317.77,74,22.08,22.08,0,0,0,278.51,87.9v32.28a4.93,4.93,0,1,0,9.85,0V87.9a12.24,12.24,0,0,1,24.48,0v32.28a4.93,4.93,0,0,0,9.86,0V87.9a12.24,12.24,0,0,1,24.47,0v32.28a4.93,4.93,0,1,0,9.86,0V87.9A22.12,22.12,0,0,0,334.94,65.81Z"/><path d="M459.38,65.81a4.93,4.93,0,0,0-4.93,4.93V103A12.24,12.24,0,0,1,430,103V70.74a4.93,4.93,0,1,0-9.85,0V103a22.1,22.1,0,0,0,44.19,0V70.74A4.93,4.93,0,0,0,459.38,65.81Z"/><path d="M176.54,65.81a4.93,4.93,0,0,0-4.93,4.93v49.44a4.93,4.93,0,0,0,9.86,0V70.74A4.93,4.93,0,0,0,176.54,65.81Z"/><path d="M495.19,93h0L490.63,90l-.07,0c-5.61-3.62-6.83-4.91-7-5.13l-.05-.06a5.28,5.28,0,0,1-1.57-3.66,4.47,4.47,0,0,1,.8-2.61,6.17,6.17,0,0,1,2.59-2.09,10,10,0,0,1,4.3-.9,10.46,10.46,0,0,1,4.68,1.05,17.34,17.34,0,0,1,5.18,4.5,5,5,0,0,0,6.95.6,4.75,4.75,0,0,0,.61-6.79,27,27,0,0,0-8.35-6.95,20.51,20.51,0,0,0-9.07-2.06,20,20,0,0,0-8.53,1.84,16,16,0,0,0-6.56,5.45,13.88,13.88,0,0,0-2.45,8A14.78,14.78,0,0,0,476,91c1,1.13,2.89,3,9.11,7l4.52,3h0l0,0c5.61,3.63,6.83,4.91,7,5.13l.06.06a5.32,5.32,0,0,1,1.56,3.66,4.47,4.47,0,0,1-.79,2.62,6.19,6.19,0,0,1-2.6,2.08,9.94,9.94,0,0,1-4.29.91,10.53,10.53,0,0,1-4.68-1,17.55,17.55,0,0,1-5.19-4.51,5,5,0,0,0-6.94-.6,4.74,4.74,0,0,0-.61,6.79,26.59,26.59,0,0,0,8.35,7,20.51,20.51,0,0,0,9.07,2.06,20.11,20.11,0,0,0,8.53-1.84,16,16,0,0,0,6.56-5.44,14,14,0,0,0,2.45-8,14.8,14.8,0,0,0-3.92-9.91C503.3,98.82,501.37,97,495.19,93Z"/><path d="M547.62,100c-1-1.13-2.89-2.94-9.07-6.94h0L534,90l-.07,0c-5.61-3.62-6.83-4.91-7-5.13l-.06-.06a5.3,5.3,0,0,1-1.56-3.66,4.4,4.4,0,0,1,.8-2.61,6,6,0,0,1,2.59-2.09,10,10,0,0,1,4.3-.9,10.38,10.38,0,0,1,4.67,1.05,17.34,17.34,0,0,1,5.19,4.5,5,5,0,0,0,6.94.6,4.74,4.74,0,0,0,.61-6.79A26.72,26.72,0,0,0,542,67.87,20.5,20.5,0,0,0,533,65.81a20.13,20.13,0,0,0-8.54,1.84,16,16,0,0,0-6.56,5.45,14,14,0,0,0-2.45,8A14.78,14.78,0,0,0,519.35,91c1,1.13,2.89,3,9.11,7l4.52,3h0l0,0c5.61,3.63,6.83,4.91,7,5.13l0,.06a5.3,5.3,0,0,1,1.57,3.66,4.48,4.48,0,0,1-.8,2.62,6.16,6.16,0,0,1-2.59,2.08,10,10,0,0,1-4.3.91,10.56,10.56,0,0,1-4.68-1,17.43,17.43,0,0,1-5.18-4.51,5,5,0,0,0-6.95-.6,4.75,4.75,0,0,0-.61,6.79,26.81,26.81,0,0,0,8.35,7,20.51,20.51,0,0,0,9.07,2.06,20,20,0,0,0,8.53-1.84,15.89,15.89,0,0,0,6.56-5.44,13.89,13.89,0,0,0,2.45-8A14.8,14.8,0,0,0,547.62,100Z"/><path d="M405.55,65.81a4.93,4.93,0,0,0-4.93,4.93v2.7c-3-4.51-7-7.63-12.24-7.63A22.12,22.12,0,0,0,366.29,87.9V103a22.12,22.12,0,0,0,22.09,22.09c5.27,0,9.32-3.18,12.24-7.77v2.84a4.93,4.93,0,0,0,9.86,0V70.74A4.93,4.93,0,0,0,405.55,65.81ZM400.62,87.9v15.15a12.24,12.24,0,1,1-24.48,0v0h0V87.9h0v-.21a12.24,12.24,0,0,1,24.48,0Z"/><path d="M126.08,94.71c.72-.88,1.41-1.79,2.09-2.73,1.75-.17,3.55-.34,5.34-.55l1.81-.22-.1-4-1.81-.12-2.1-.13A28.6,28.6,0,0,0,134,79.4a25.86,25.86,0,0,0,.38-2.9,32.3,32.3,0,1,0-29.86-57.12A136.34,136.34,0,0,0,91.77,6a17.65,17.65,0,0,0-23,0A136.34,136.34,0,0,0,56,19.38,32.3,32.3,0,1,0,26.14,76.5a23.73,23.73,0,0,0,.38,2.9A28.26,28.26,0,0,0,29.25,87l-2.1.13-1.82.12-.09,4,1.81.22c1.78.2,3.58.38,5.34.55.68.94,1.37,1.85,2.09,2.73C22.62,100,13.93,107.17,9.82,115.28A19.87,19.87,0,0,0,9.6,132.7l9,19.52A17,17,0,0,0,32.21,162l16.93,1.75a11.41,11.41,0,0,1,4.54,1.48l18.13,10.46a17,17,0,0,0,16.94,0l18.13-10.46a11.41,11.41,0,0,1,4.54-1.48L128.34,162A17,17,0,0,0,142,152.22l9-19.52a19.9,19.9,0,0,0-.22-17.42C146.62,107.17,137.94,100,126.08,94.71Z"/><path class="cls-1" d="M148.46,43.58a27,27,0,0,0-3.08-9.53c-.42-.77-.88-1.53-1.37-2.25a26.85,26.85,0,0,0-2.43-3.09,27.53,27.53,0,0,0-3.87-3.53c-.71-.52-1.43-1-2.18-1.47a27.23,27.23,0,0,0-4.77-2.3c-.84-.31-1.69-.57-2.56-.8a27.41,27.41,0,0,0-6.82-.86q-.9,0-1.8.06a26.33,26.33,0,0,0-3.55.47c-.58.11-1.16.25-1.74.4a27.17,27.17,0,0,0-3.36,1.15c-.55.22-1.09.47-1.62.73s-1.06.55-1.58.85a133.11,133.11,0,0,1,8.52,12.38,136.14,136.14,0,0,1,7.13,13.34s1.64,2,3,3.79l.43.55c.27.37.55.74.81,1.12.4.58.79,1.17,1.17,1.78a38.68,38.68,0,0,1,2.66,5.11c.09.2.19.4.27.61s.15.37.22.56a35.5,35.5,0,0,1,1.22,3.51,41.47,41.47,0,0,1,1,4.24c0,.24.08.49.11.74.55-.3,1.09-.61,1.61-.93a28,28,0,0,0,3-2.16,27.28,27.28,0,0,0,6.42-7.77c.28-.52.55-1,.8-1.57s.44-1,.64-1.46a27.25,27.25,0,0,0,2-10.2A26.61,26.61,0,0,0,148.46,43.58Z"/><path class="cls-1" d="M115.63,96.63c1.05-1.24,2.09-2.47,3.1-3.7l-3.28.25c-1.1.08-2.24.21-3.33.32l-1.11.12c-.49,0-1,.08-1.46.11-.91,1.06-1.85,2.12-2.81,3.17l-1.49,1.63-.51-.13h0c-1.45-.38-2.93-.7-4.43-1A28.17,28.17,0,0,0,95.76,97l0,0h0l-.11.33a29.11,29.11,0,0,0,3.93,2.45c1.34.71,2.71,1.34,4.1,1.92a30.53,30.53,0,0,0,4.27,1.42c1.46.37,2.92.72,4.37,1.13l4.34,1.21,4.36,1.17c2.91.73,5.82,1.52,8.75,2.21v0h0l.11-.33c-2.75-1.23-5.54-2.36-8.3-3.54l-4.18-1.72-4.19-1.66h0l-1.24-.51,1.33-1.61Z"/><path class="cls-1" d="M51.9,38.87a41.73,41.73,0,0,1,7.59-2.81,71.14,71.14,0,0,0-12.55,9.53,50.73,50.73,0,0,0-9.4,11.9,39.32,39.32,0,0,0-3,6.75A36.83,36.83,0,0,0,33,71.33,20.77,20.77,0,0,0,35.8,84.5c.41.73.85,1.45,1.32,2.17s.88,1.3,1.35,2l-2.16.08-3.53.18L31.1,89c-1.27.06-2.54.13-3.81.22v.35h0v0c3,.35,6,.6,9,.91l4.49.4,4.49.34c1.5.11,3,.28,4.5.44a32.13,32.13,0,0,0,4.5.12c1.5-.07,3-.2,4.51-.41a28.22,28.22,0,0,0,4.52-.95v-.35h0v0h0a29.59,29.59,0,0,0-4.48-1.17c-1.49-.28-3-.48-4.49-.62a32.2,32.2,0,0,0-4.5-.09l-3.06.17c-.46-.65-.89-1.3-1.31-1.94-3.58-5.55-5.53-11-4.29-16.06a37.82,37.82,0,0,1,8.91-16.51,41,41,0,0,1,60.4,0,37.7,37.7,0,0,1,8.9,16.51c1.25,5.06-.7,10.51-4.28,16.06-.42.64-.85,1.29-1.31,1.94l-3-.17c-.77,0-1.53,0-2.3,0s-1.47.05-2.2.12c-1.5.14-3,.34-4.49.62l-1,.23c-.17,0-.34.09-.51.13-.64.15-1.29.33-1.93.52-.2.06-.39.09-.59.16l-.43.13v0l-.06,0v.35a28,28,0,0,0,4.52.95c1.51.21,3,.34,4.51.41.36,0,.72,0,1.08,0s.78,0,1.17,0h0c.4,0,.8,0,1.2-.08s.67,0,1,0c1.5-.16,3-.33,4.49-.44l4.5-.34,4.49-.4c3-.31,6-.56,9-.91v0h0v-.35c-1.27-.09-2.54-.16-3.81-.22l-1.68-.09-3.53-.18-2.16-.08q.7-1,1.35-2c.47-.72.91-1.44,1.32-2.17a20.77,20.77,0,0,0,2.85-13.17,36.83,36.83,0,0,0-1.6-7.09,39.32,39.32,0,0,0-3-6.75,50.52,50.52,0,0,0-9.41-11.9,71.43,71.43,0,0,0-12.54-9.53,41.73,41.73,0,0,1,7.59,2.81A53.78,53.78,0,0,1,114,41.78,129.66,129.66,0,0,0,88.4,9.83a11.56,11.56,0,0,0-5.94-2.77l-2.18,18.8L78.09,7.06a11.64,11.64,0,0,0-5.94,2.77,129.62,129.62,0,0,0-25.56,32A53.78,53.78,0,0,1,51.9,38.87Z"/><path class="cls-1" d="M47.41,101.61l-4.19,1.66L39,105c-2.77,1.18-5.55,2.31-8.3,3.54l.11.33h0v0c2.93-.69,5.83-1.48,8.75-2.21L44,105.51l4.34-1.21c1.44-.41,2.91-.76,4.37-1.13A30.53,30.53,0,0,0,57,101.75c.63-.26,1.24-.59,1.87-.88l.59-.27h0l.28-.15c.44-.21.89-.39,1.32-.61A29.11,29.11,0,0,0,65,97.38v0h0L64.86,97c-.57,0-1.12,0-1.67.1-.2,0-.39,0-.59.06l-.27,0c-.66.06-1.32.12-2,.22l-.1,0c-1.5.25-3,.57-4.43,1h0l-.51.14c-.51-.54-1-1.09-1.51-1.63-1-1.06-1.89-2.12-2.8-3.18-.48,0-1-.06-1.46-.11l-1.11-.12c-1.1-.11-2.23-.24-3.33-.32l-1.7-.13-1.58-.12c.5.62,1,1.23,1.53,1.85l1.57,1.85c.79,1,1.59,1.9,2.38,2.86.45.53.89,1.07,1.34,1.61l-1.24.51Z"/><path class="cls-1" d="M146.94,120.89a13,13,0,0,0-1.1-3c-.32-.62-.68-1.24-1.06-1.85s-.8-1.22-1.24-1.82-.93-1.2-1.44-1.79a37.7,37.7,0,0,0-5.11-4.84,50,50,0,0,0-4.88-3.42c-.79-.49-1.62-1-2.47-1.43q-2.46-1.38-5.21-2.63c-.69-.31-1.4-.61-2.12-.91-.56.62-1.13,1.25-1.7,1.86l-1,1,1.31.53,1.3.54,2.91,1.23c1.79.75,3.64,1.53,5.46,2.33l1.66.74L131,111.23l-1.18-.28-.59-.14c-1-.23-1.93-.47-2.89-.72l-2.85-.73-3-.78-4.39-1.17L115,107.1c-1.68,1.85-3.32,3.7-4.89,5.6a80.88,80.88,0,0,0-8.75,12.75,71.47,71.47,0,0,0-3.39,7c-1,2.43-1.92,4.93-2.74,7.48a52.52,52.52,0,0,1,3-15.93,64.42,64.42,0,0,1,7.48-14.64c.92-1.38,1.89-2.73,2.88-4l-.07,0-.54-.14-.54-.13c-.8-.21-1.59-.44-2.35-.69s-1.5-.53-2.21-.83-1.15-.49-1.71-.75c-1.39,1.42-2.79,2.83-4.17,4.21l-2,2c-2,2-3.82,3.87-5.52,5.69a12.62,12.62,0,0,1-3,2.4,12.51,12.51,0,0,1-12.28,0,13.14,13.14,0,0,1-2.1-1.49c-.32-.28-.64-.59-.94-.91-1.69-1.82-3.55-3.72-5.51-5.69l-2-2-4.17-4.21c-.57.25-1.14.51-1.72.75a31.38,31.38,0,0,1-4.54,1.51l-1.08.28-.08,0c1,1.31,2,2.65,2.88,4a64,64,0,0,1,7.47,14.64,52.23,52.23,0,0,1,3,15.93c-.82-2.55-1.73-5-2.74-7.48a73.79,73.79,0,0,0-3.39-7,81.56,81.56,0,0,0-8.75-12.75c-1.57-1.9-3.21-3.75-4.89-5.6l-1.07.3-4.38,1.18-3.07.78c-1.87.49-3.81,1-5.74,1.45l-1.78.42-1.27-3.79,1.66-.74c1.82-.8,3.67-1.58,5.46-2.33l2.88-1.22,2.64-1.08h0l-1-1-1.69-1.86q-2.16.9-4.16,1.87c-.91.44-1.78.9-2.63,1.37-1,.56-2.05,1.14-3,1.73-1.17.73-2.29,1.48-3.35,2.25s-2.05,1.56-3,2.37a30.51,30.51,0,0,0-7.4,9.1,11.39,11.39,0,0,0-.64,1.48,13.68,13.68,0,0,0-.47,1.54,16,16,0,0,0-.36,2.4,14.59,14.59,0,0,0,0,1.62,15.28,15.28,0,0,0,.4,2.85,15.48,15.48,0,0,0,1,2.75l9,19.51A10.69,10.69,0,0,0,24.69,152a11.56,11.56,0,0,0,1.47,1.65,10.07,10.07,0,0,0,1.14.93,11.34,11.34,0,0,0,5.48,2.09l16.93,1.76a17.39,17.39,0,0,1,1.76.27,17,17,0,0,1,5,1.91L74.56,171a11.33,11.33,0,0,0,1.53.74,12,12,0,0,0,1.61.5,11.6,11.6,0,0,0,3.32.27,14.41,14.41,0,0,0,1.47-.19,11.29,11.29,0,0,0,2-.58l.41-.17A11,11,0,0,0,86,171l18.13-10.46c.52-.3,1.05-.57,1.59-.82l.82-.34a17,17,0,0,1,4.31-1l16.93-1.76a11.4,11.4,0,0,0,3.57-1,11.74,11.74,0,0,0,1.91-1.11A11.46,11.46,0,0,0,137,150l6.14-13.37,2.82-6.14a14.27,14.27,0,0,0,.75-2,14.9,14.9,0,0,0,.46-2.06c.07-.51.13-1,.15-1.53,0-.27,0-.54,0-.81s0-.54,0-.81A13.76,13.76,0,0,0,146.94,120.89Zm-75,16.6.42,4.31.35,4.32c.11,1.43.3,2.87.47,4.31a22.17,22.17,0,0,1,.06,4.31,36.07,36.07,0,0,1-.61,4.33,22.58,22.58,0,0,1-1.32,4.33h-.45a21.82,21.82,0,0,1-1.41-4.3,35.84,35.84,0,0,1-.71-4.31,23.09,23.09,0,0,1,0-4.32c.14-1.44.31-2.88.39-4.32l.26-4.32.33-4.31.12-1.43c-1.29-.58-2.24-2.34-2.24-4.44,0-2.56,1.41-4.63,3.15-4.63s3.15,2.07,3.15,4.63A4.88,4.88,0,0,1,71.82,136Zm19,0,.41,4.31.35,4.32c.11,1.43.3,2.87.47,4.31a21.41,21.41,0,0,1,.06,4.31,34.16,34.16,0,0,1-.61,4.33,22.58,22.58,0,0,1-1.32,4.33H89.9a22.5,22.5,0,0,1-1.41-4.3,33.92,33.92,0,0,1-.7-4.31,22.27,22.27,0,0,1,0-4.32c.13-1.44.3-2.88.38-4.32l.26-4.32.33-4.31.12-1.43c-1.29-.58-2.23-2.34-2.23-4.44,0-2.56,1.41-4.63,3.14-4.63s3.15,2.07,3.15,4.63A4.88,4.88,0,0,1,90.83,136C90.88,136.51,90.93,137,91,137.49Z"/><path class="cls-1" d="M17.88,64.15c.38.47.78.93,1.19,1.38a27.06,27.06,0,0,0,5.63,4.68c.52.32,1.06.63,1.61.93,0-.25.06-.5.11-.74a41.47,41.47,0,0,1,1-4.24c.2-.7.42-1.38.66-2.06s.5-1.35.77-2,.57-1.32.88-2a40.05,40.05,0,0,1,2.06-3.75c.37-.61.77-1.2,1.17-1.78.26-.38.54-.75.81-1.12l.42-.55a43.9,43.9,0,0,1,3.22-3.71l-.19-.08q1.6-3.45,3.39-6.79A133.77,133.77,0,0,1,52.83,23.41c-.52-.3-1-.58-1.58-.85s-1.37-.63-2.08-.91a29.19,29.19,0,0,0-2.91-1,27.51,27.51,0,0,0-7.08-.93c-.47,0-.94,0-1.41,0a25.11,25.11,0,0,0-2.75.28,26,26,0,0,0-4,.91c-.43.13-.85.28-1.27.43a26.47,26.47,0,0,0-2.45,1c-.65.31-1.28.66-1.9,1L24.6,24c-.44.28-.88.57-1.3.88s-.85.62-1.26.95c-.59.47-1.15,1-1.7,1.5A27.3,27.3,0,0,0,15.8,61.17,27.87,27.87,0,0,0,17.88,64.15Z"/><path class="cls-1" d="M71,100.12a6.54,6.54,0,0,0,.93,1.06,12.43,12.43,0,0,0,8.31,2.76,12.43,12.43,0,0,0,8.31-2.76,4.43,4.43,0,0,0,0-7,9.09,9.09,0,0,0-1.22-.93A11.43,11.43,0,0,0,85,92.19a15.41,15.41,0,0,0-9.56,0,11.43,11.43,0,0,0-2.31,1.07,7.15,7.15,0,0,0-2.15,2,4.79,4.79,0,0,0-.58,1.18,4.06,4.06,0,0,0-.21,1.26A4.16,4.16,0,0,0,70.44,99,4.73,4.73,0,0,0,71,100.12Z"/><path class="cls-2" d="M40.75,90.89l4.49.34c1.5.11,3,.28,4.5.44a32.13,32.13,0,0,0,4.5.12c1.5-.07,3-.2,4.51-.41a28.22,28.22,0,0,0,4.52-.95v-.35a29.47,29.47,0,0,0-4.47-1.17c-1.5-.28-3-.48-4.49-.62a32.2,32.2,0,0,0-4.5-.09c-1.51.09-3,.19-4.51.23l-4.51.13-4.5.18c-3,.17-6,.28-9,.49v.35c3,.35,6,.6,9,.91Z"/><path class="cls-2" d="M64.84,97.05a28.92,28.92,0,0,0-4.6.43c-1.5.25-3,.57-4.43,1a32.39,32.39,0,0,0-4.26,1.45c-1.38.59-2.76,1.21-4.16,1.76l-4.18,1.66L39,105c-2.77,1.18-5.55,2.32-8.3,3.54l.11.33c2.93-.69,5.83-1.48,8.75-2.21L44,105.51l4.34-1.21c1.44-.41,2.91-.76,4.37-1.13a30.53,30.53,0,0,0,4.27-1.42c1.39-.58,2.76-1.21,4.1-1.92A29.11,29.11,0,0,0,65,97.38Z"/><path class="cls-2" d="M101.77,91.38c1.51.21,3,.34,4.51.41a32.22,32.22,0,0,0,4.5-.12c1.5-.16,3-.33,4.49-.44l4.5-.34,4.49-.4c3-.31,6-.56,9-.91v-.35c-3-.21-6-.32-9-.49l-4.51-.18-4.5-.13c-1.5,0-3-.14-4.51-.23a32.2,32.2,0,0,0-4.5.09c-1.5.14-3,.34-4.49.62a29.47,29.47,0,0,0-4.47,1.17v.35A28,28,0,0,0,101.77,91.38Z"/><path class="cls-2" d="M117.31,103.31l-4.19-1.66c-1.39-.55-2.77-1.17-4.16-1.76a31.76,31.76,0,0,0-4.25-1.45c-1.46-.39-2.93-.71-4.43-1a29.16,29.16,0,0,0-4.61-.43l-.11.33a28.5,28.5,0,0,0,3.93,2.45c1.34.71,2.71,1.34,4.1,1.92a30.11,30.11,0,0,0,4.27,1.42c1.46.37,2.92.72,4.37,1.13l4.34,1.21,4.36,1.17c2.91.73,5.82,1.52,8.75,2.21l.11-.33c-2.75-1.22-5.54-2.36-8.31-3.54Z"/><path class="cls-3" d="M74.6,96.81a3.79,3.79,0,0,0,.57.65,8.51,8.51,0,0,0,10.18,0,2.72,2.72,0,0,0,0-4.29,4.88,4.88,0,0,0-.75-.56A6.54,6.54,0,0,0,83.19,92a9.37,9.37,0,0,0-5.86,0,6.32,6.32,0,0,0-1.41.66,4.22,4.22,0,0,0-1.32,1.22,2.5,2.5,0,0,0-.36.71,2.56,2.56,0,0,0,0,1.55A2.7,2.7,0,0,0,74.6,96.81Z"/><path class="cls-3" d="M147.32,124.91c0-.27,0-.54,0-.81s0-.54,0-.81a13.76,13.76,0,0,0-.36-2.4,13.48,13.48,0,0,0-1.1-3c-.32-.62-.68-1.24-1.06-1.85s-.8-1.22-1.25-1.82-.92-1.2-1.43-1.79a38.3,38.3,0,0,0-5.11-4.84,50,50,0,0,0-4.88-3.42c-.79-.49-1.62-1-2.47-1.43-1.65-.92-3.38-1.8-5.21-2.63l-2.12-.91c-.57.62-1.13,1.25-1.7,1.86l-1,1h0l1.31.53,1.3.54,2.91,1.23c1.79.75,3.64,1.53,5.45,2.33l1.67.74L131,111.23l-1.18-.28-.59-.14c-1-.23-1.93-.47-2.9-.72l-2.85-.73-3-.78-4.38-1.17-1.1-.31h0l-1.13-.31-3.52,4.76s27.14,4.11,36.13,17.63a15.55,15.55,0,0,0,.71-2.74Q147.28,125.68,147.32,124.91Z"/><path class="cls-3" d="M49.55,111.66c-1.3-1.53-2.61-3.06-4-4.56l-1.07.3-4.38,1.18-3.07.78c-1.88.49-3.81,1-5.74,1.45l-1.78.42-1.27-3.79,1.66-.74c1.82-.8,3.66-1.58,5.45-2.33l2.89-1.22,2.63-1.08h0l-1-1-1.7-1.86c-1.43.6-2.82,1.22-4.15,1.87-.91.44-1.78.9-2.63,1.37-1,.56-2.05,1.14-3,1.73-1.17.73-2.28,1.48-3.34,2.25s-2.05,1.56-3,2.37a30.71,30.71,0,0,0-7.41,9.1,15,15,0,0,0-.64,1.48,14.28,14.28,0,0,0-.82,3.94,14.59,14.59,0,0,0,0,1.62,14.85,14.85,0,0,0,.88,4.23C22.34,116.84,45.51,112.36,49.55,111.66Z"/><path class="cls-3" d="M78.09,7.06a11.6,11.6,0,0,0-5.94,2.77,130.14,130.14,0,0,0-15,16.26,50.28,50.28,0,0,1,22.4-6.54Z"/><path class="cls-3" d="M88.4,9.83a11.6,11.6,0,0,0-5.94-2.77L81,19.52a40.3,40.3,0,0,1,22.58,6.82A130.13,130.13,0,0,0,88.4,9.83Z"/><path class="cls-3" d="M144,31.8a28,28,0,0,0-2.43-3.09,27.61,27.61,0,0,0-3.88-3.53c-.7-.52-1.43-1-2.18-1.47a27.14,27.14,0,0,0-4.76-2.3c-.84-.31-1.69-.57-2.57-.8a27.33,27.33,0,0,0-6.81-.86c-.6,0-1.21,0-1.8.06a26.12,26.12,0,0,0-3.55.47c-.59.11-1.16.25-1.74.4a26.62,26.62,0,0,0-3.36,1.15c-.55.22-1.09.47-1.63.73s-1.06.55-1.57.85h0c1.75,2.26,3.4,4.59,5,7l.47.65S138.66,23.94,148,41.37a27.37,27.37,0,0,0-2.66-7.32C145,33.28,144.5,32.52,144,31.8Z"/><path class="cls-3" d="M47.21,31.24l5.62-7.83c-.52-.3-1-.58-1.58-.85s-1.38-.63-2.08-.91c-.85-.33-1.71-.61-2.58-.86l-.84-.21c-.76-.19-1.53-.34-2.31-.46-.33-.05-.64-.11-1-.15a27.37,27.37,0,0,0-3.28-.22c-.61,0-1.21.05-1.82.08-.79.05-1.56.12-2.33.24a26.45,26.45,0,0,0-4,.91c-.42.13-.85.28-1.26.43a25.36,25.36,0,0,0-2.45,1c-.65.31-1.28.66-1.9,1L24.6,24c-.45.28-.88.57-1.31.88s-.84.62-1.25.95c-.59.47-1.15,1-1.7,1.5a27.54,27.54,0,0,0-3.83,4.57C19.81,30.06,34,23.12,47.21,31.24Z"/><path class="cls-4" d="M55.92,65.26a5.89,5.89,0,0,0-2.29,3,6.27,6.27,0,0,0,3.57,8.12c3.23,1.26,9.38-.77,9.09-4.22C65.85,66.8,60.27,64,55.92,65.26Z"/><path class="cls-4" d="M103.81,65.26a5.84,5.84,0,0,1,2.29,3,6.27,6.27,0,0,1-3.57,8.12c-3.23,1.26-9.38-.77-9.09-4.22C93.88,66.8,99.46,64,103.81,65.26Z"/></svg>