<?xml version="1.0" encoding="UTF-8" standalone="no"?>
<!-- Created with Inkscape (http://www.inkscape.org/) -->

<svg
   version="1.1"
   width="2158.1594"
   height="345.745"
   viewbox="0 0 1192.0671 293.39838"
   id="svg3207"
   sodipodi:docname="gsa.svg"
   inkscape:version="1.2.2 (b0a8486, 2022-12-01)"
   xmlns:inkscape="http://www.inkscape.org/namespaces/inkscape"
   xmlns:sodipodi="http://sodipodi.sourceforge.net/DTD/sodipodi-0.dtd"
   xmlns="http://www.w3.org/2000/svg"
   xmlns:svg="http://www.w3.org/2000/svg"
   xmlns:rdf="http://www.w3.org/1999/02/22-rdf-syntax-ns#"
   xmlns:cc="http://creativecommons.org/ns#"
   xmlns:dc="http://purl.org/dc/elements/1.1/">
  <sodipodi:namedview
     id="namedview927"
     pagecolor="#ffffff"
     bordercolor="#000000"
     borderopacity="0.25"
     inkscape:showpageshadow="true"
     inkscape:pageopacity="0.0"
     inkscape:pagecheckerboard="true"
     inkscape:deskcolor="#d1d1d1"
     showgrid="false"
     inkscape:zoom="0.56877343"
     inkscape:cx="1381.042"
     inkscape:cy="187.24503"
     inkscape:window-width="1864"
     inkscape:window-height="731"
     inkscape:window-x="1814"
     inkscape:window-y="142"
     inkscape:window-maximized="0"
     inkscape:current-layer="svg3207"
     showborder="true"
     shape-rendering="auto" />
  <defs
     id="defs3209">
    <filter
       inkscape:collect="always"
       style="color-interpolation-filters:sRGB"
       id="filter2077"
       x="-0.01087694"
       y="-0.02471072"
       width="1.0217539"
       height="1.0494214">
      <feGaussianBlur
         inkscape:collect="always"
         stdDeviation="2.01186"
         id="feGaussianBlur2079" />
    </filter>
  </defs>
  <metadata
     id="metadata3212">
    <rdf:RDF>
      <cc:Work
         rdf:about="">
        <dc:format>image/svg+xml</dc:format>
        <dc:type
           rdf:resource="http://purl.org/dc/dcmitype/StillImage" />
      </cc:Work>
    </rdf:RDF>
  </metadata>
  <rect
     style="opacity:1;fill:#ffffff;stroke:#000000;stroke-width:3;stroke-linecap:butt;stroke-linejoin:miter;stroke-miterlimit:3.9;stroke-dasharray:none;stroke-dashoffset:0;stroke-opacity:1;paint-order:normal;filter:url(#filter2077)"
     id="rect1398"
     width="581.82391"
     height="256.10196"
     x="1202.6016"
     y="21.394211"
     transform="matrix(1.6159269,0,0,1.2864491,-735.56797,-19.381317)"
     inkscape:label="Logo Border and background" />
  <g
     transform="translate(322.45518,-106.64362)"
     id="layer1"
     style="display:inline">
    <g
       transform="matrix(0.52581597,0,0,0.52581597,404.26485,-47.364789)"
       id="layer1-3"
       style="display:inline">
      <g
         id="text3070"
         style="font-style:normal;font-variant:normal;font-weight:normal;font-stretch:normal;font-size:275.534px;line-height:125%;font-family:Greenbone;-inkscape-font-specification:Greenbone;letter-spacing:0px;word-spacing:0px;display:inline;fill:#393637;fill-opacity:1;stroke:#393637;stroke-opacity:0">
        <g
           transform="translate(-1298.0296,136.58175)"
           id="g3059">
          <path
             d="M 87.680264,320.06883 H 41.494962 v 77.28969 c -10.99649,5.96952 -23.563945,10.9965 -38.9590307,10.9965 -27.0199453,0 -35.5029873,-16.6519 -35.5029873,-70.69179 0,-62.83709 11.939094,-72.26272 48.070417,-72.26272 18.851124,0 39.901609,0.62837 61.266217,1.57093 l 3.770229,-35.1888 c -20.422052,-5.65534 -41.158356,-7.54046 -66.607375,-7.54046 -71.32009,0 -97.083391,26.0775 -97.083391,111.85012 0,79.48891 20.422121,113.10686 69.120861,113.10686 29.847614,0 51.212285,-14.13837 62.52296,-25.76323 l 4.3986,21.67882 H 87.680264 V 320.06883"
             id="path3023"
             style="font-style:normal;font-variant:normal;font-weight:bold;font-stretch:normal;font-size:314.186px;line-height:125%;font-family:Greenbone;-inkscape-font-specification:'Greenbone Bold';letter-spacing:0px;word-spacing:0px;fill:#393637;fill-opacity:1;stroke:#393637;stroke-opacity:0" />
          <path
             d="m 234.57191,285.82258 h -8.16883 c -20.10787,0 -42.10091,9.42559 -62.83715,27.01997 l -4.08441,-22.62137 h -36.13136 v 154.89357 h 46.49949 V 339.54834 c 20.73623,-6.91208 34.24626,-10.68231 47.44204,-10.68231 h 12.56743 l 4.71279,-43.04345"
             id="path3025"
             style="font-style:normal;font-variant:normal;font-weight:bold;font-stretch:normal;font-size:314.186px;line-height:125%;font-family:Greenbone;-inkscape-font-specification:'Greenbone Bold';letter-spacing:0px;word-spacing:0px;fill:#393637;fill-opacity:1;stroke:#393637;stroke-opacity:0" />
          <path
             d="m 353.32429,383.22016 c 33.61784,0 47.12786,-15.08095 47.12786,-43.35763 -0.31419,-35.50296 -20.73631,-54.03995 -73.51946,-54.03995 -56.23919,0 -78.86062,20.73632 -78.86062,82.00248 0,57.18174 21.99306,81.05991 80.74573,81.05991 21.99298,0 49.32718,-2.82768 67.54993,-11.62487 l -4.3986,-28.90508 c -21.05042,2.19929 -43.67183,3.45604 -57.81017,3.45604 -23.56391,0 -33.93206,-5.34118 -36.75973,-28.5909 h 55.92506 m -56.86762,-27.96253 c 1.25674,-29.21925 8.79722,-35.50299 32.04694,-35.50299 20.10787,0 26.39161,5.02699 26.39161,19.47952 0,8.79719 -1.88513,16.02347 -14.45255,16.02347 h -43.986"
             id="path3027"
             style="font-style:normal;font-variant:normal;font-weight:bold;font-stretch:normal;font-size:314.186px;line-height:125%;font-family:Greenbone;-inkscape-font-specification:'Greenbone Bold';letter-spacing:0px;word-spacing:0px;fill:#393637;fill-opacity:1;stroke:#393637;stroke-opacity:0" />
          <path
             d="m 529.44013,383.22016 c 33.61784,0 47.12786,-15.08095 47.12786,-43.35763 -0.31418,-35.50296 -20.73631,-54.03995 -73.51946,-54.03995 -56.23919,0 -78.86062,20.73632 -78.86062,82.00248 0,57.18174 21.99306,81.05991 80.74574,81.05991 21.99297,0 49.32717,-2.82768 67.54993,-11.62487 l -4.3986,-28.90508 c -21.05043,2.19929 -43.67183,3.45604 -57.81018,3.45604 -23.5639,0 -33.93206,-5.34118 -36.75973,-28.5909 h 55.92506 m -56.86761,-27.96253 c 1.25674,-29.21925 8.79722,-35.50299 32.04694,-35.50299 20.10787,0 26.3916,5.02699 26.3916,19.47952 0,8.79719 -1.88513,16.02347 -14.45254,16.02347 h -43.986"
             id="path3029"
             style="font-style:normal;font-variant:normal;font-weight:bold;font-stretch:normal;font-size:314.186px;line-height:125%;font-family:Greenbone;-inkscape-font-specification:'Greenbone Bold';letter-spacing:0px;word-spacing:0px;fill:#393637;fill-opacity:1;stroke:#393637;stroke-opacity:0" />
          <path
             d="m 644.60395,290.22118 h -37.70229 v 154.89357 h 46.49949 V 339.23416 c 18.22275,-9.11138 30.47602,-14.13836 43.04344,-14.13836 11.31068,0 15.08092,4.08443 15.08092,18.22277 v 101.79618 h 46.1853 V 328.86603 c 0,-27.96251 -15.08095,-43.04345 -43.35763,-43.04345 -21.99298,0 -44.6144,9.73978 -66.29319,27.33416 l -3.45604,-22.93556"
             id="path3031"
             style="font-style:normal;font-variant:normal;font-weight:bold;font-stretch:normal;font-size:314.186px;line-height:125%;font-family:Greenbone;-inkscape-font-specification:'Greenbone Bold';letter-spacing:0px;word-spacing:0px;fill:#393637;fill-opacity:1;stroke:#393637;stroke-opacity:0" />
          <path
             d="m 841.47563,225.18474 h -46.81367 v 211.76118 c 19.16531,8.16882 56.86764,11.93905 78.86062,11.93905 61.89452,0 75.71876,-35.18884 75.71876,-82.63084 0,-57.49593 -16.96607,-80.43155 -56.86762,-80.43155 -20.42205,0 -40.21579,10.05396 -54.9825,25.13486 3.14185,-11.31068 4.08441,-23.56394 4.08441,-36.44555 v -49.32715 m -0.31418,110.90756 c 11.31067,-7.54045 20.42208,-13.1958 32.67531,-13.1958 22.93554,0 27.64835,10.05397 27.64835,43.67181 0,36.7597 -7.85467,47.12786 -28.90509,47.75623 -8.79719,0.31419 -21.05046,-0.62837 -31.41857,-2.82767 V 336.0923"
             id="path3033"
             style="font-style:normal;font-variant:normal;font-weight:bold;font-stretch:normal;font-size:314.186px;line-height:125%;font-family:Greenbone;-inkscape-font-specification:'Greenbone Bold';letter-spacing:0px;word-spacing:0px;fill:#393637;fill-opacity:1;stroke:#393637;stroke-opacity:0" />
          <path
             d="m 1054.4297,285.82258 c -58.12425,0 -79.80313,22.30725 -79.80313,82.00248 0,59.38104 21.67888,81.3741 79.80313,81.3741 57.8102,0 79.489,-21.99306 79.489,-81.3741 0,-59.69523 -21.6788,-82.00248 -79.489,-82.00248 m 0,34.87462 c 23.8781,0 30.7902,9.42561 30.7902,47.12786 0,37.07388 -6.9121,46.49948 -30.7902,46.49948 -24.5064,0 -31.1043,-9.4256 -31.1043,-46.49948 0,-37.70225 6.5979,-47.12786 31.1043,-47.12786"
             id="path3035"
             style="font-style:normal;font-variant:normal;font-weight:bold;font-stretch:normal;font-size:314.186px;line-height:125%;font-family:Greenbone;-inkscape-font-specification:'Greenbone Bold';letter-spacing:0px;word-spacing:0px;fill:#393637;fill-opacity:1;stroke:#393637;stroke-opacity:0" />
          <path
             d="m 1203.6337,290.22118 h -37.7023 v 154.89357 h 46.4995 V 339.23416 c 18.2227,-9.11138 30.476,-14.13836 43.0434,-14.13836 11.3107,0 15.0809,4.08443 15.0809,18.22277 v 101.79618 h 46.1853 V 328.86603 c 0,-27.96251 -15.0809,-43.04345 -43.3576,-43.04345 -21.993,0 -44.6144,9.73978 -66.2932,27.33416 l -3.456,-22.93556"
             id="path3037"
             style="font-style:normal;font-variant:normal;font-weight:bold;font-stretch:normal;font-size:314.186px;line-height:125%;font-family:Greenbone;-inkscape-font-specification:'Greenbone Bold';letter-spacing:0px;word-spacing:0px;fill:#393637;fill-opacity:1;stroke:#393637;stroke-opacity:0" />
          <path
             d="m 1452.9744,383.22016 c 33.6178,0 47.1278,-15.08095 47.1278,-43.35763 -0.3142,-35.50296 -20.7363,-54.03995 -73.5194,-54.03995 -56.2392,0 -78.8606,20.73632 -78.8606,82.00248 0,57.18174 21.993,81.05991 80.7457,81.05991 21.993,0 49.3272,-2.82768 67.5499,-11.62487 l -4.3986,-28.90508 c -21.0504,2.19929 -43.6718,3.45604 -57.8102,3.45604 -23.5639,0 -33.932,-5.34118 -36.7597,-28.5909 h 55.9251 m -56.8676,-27.96253 c 1.2567,-29.21925 8.7972,-35.50299 32.0469,-35.50299 20.1079,0 26.3916,5.02699 26.3916,19.47952 0,8.79719 -1.8851,16.02347 -14.4525,16.02347 h -43.986"
             id="path3039"
             style="font-style:normal;font-variant:normal;font-weight:bold;font-stretch:normal;font-size:314.186px;line-height:125%;font-family:Greenbone;-inkscape-font-specification:'Greenbone Bold';letter-spacing:0px;word-spacing:0px;fill:#393637;fill-opacity:1;stroke:#393637;stroke-opacity:0" />
          <path
             d="m 9.9311819,624.96552 c 16.5320361,4.13301 23.9714761,9.36818 23.9714761,31.4109 0,26.17572 -9.092658,30.5843 -38.299255,30.5843 -15.705434,0.27553 -25.900248,-0.27554 -58.137718,-1.37767 l -1.653206,17.90972 c 25.90019,4.68408 46.565294,5.23515 58.9643214,5.23515 44.3609636,0 63.6484026,-7.99054 63.6484026,-51.80043 0,-29.48213 -9.092658,-46.28976 -38.299255,-53.45364 l -38.57479,-9.6437 c -16.80757,-4.13301 -23.971476,-10.19478 -23.971476,-31.13536 0,-28.10446 10.745862,-28.93109 38.2992552,-28.93109 17.6341718,0 37.7482028,0.55107 53.7291708,1.37767 l 1.653205,-17.63419 c -19.011841,-4.13301 -38.574807,-5.23515 -56.4845126,-5.51069 -42.4322264,0 -61.7196634,5.78627 -61.7196634,50.14723 0,28.93106 9.919259,46.01422 37.472653,52.90257 l 39.4013919,9.91923"
             id="path2988" />
          <path
             d="m 174.57579,649.7636 c 22.31825,0 32.2375,-14.05227 31.96197,-38.02372 0,-28.93107 -17.08316,-43.80994 -57.58665,-43.80994 -43.25883,0 -61.719663,17.35871 -61.719663,69.98569 0,51.52484 17.909773,70.81229 64.199473,70.81229 15.4299,0 39.4014,-2.20428 52.07596,-7.43942 l -2.4798,-15.70545 c -13.7767,1.92873 -32.23752,3.30641 -46.56529,3.30641 -27.55339,0 -39.95246,-7.16393 -42.43226,-39.12586 h 62.54626 m -62.8218,-18.18526 c 0.8266,-33.89067 10.1948,-43.80994 38.29926,-43.80994 23.97145,0 32.78857,6.88837 33.0641,23.97148 0,9.91922 -2.47982,19.83846 -14.60331,19.83846 h -56.76005"
             id="path2990" />
          <path
             d="m 342.40624,686.13411 c -13.77669,2.20428 -31.4109,2.75535 -39.40139,2.75535 -31.96193,0 -42.98333,-11.29695 -42.98333,-50.6983 0,-39.12582 11.0214,-50.42276 42.98333,-50.42276 9.36816,0 24.24702,0.55107 36.37052,1.65321 l 3.03087,-15.15439 c -13.22562,-4.95961 -31.41091,-6.33728 -43.25887,-6.33728 -46.56523,0 -63.92393,18.46084 -63.92393,70.26122 0,51.80038 17.3587,70.53676 63.6484,70.53676 15.70543,0 32.51305,-2.20428 46.01421,-6.88836 l -2.47981,-15.70545"
             id="path2992" />
          <path
             d="m 490.44563,571.23635 h -23.42041 v 98.09018 c -19.56291,12.67456 -32.51305,19.28739 -46.84081,19.28739 -15.42991,0 -21.49167,-6.06177 -21.21614,-23.14487 v -94.2327 h -23.42041 v 100.84552 c 0,24.24699 12.39907,36.92158 36.64605,36.92158 19.28738,0 37.74821,-7.71497 57.86219,-22.86934 l 1.6532,19.2874 h 18.73633 V 571.23635"
             id="path2994" />
          <path
             d="m 617.55302,567.92994 h -6.06175 c -18.18524,0 -37.7482,9.09264 -57.31111,24.52254 l -2.47981,-21.21613 H 533.51509 V 705.42151 H 556.9355 V 607.0558 c 21.21611,-10.74583 35.26839,-17.08313 50.14722,-17.08313 h 7.71496 l 2.75534,-22.04273"
             id="path2996" />
          <path
             d="m 651.00027,514.20077 c -4.68408,0 -7.16389,2.75534 -7.16389,7.16389 v 15.70545 c 0,4.95961 2.47981,7.16389 7.16389,7.16389 h 11.02137 c 4.95961,0 7.16389,-2.20428 7.16389,-7.16389 v -15.70545 c 0,-4.40855 -2.20428,-7.16389 -7.16389,-7.16389 h -11.02137 m 17.08312,191.22074 V 571.23635 h -23.14487 v 134.18516 h 23.14487"
             id="path2998" />
          <path
             d="m 745.79695,589.69714 h 42.7078 v -18.46079 h -42.7078 v -39.67693 h -23.42041 v 39.95246 l -24.24701,1.10214 v 17.08312 h 24.24701 v 81.83366 c 0,23.42039 11.848,36.37052 34.44178,36.37052 6.61281,0 21.49168,-1.10214 30.30876,-3.58195 l -2.75534,-17.90972 h -20.38953 c -13.22563,0 -18.18526,-4.95963 -18.18526,-17.90973 v -78.80278"
             id="path3000" />
          <path
             d="m 936.15238,571.23635 h -25.34915 l -34.99285,100.01892 c -1.6532,4.95961 -3.58194,10.74584 -5.78621,16.25652 h -3.85748 c -1.10214,-5.51068 -3.03088,-10.74584 -4.95962,-16.25652 L 825.66316,571.23635 h -25.07362 l 48.76956,128.12341 c 1.10214,3.85747 4.40855,6.06175 8.26603,6.06175 h 5.23515 l -2.20428,5.78622 c -6.88835,16.80757 -17.35867,28.65556 -39.12586,35.54391 l 2.20428,15.42992 c 33.3396,-1.65321 49.8717,-25.62471 58.68878,-49.32063 l 53.72918,-141.62458"
             id="path3002" />
          <path
             d="m 1115.2582,645.90612 18.7363,59.51539 h 25.0736 l -61.1686,-183.50579 c -1.1021,-4.133 -4.684,-6.61282 -9.0926,-6.61282 h -25.3491 c -4.4086,0 -7.9905,2.47982 -9.0927,6.61282 l -61.16855,183.50579 h 25.07365 l 18.7363,-59.51539 h 78.2517 m -6.6128,-20.9406 h -65.0261 l 23.9715,-75.49637 4.6841,-15.42992 h 7.7149 c 1.3777,4.95961 3.0309,10.4703 4.6841,15.42992 l 23.9715,75.49637"
             id="path3004" />
          <path
             d="m 1244.234,651.14127 c 12.9501,3.03087 21.2162,5.5107 21.2162,18.73633 0,15.98096 -9.3682,18.73632 -39.4014,18.73632 -17.3587,0.27554 -33.0641,-0.27553 -46.2898,-1.10213 l -1.6532,17.08312 c 22.8693,3.58194 42.9834,3.85748 52.6271,3.85748 38.8502,0 57.3111,-5.51072 57.3111,-38.57479 0,-22.86932 -9.9193,-31.68644 -31.1354,-36.92159 l -39.1258,-8.81709 c -12.9501,-3.03088 -19.563,-5.23517 -19.563,-19.2874 0,-16.80757 8.2661,-17.35865 33.0641,-17.08312 16.8076,0 34.1663,0.8266 50.9739,1.37767 l 1.9287,-17.08312 c -16.532,-2.4798 -38.8503,-3.85748 -56.4845,-4.13301 -36.646,-0.55107 -52.3515,5.78625 -52.3515,36.92158 0,22.04272 8.5416,32.23751 30.3087,37.47265 l 38.5748,8.8171"
             id="path3006" />
          <path
             d="m 1384.1537,651.14127 c 12.9501,3.03087 21.2162,5.5107 21.2162,18.73633 0,15.98096 -9.3682,18.73632 -39.4014,18.73632 -17.3587,0.27554 -33.0642,-0.27553 -46.2898,-1.10213 l -1.6532,17.08312 c 22.8693,3.58194 42.9834,3.85748 52.627,3.85748 38.8503,0 57.3112,-5.51072 57.3112,-38.57479 0,-22.86932 -9.9193,-31.68644 -31.1354,-36.92159 l -39.1259,-8.81709 c -12.9501,-3.03088 -19.5629,-5.23517 -19.5629,-19.2874 0,-16.80757 8.2661,-17.35865 33.0641,-17.08312 16.8076,0 34.1663,0.8266 50.9738,1.37767 l 1.9288,-17.08312 c -16.5321,-2.4798 -38.8504,-3.85748 -56.4845,-4.13301 -36.646,-0.55107 -52.3515,5.78625 -52.3515,36.92158 0,22.04272 8.5415,32.23751 30.3087,37.47265 l 38.5748,8.8171"
             id="path3008" />
          <path
             d="m 1470.0688,514.20077 c -4.6841,0 -7.1639,2.75534 -7.1639,7.16389 v 15.70545 c 0,4.95961 2.4798,7.16389 7.1639,7.16389 h 11.0214 c 4.9596,0 7.1639,-2.20428 7.1639,-7.16389 v -15.70545 c 0,-4.40855 -2.2043,-7.16389 -7.1639,-7.16389 h -11.0214 m 17.0831,191.22074 V 571.23635 h -23.1448 v 134.18516 h 23.1448"
             id="path3010" />
          <path
             d="m 1592.4189,651.14127 c 12.95,3.03087 21.2161,5.5107 21.2161,18.73633 0,15.98096 -9.3682,18.73632 -39.4014,18.73632 -17.3586,0.27554 -33.0641,-0.27553 -46.2898,-1.10213 l -1.6532,17.08312 c 22.8694,3.58194 42.9834,3.85748 52.6271,3.85748 38.8503,0 57.3111,-5.51072 57.3111,-38.57479 0,-22.86932 -9.9193,-31.68644 -31.1354,-36.92159 l -39.1258,-8.81709 c -12.9501,-3.03088 -19.563,-5.23517 -19.563,-19.2874 0,-16.80757 8.2661,-17.35865 33.0641,-17.08312 16.8076,0 34.1663,0.8266 50.9739,1.37767 l 1.9287,-17.08312 c -16.532,-2.4798 -38.8503,-3.85748 -56.4845,-4.13301 -36.646,-0.55107 -52.3515,5.78625 -52.3515,36.92158 0,22.04272 8.5416,32.23751 30.3088,37.47265 l 38.5748,8.8171"
             id="path3012" />
          <path
             d="m 1704.7852,589.69714 h 42.7078 v -18.46079 h -42.7078 v -39.67693 h -23.4204 v 39.95246 l -24.247,1.10214 v 17.08312 h 24.247 v 81.83366 c 0,23.42039 11.848,36.37052 34.4418,36.37052 6.6128,0 21.4917,-1.10214 30.3088,-3.58195 l -2.7554,-17.90972 h -20.3895 c -13.2256,0 -18.1853,-4.95963 -18.1853,-17.90973 v -78.80278"
             id="path3014" />
          <path
             d="m 1776.9364,591.35035 c 20.3895,-1.92874 43.5344,-3.58195 57.5866,-3.58195 21.2161,0 27.2779,6.61284 27.2779,23.14487 v 11.84798 h -55.9334 c -23.4204,0 -37.1972,12.12352 -37.1972,33.0641 v 14.60331 c 0,24.24699 16.2566,37.47266 40.228,37.47266 24.5225,0 44.9121,-13.77672 55.3824,-24.52255 l 2.7553,22.04274 h 18.4608 v -94.50824 c 0,-32.513 -16.2565,-42.98333 -46.0142,-42.98333 -20.114,0 -46.2897,3.03088 -64.7505,6.06175 l 2.2043,17.35866 m 15.7054,67.78141 c 0,-11.29689 4.4086,-17.90972 17.3587,-18.46079 h 51.8004 v 27.00235 c -15.4299,13.7767 -34.9929,20.38953 -48.2185,20.114 -14.6033,0 -20.9406,-6.06177 -20.9406,-20.114 v -8.54156"
             id="path3016" />
          <path
             d="m 1947.1692,571.23635 h -19.8385 v 134.18516 h 23.4204 v -96.43697 c 21.4917,-13.22563 35.8195,-21.21614 51.8004,-21.21614 13.7767,0 19.2874,5.78624 19.2874,23.69594 v 93.95717 h 23.4204 V 604.85152 c 0,-24.24698 -12.6746,-36.92158 -36.3705,-36.92158 -19.8384,0 -39.6769,9.09264 -60.0664,24.52254 l -1.6532,-21.21613"
             id="path3018" />
          <path
             d="m 2120.7772,589.69714 h 42.7078 v -18.46079 h -42.7078 v -39.67693 h -23.4204 v 39.95246 l -24.247,1.10214 v 17.08312 h 24.247 v 81.83366 c 0,23.42039 11.848,36.37052 34.4417,36.37052 6.6129,0 21.4917,-1.10214 30.3088,-3.58195 l -2.7553,-17.90972 h -20.3896 c -13.2256,0 -18.1852,-4.95963 -18.1852,-17.90973 v -78.80278"
             id="path3020" />
        </g>
      </g>
    </g>
  </g>
  <path
     d="m 1728.7984,268.30173 a 10.437343,11.356028 0 1 0 0,22.71205 12.236876,13.313956 0 0 0 8.1797,-3.82688 l 2.9772,3.55987 a 16.882964,18.368987 0 0 1 -11.4515,5.33983 15.001626,16.322058 0 1 1 0.18,-32.62631 16.359461,17.799408 0 0 1 11.2879,4.84144 l -2.9283,3.96926 a 11.566139,12.58418 0 0 0 -8.245,-3.96926 z"
     id="path933"
     style="stroke-width:1.70641" />
  <path
     d="m 1760.241,285.03315 v 10.67965 h -4.9078 v -10.50164 l -11.0589,-21.69748 h 5.055 l 8.458,15.69907 8.3104,-15.69907 h 5.0715 z"
     id="path935"
     style="stroke-width:1.70641" />
  <path
     d="m 1800.8617,271.57681 a 6.5437846,7.1197627 0 0 1 -5.2023,7.11978 7.1818036,7.8139396 0 0 1 6.3475,8.15213 c 0,5.5178 -4.1063,8.89968 -10.7971,8.89968 h -13.1697 v -32.23472 h 12.8751 c 6.1511,0 9.9465,3.00812 9.9465,8.06313 z m -5.1204,0.96117 c 0,-2.6699 -1.8977,-4.20066 -5.0881,-4.14724 h -7.6233 v 8.47252 h 7.6233 c 3.1411,0 5.0881,-1.54857 5.0881,-4.32528 z m 1.1449,13.68775 c 0,-2.8657 -2.3392,-4.61004 -6.233,-4.55666 h -7.6233 v 9.20232 h 7.6233 c 3.8938,0.0535 6.233,-1.65537 6.233,-4.64566 z"
     id="path937"
     style="stroke-width:1.70641" />
  <path
     d="m 1832.092,263.51368 v 4.87706 h -16.1796 v 8.81071 h 14.4946 v 4.84141 h -14.4946 v 8.89971 h 16.6868 v 4.89483 h -21.6765 v -32.32372 z"
     id="path939"
     style="stroke-width:1.70641" />
  <path
     d="m 1860.4921,295.76621 -5.4317,-9.77187 c -0.4086,0 -0.8831,0 -1.3413,0 h -7.0345 v 9.73626 h -4.9898 v -32.21692 h 12.0243 c 7.5744,0 11.9424,4.00488 11.9424,11.00003 a 9.5375661,10.377054 0 0 1 -6.1512,10.46607 l 6.6585,10.78643 z m -6.773,-14.61331 c 4.5646,0 7.1981,-2.11813 7.1981,-6.49679 0,-4.37865 -2.6335,-6.26537 -7.1981,-6.26537 h -7.0345 v 12.76216 z"
     id="path941"
     style="stroke-width:1.70641" />
  <path
     d="m 1884.6386,268.39074 c -2.9122,0 -4.8261,1.19255 -4.8261,3.36409 0,7.11974 16.0158,3.27508 15.9668,14.88027 0,5.76702 -4.6625,9.30912 -11.1736,9.30912 a 18.257159,19.864139 0 0 1 -12.1224,-5.10846 l 2.1595,-4.69903 a 15.754162,17.140828 0 0 0 10.0448,4.69903 c 3.4679,0 5.5458,-1.42393 5.5458,-3.91587 0,-7.11975 -15.9995,-3.18609 -15.9995,-14.6489 0,-5.53563 4.3517,-8.8997 10.7971,-8.8997 a 19.353244,21.056698 0 0 1 10.3719,3.31069 l -2.0776,4.78803 a 17.766374,19.330157 0 0 0 -8.6867,-3.07927 z"
     id="path943"
     style="stroke-width:1.70641" />
  <path
     d="m 1925.7827,263.51368 v 4.87706 h -16.1797 v 8.81071 h 14.478 v 4.84141 h -14.478 v 8.89971 h 16.7029 v 4.89483 h -21.6924 v -32.32372 z"
     id="path945"
     style="stroke-width:1.70641" />
  <path
     d="m 1948.5875,268.30173 a 10.437343,11.356028 0 1 0 0,22.71205 12.302315,13.385154 0 0 0 8.2617,-3.82688 l 2.9611,3.55987 a 16.850246,18.33339 0 0 1 -11.4517,5.33983 15.001626,16.322058 0 1 1 0.1799,-32.62631 16.359461,17.799408 0 0 1 11.2555,4.96605 l -2.912,3.96925 a 11.598859,12.619779 0 0 0 -8.2945,-4.09386 z"
     id="path947"
     style="stroke-width:1.70641" />
  <path
     d="m 1980.2923,291.10276 c 4.8261,0 7.8362,-3.22167 7.8362,-8.70391 v -18.88517 h 4.9897 v 18.88517 c 0,8.43691 -4.9081,13.59875 -12.8749,13.59875 -7.9671,0 -12.9079,-5.16184 -12.9079,-13.59875 v -18.88517 h 4.9899 v 18.88517 a 7.3944764,8.0453316 0 0 0 7.967,8.70391 z"
     id="path949"
     style="stroke-width:1.70641" />
  <path
     d="m 2022.0088,295.76621 -5.4148,-9.77187 c -0.4253,0 -0.8836,0 -1.358,0 h -7.0182 v 9.73626 h -5.0223 v -32.21692 h 12.0241 c 7.5906,0 11.9426,4.00488 11.9426,11.00003 a 9.5212065,10.359254 0 0 1 -6.1348,10.46607 l 6.6418,10.78643 z m -6.7728,-14.61331 c 4.5807,0 7.1982,-2.11813 7.1982,-6.49679 0,-4.37865 -2.6175,-6.26537 -7.1982,-6.26537 h -7.0182 v 12.76216 z"
     id="path951"
     style="stroke-width:1.70641" />
  <path
     d="m 2041.8202,263.51368 v 32.25253 h -5.0061 v -32.25253 z"
     id="path953"
     style="stroke-width:1.70641" />
  <path
     d="m 2072.8212,263.51368 v 4.87706 h -9.4064 v 27.37547 h -4.9079 v -27.37547 h -9.5051 v -4.87706 z"
     id="path955"
     style="stroke-width:1.70641" />
  <path
     d="m 2092.2236,285.03315 v 10.67965 h -4.9078 v -10.50164 l -11.059,-21.69748 h 5.0389 l 8.4741,15.69907 8.2942,-15.69907 h 5.0879 z"
     id="path957"
     style="stroke-width:1.70641" />
  <path
     d="m 1609.1942,130.90811 a 36.088974,39.26549 0 0 0 -28.0729,14.5777 36.121692,39.301089 0 0 0 -64.2434,24.7412 v 57.45646 a 8.0652145,8.7751076 0 1 0 16.1138,0 v -57.45646 a 20.024097,21.786601 0 0 1 40.0481,0 v 57.45646 a 8.0653,8.7752005 0 1 0 16.1306,0 v -57.45646 a 20.02398,21.786474 0 0 1 40.0314,0 v 57.45646 a 8.06535,8.775255 0 1 0 16.1307,0 v -57.45646 a 36.187127,39.372286 0 0 0 -36.1383,-39.3189 z"
     id="path959"
     style="stroke-width:1.70641" />
  <path
     d="m 1752.7973,130.90811 a 36.088974,39.26549 0 0 0 -28.0888,14.5777 36.121692,39.301089 0 0 0 -64.2272,24.7412 v 57.45646 a 8.0652145,8.7751076 0 1 0 16.1138,0 v -57.45646 a 20.02415,21.786658 0 0 1 40.0483,0 v 57.45646 a 8.0652145,8.7751076 0 0 0 16.1301,0 v -57.45646 a 20.02398,21.786474 0 0 1 40.0317,0 v 57.45646 a 8.0652557,8.7751523 0 1 0 16.1304,0 v -57.45646 a 36.187127,39.372286 0 0 0 -36.1383,-39.3189 z"
     id="path961"
     style="stroke-width:1.70641" />
  <path
     d="m 1956.3748,130.90811 a 8.0652145,8.7751076 0 0 0 -8.0653,8.77509 v 57.4209 a 20.02398,21.786474 0 0 1 -39.9989,0 v -57.4209 a 8.0652145,8.7751076 0 1 0 -16.1141,0 v 57.4209 a 36.154411,39.336689 0 0 0 72.2926,0 v -57.4209 a 8.0652145,8.7751076 0 0 0 -8.1143,-8.77509 z"
     id="path963"
     style="stroke-width:1.70641" />
  <path
     d="m 1493.6638,130.90811 a 8.0652145,8.7751076 0 0 0 -8.0655,8.77509 v 88.00027 a 8.0653151,8.7752168 0 0 0 16.1306,0 V 139.6832 a 8.0652145,8.7751076 0 0 0 -8.0651,-8.77509 z"
     id="path965"
     style="stroke-width:1.70641" />
  <path
     d="m 2014.9578,179.30472 v 0 l -7.4598,-5.33985 h -0.1157 c -9.1776,-6.44337 -11.1734,-8.73952 -11.4516,-9.1311 l -0.081,-0.10678 a 8.6377957,9.3980866 0 0 1 -2.5685,-6.51461 7.3126793,7.9563347 0 0 1 1.3088,-4.64564 10.093788,10.982234 0 0 1 4.2369,-3.72008 16.359461,17.799408 0 0 1 7.0347,-1.60194 17.111996,18.618178 0 0 1 7.6561,1.86893 28.367308,30.864171 0 0 1 8.4744,8.00975 8.179731,8.8997031 0 0 0 11.3696,1.06795 7.7707443,8.4547182 0 0 0 0.9981,-12.0858 44.170547,48.058399 0 0 0 -13.6601,-12.37059 33.553255,36.506582 0 0 0 -14.8381,-3.66667 32.718924,35.598811 0 0 0 -13.9546,3.27508 26.175139,28.479051 0 0 0 -10.7317,9.70066 22.706933,24.705576 0 0 0 -4.0082,14.23955 24.179283,26.307522 0 0 0 6.3964,17.46122 c 1.6359,2.01133 4.728,5.33982 14.9036,12.45959 l 7.3945,5.3398 v 0 0 c 9.1778,6.4612 11.1734,8.73952 11.4516,9.13112 l 0.096,0.10689 a 8.7032336,9.4692843 0 0 1 2.5519,6.51458 7.3126793,7.9563347 0 0 1 -1.2922,4.66345 10.126507,11.017833 0 0 1 -4.2534,3.70228 16.261304,17.69261 0 0 1 -7.0185,1.61975 17.226512,18.742775 0 0 1 -7.656,-1.77997 28.710855,31.237957 0 0 1 -8.4906,-8.02751 8.179731,8.8997031 0 0 0 -11.3533,-1.06796 7.7543847,8.4369186 0 0 0 -0.998,12.08578 43.499809,47.328622 0 0 0 13.6599,12.4596 33.553255,36.506582 0 0 0 14.838,3.66668 32.898876,35.794606 0 0 0 13.9549,-3.2751 26.175139,28.479051 0 0 0 10.7318,-9.68286 22.903246,24.919169 0 0 0 4.0081,-14.23953 24.212001,26.343123 0 0 0 -6.4131,-17.6392 c -1.456,-2.11815 -4.6132,-5.35765 -14.7236,-12.47741 z"
     id="path967"
     style="stroke-width:1.70641" />
  <path
     d="m 2100.7307,191.76427 c -1.636,-2.01132 -4.7281,-5.23302 -14.8383,-12.35277 v 0 l -7.4433,-5.44663 h -0.1158 c -9.1777,-6.44337 -11.1736,-8.73952 -11.4519,-9.1311 l -0.097,-0.10678 a 8.6705146,9.4336855 0 0 1 -2.5519,-6.51461 7.198163,7.8317388 0 0 1 1.3088,-4.64564 9.8156769,10.679644 0 0 1 4.2368,-3.72008 16.359461,17.799408 0 0 1 7.0346,-1.60194 16.981119,18.475784 0 0 1 7.64,1.86893 28.367308,30.864171 0 0 1 8.4906,8.00975 8.179731,8.8997031 0 0 0 11.3536,1.06795 7.7543847,8.4369186 0 0 0 0.9977,-12.0858 43.712482,47.560013 0 0 0 -13.7583,-12.53079 33.536896,36.488783 0 0 0 -14.7236,-3.66667 32.931594,35.830205 0 0 0 -13.971,3.27508 26.175139,28.479051 0 0 0 -10.7319,9.70068 22.903246,24.919169 0 0 0 -4.0081,14.23955 24.179283,26.307522 0 0 0 6.3802,17.6214 c 1.6359,2.01133 4.728,5.33982 14.9036,12.45959 l 7.3945,5.3398 v 0 0 c 9.1777,6.4612 11.1734,8.73952 11.4515,9.13112 v 0.10689 a 8.6705146,9.4336855 0 0 1 2.5686,6.51458 7.3290388,7.9741339 0 0 1 -1.3088,4.66345 10.077428,10.964435 0 0 1 -4.2371,3.70228 16.359461,17.799408 0 0 1 -7.0345,1.61975 17.275591,18.796173 0 0 1 -7.6562,-1.77997 28.514541,31.024364 0 0 1 -8.4744,-8.02751 8.179731,8.8997031 0 0 0 -11.3695,-1.06796 7.7707443,8.4547182 0 0 0 -0.9982,12.08578 43.859717,47.720209 0 0 0 13.66,12.4596 33.553255,36.506582 0 0 0 14.8383,3.66668 32.718924,35.598811 0 0 0 13.9545,-3.2751 25.995184,28.283258 0 0 0 10.7318,-9.68286 22.723293,24.723374 0 0 0 4.0081,-14.23953 24.212001,26.343123 0 0 0 -6.1838,-17.65702 z"
     id="path969"
     style="stroke-width:1.70641" />
  <path
     d="m 1868.3119,130.90811 a 8.0652145,8.7751076 0 0 0 -8.0655,8.77509 v 4.80586 c -4.9076,-8.02754 -11.4515,-13.58095 -20.0238,-13.58095 a 36.187127,39.372286 0 0 0 -36.1383,39.3189 v 26.87709 a 36.187127,39.372286 0 0 0 36.1383,39.3189 c 8.6215,0 15.2469,-5.66022 20.0238,-13.83014 v 5.05502 a 8.06525,8.7751461 0 0 0 16.1305,0 V 139.6832 a 8.0652145,8.7751076 0 0 0 -8.065,-8.77509 z m -8.0655,39.3189 v 26.96608 a 20.024039,21.786536 0 1 1 -40.0479,0 v 0 0 -26.96608 0 -0.3738 a 20.024039,21.786536 0 0 1 40.0479,0 z"
     id="path971"
     style="stroke-width:1.70641" />
  <path
     d="m 1416.9941,182.34839 c 1.178,-1.56633 2.3068,-3.1861 3.4192,-4.85923 2.8629,-0.30259 5.8077,-0.60519 8.7361,-0.97897 l 2.9609,-0.39157 -0.1635,-7.11979 -2.9611,-0.21355 -3.4357,-0.23142 a 46.78806,50.906304 0 0 0 4.4006,-13.45636 42.305568,46.029266 0 0 0 0.6221,-5.16184 52.841061,57.492082 0 1 0 -48.8494,-101.670194 223.04491,242.6771 0 0 0 -20.8583,-23.815605 28.874449,31.415953 0 0 0 -37.627,0 223.04491,242.6771 0 0 0 -20.8909,23.815605 52.841061,57.492082 0 1 0 -48.8495,101.670194 38.821003,42.237991 0 0 0 0.6216,5.16184 46.231836,50.301124 0 0 0 4.4663,13.52755 l -3.4355,0.23138 -2.9774,0.21362 -0.1482,7.11975 2.9612,0.3916 c 2.9119,0.35598 5.8566,0.67637 8.7358,0.97896 1.1123,1.67314 2.2412,3.2929 3.4192,4.85924 -19.4025,9.34467 -33.6188,22.10684 -40.3426,36.54218 a 32.506249,35.367421 0 0 0 -0.3597,31.00655 l 14.7235,34.74443 a 27.811085,30.25899 0 0 0 22.2652,17.40784 l 27.6964,3.11489 a 18.666146,20.309121 0 0 1 7.4275,2.63431 l 29.6595,18.61818 a 27.811085,30.25899 0 0 0 27.7129,0 l 29.6596,-18.61818 a 18.666146,20.309121 0 0 1 7.4275,-2.63431 l 27.6801,-3.11489 a 27.811085,30.25899 0 0 0 22.347,-17.40784 l 14.7235,-34.74443 a 32.555329,35.420818 0 0 0 -0.3599,-31.00655 c -6.8057,-14.43534 -21.0057,-27.19751 -40.408,-36.61339 z"
     id="path973"
     style="stroke-width:1.70641" />
  <path
     class="cls-1"
     d="m 1453.6067,91.340033 a 44.170547,48.058399 0 0 0 -5.0387,-16.962838 c -0.6872,-1.370553 -1.4398,-2.723308 -2.2414,-4.004866 a 43.925154,47.791406 0 0 0 -3.9754,-5.500018 45.037596,49.001766 0 0 0 -6.331,-6.283188 c -1.1614,-0.925568 -2.3395,-1.779943 -3.5665,-2.616515 a 44.546813,48.467783 0 0 0 -7.8032,-4.093862 c -1.3743,-0.551782 -2.7651,-1.014567 -4.1882,-1.423954 a 44.841283,48.788173 0 0 0 -11.1571,-1.530749 q -1.4723,0 -2.9446,0.106783 a 43.074462,46.865839 0 0 0 -5.8077,0.836575 c -0.949,0.195793 -1.8979,0.444983 -2.8467,0.711974 a 44.448655,48.360988 0 0 0 -5.4967,2.046932 c -0.8998,0.391588 -1.783,0.836573 -2.6502,1.299358 -0.8672,0.462783 -1.7341,0.978964 -2.5847,1.512951 a 217.76078,236.92789 0 0 1 13.9379,22.035663 222.71771,242.32111 0 0 1 11.6646,23.744411 c 0,0 2.683,3.55989 4.9077,6.74599 l 0.7035,0.97897 c 0.4419,0.65856 0.8997,1.31714 1.3251,1.99353 0.6544,1.03238 1.2926,2.08253 1.9143,3.1683 a 63.278396,68.848103 0 0 1 4.3512,9.09546 c 0.1484,0.356 0.3112,0.712 0.4421,1.08577 0.1293,0.37379 0.245,0.65859 0.3598,0.99678 a 58.076089,63.187894 0 0 1 1.9958,6.2476 67.842686,73.814138 0 0 1 1.636,7.54696 c 0,0.42717 0.1294,0.87214 0.1798,1.31712 0.9,-0.53396 1.7834,-1.08575 2.634,-1.65532 a 45.806491,49.83834 0 0 0 4.9079,-3.84467 44.628612,48.556781 0 0 0 10.5028,-13.83014 c 0.458,-0.92557 0.8996,-1.77993 1.3085,-2.79451 0.4093,-1.01458 0.7201,-1.77994 1.0471,-2.59872 a 44.579534,48.503384 0 0 0 3.272,-18.15541 43.532527,47.36422 0 0 0 -0.458,-6.176371 z"
     id="path975"
     style="fill:#7b69a8;stroke-width:1.70641" />
  <path
     class="cls-1"
     d="m 1399.8985,185.76587 c 1.7176,-2.20712 3.4191,-4.39643 5.0714,-6.58576 l -5.366,0.44498 c -1.7995,0.14239 -3.6643,0.37377 -5.4477,0.56957 l -1.8155,0.21363 c -0.8021,0 -1.6363,0.14236 -2.3887,0.19575 -1.4889,1.88675 -3.0266,3.77351 -4.5969,5.64242 l -2.4377,2.90131 -0.8343,-0.2314 v 0 c -2.3722,-0.67637 -4.7934,-1.24596 -7.2472,-1.77993 a 46.0846,50.140928 0 0 0 -7.4437,-0.71199 v 0 0 l -0.1799,0.5874 a 47.622392,51.814074 0 0 0 6.4291,4.36084 c 2.1924,1.26376 4.4335,2.38512 6.7076,3.41747 a 49.945435,54.341586 0 0 0 6.9855,2.52753 c 2.3884,0.65856 4.7769,1.28156 7.149,2.01133 l 7.0999,2.15372 7.133,2.08255 c 4.7603,1.29934 9.521,2.7055 14.3143,3.93366 v 0 0 l 0.18,-0.58738 c -4.4988,-2.18933 -9.0631,-4.20067 -13.5782,-6.30096 l -6.8384,-3.06153 -6.8545,-2.95471 v 0 l -2.0287,-0.90775 2.176,-2.86572 z"
     id="path977"
     style="fill:#7b69a8;stroke-width:1.70641" />
  <path
     class="cls-1"
     d="m 1295.6396,82.956515 a 68.268033,74.276923 0 0 1 12.4169,-5.001639 116.38121,126.62498 0 0 0 -20.5311,16.962833 82.991547,90.296389 0 0 0 -15.378,21.181291 64.325404,69.987266 0 0 0 -4.9077,12.01461 60.251898,65.555214 0 0 0 -2.5194,12.61978 33.9786,36.969368 0 0 0 4.5807,23.44181 c 0.6707,1.29934 1.3904,2.5809 2.1592,3.86248 0.7691,1.28152 1.4398,2.31391 2.2087,3.55986 l -3.5338,0.14238 -5.7747,0.3204 -2.7483,0.12464 c -2.0777,0.10679 -4.1555,0.2314 -6.2329,0.39161 v 0.62295 0 0 c 4.9078,0.623 9.8157,1.06799 14.7235,1.61976 l 7.3452,0.71196 7.3455,0.60521 c 2.454,0.19577 4.9077,0.49836 7.3617,0.78316 a 52.562949,57.189492 0 0 0 7.3618,0.2136 c 2.4539,-0.12465 4.9079,-0.35599 7.378,-0.72977 a 46.166399,50.229925 0 0 0 7.3946,-1.69096 v -0.62298 0 0 0 a 48.407647,52.668444 0 0 0 -7.3289,-2.08252 c -2.4378,-0.4984 -4.9079,-0.85438 -7.3455,-1.10357 a 52.677466,57.314088 0 0 0 -7.3618,-0.16017 l -5.0059,0.3026 c -0.7528,-1.15695 -1.4562,-2.31392 -2.1433,-3.45309 -5.8566,-9.87867 -9.0468,-19.57934 -7.0182,-28.58584 a 61.871482,67.317356 0 0 1 14.5765,-29.38683 67.073792,72.977565 0 0 1 98.8109,0 61.67517,67.103762 0 0 1 14.5601,29.38683 c 2.0449,9.0065 -1.1454,18.70717 -7.0019,28.58584 -0.6871,1.13917 -1.3906,2.29614 -2.143,3.45309 l -4.908,-0.3026 c -1.2596,0 -2.5031,0 -3.7627,0 -1.2598,0 -2.4048,0.0891 -3.5991,0.2136 -2.4539,0.24918 -4.9078,0.60517 -7.3454,1.10356 l -1.6357,0.40938 c -0.2783,0 -0.5564,0.16019 -0.8345,0.23139 -1.047,0.267 -2.1105,0.58739 -3.1573,0.92559 -0.3272,0.10678 -0.638,0.16016 -0.9653,0.28478 l -0.7033,0.23138 v 0 h -0.1006 v 0.623 a 45.806491,49.83834 0 0 0 7.3946,1.69093 c 2.4702,0.3738 4.9078,0.60518 7.3778,0.7298 0.5888,0 1.178,0 1.7668,0 0.5892,0 1.2761,0 1.9142,0 v 0 c 0.6545,0 1.3089,0 1.9633,-0.14239 0.6541,-0.14239 1.096,0 1.6359,0 2.4537,-0.28478 4.9077,-0.58736 7.3454,-0.78317 l 7.3618,-0.60519 7.3452,-0.71197 c 4.9077,-0.55175 9.8155,-0.99676 14.7234,-1.61975 v 0 0 -0.623 c -2.0776,-0.16015 -4.1552,-0.28476 -6.2329,-0.39157 l -2.7483,-0.16019 -5.7748,-0.32039 -3.5337,-0.14236 q 1.1452,-1.77996 2.2086,-3.5599 c 0.7688,-1.28154 1.4886,-2.56311 2.1592,-3.86248 a 33.9786,36.969368 0 0 0 4.6626,-23.44178 60.251898,65.555214 0 0 0 -2.6173,-12.61981 64.325404,69.987266 0 0 0 -4.9079,-12.0146 82.647999,89.922599 0 0 0 -15.3942,-21.181297 116.85563,127.14116 0 0 0 -20.5149,-16.962832 68.268033,74.276923 0 0 1 12.4169,5.001638 87.981183,95.725208 0 0 1 8.8011,5.090644 212.11677,230.78711 0 0 0 -41.8801,-56.869116 18.911538,20.576113 0 0 0 -9.7175,-4.930434 l -3.5663,33.462887 -3.5827,-33.462887 a 19.042415,20.718508 0 0 0 -9.7175,4.930434 212.05133,230.7159 0 0 0 -41.8148,56.958104 87.981183,95.725208 0 0 1 8.6867,-5.268619 z"
     id="path979"
     style="fill:#7b69a8;stroke-width:1.70641" />
  <path
     class="cls-1"
     d="m 1288.2942,194.62999 -6.8544,2.9547 -6.9037,3.0793 c -4.5319,2.10032 -9.0796,4.11168 -13.5784,6.30099 l 0.1799,0.58739 v 0 0 c 4.7932,-1.22818 9.5376,-2.63432 14.3143,-3.93369 l 7.2636,-2.04693 7.1001,-2.15373 c 2.3558,-0.72977 4.7607,-1.35274 7.1491,-2.01133 a 49.945435,54.341586 0 0 0 7.0182,-2.52751 c 1.0307,-0.46278 2.0289,-1.05017 3.0594,-1.56633 l 0.9651,-0.48061 v 0 l 0.458,-0.26697 c 0.72,-0.37379 1.456,-0.69419 2.1595,-1.08577 a 47.622392,51.814074 0 0 0 6.4456,-4.37865 v 0 0 l -0.2291,-0.6764 c -0.9325,0 -1.8321,0 -2.7319,0.17801 -0.3272,0 -0.638,0 -0.9652,0.10689 h -0.4418 c -1.0796,0.10678 -2.1593,0.21361 -3.2717,0.3916 h -0.1638 c -2.454,0.44498 -4.9075,1.01456 -7.2471,1.77994 v 0 l -0.8345,0.24917 c -0.8341,-0.96116 -1.6361,-1.94012 -2.4703,-2.9013 -1.6358,-1.88672 -3.0919,-3.77346 -4.5805,-5.66022 -0.7854,0 -1.636,-0.10678 -2.3884,-0.19579 l -1.8159,-0.21357 c -1.7999,-0.19581 -3.6485,-0.4272 -5.4477,-0.5696 l -2.7814,-0.23138 -2.5845,-0.21359 c 0.8177,1.10355 1.6358,2.18932 2.5026,3.2929 l 2.5687,3.29288 c 1.2926,1.77994 2.6011,3.38189 3.8938,5.09063 0.7359,0.94336 1.4557,1.90453 2.1919,2.8657 l -2.0285,0.90777 z"
     id="path981"
     style="fill:#7b69a8;stroke-width:1.70641" />
  <path
     class="cls-1"
     d="m 1451.1201,228.94726 a 21.267299,23.139229 0 0 0 -1.7997,-5.33984 c -0.5234,-1.10357 -1.1125,-2.20714 -1.7342,-3.29288 -0.6215,-1.08577 -1.3087,-2.17154 -2.0285,-3.23949 -0.7197,-1.06798 -1.5213,-2.13591 -2.3557,-3.1861 a 61.67517,67.103762 0 0 0 -8.3595,-8.61494 81.79731,88.997031 0 0 0 -7.9836,-6.08737 c -1.2923,-0.87218 -2.6503,-1.77995 -4.0409,-2.5453 q -4.0243,-2.45636 -8.523,-4.68127 c -1.1289,-0.55175 -2.2906,-1.08578 -3.4684,-1.61975 -0.9162,1.10358 -1.8485,2.22495 -2.781,3.31068 l -1.6359,1.77994 2.143,0.94338 2.1266,0.96118 4.7607,2.18933 c 2.9283,1.33495 5.9548,2.7233 8.9322,4.14723 l 2.7156,1.31718 -2.0449,6.7638 -1.9302,-0.49839 -0.9653,-0.24921 c -1.6361,-0.40939 -3.1575,-0.83655 -4.7279,-1.28158 l -4.6627,-1.29932 -4.9077,-1.38837 -7.1818,-2.08255 -1.7994,-0.55177 c -2.7484,3.29291 -5.4315,6.5858 -7.9999,9.96767 a 132.31534,143.9616 0 0 0 -14.3144,22.69425 116.92107,127.21236 0 0 0 -5.5458,12.45958 c -1.6361,4.32527 -3.141,8.7751 -4.4825,13.31397 a 85.919891,93.482483 0 0 1 4.9078,-28.35446 105.38765,114.66377 0 0 1 12.2368,-26.05832 c 1.5053,-2.45634 3.0919,-4.85925 4.7115,-7.11978 h -0.1158 l -0.8836,-0.24919 -0.8831,-0.2314 c -1.3088,-0.37377 -2.6013,-0.78316 -3.8447,-1.22814 -1.2432,-0.44499 -2.4538,-0.94339 -3.6155,-1.47737 -1.1614,-0.53397 -1.8813,-0.87218 -2.7972,-1.33495 -2.2741,2.52753 -4.5644,5.03724 -6.8219,7.49359 l -3.2721,3.55982 c -3.2718,3.5599 -6.2492,6.88839 -9.0304,10.1279 a 20.64564,22.46285 0 0 1 -4.9078,4.27184 20.465688,22.267056 0 0 1 -20.0894,0 21.496332,23.388421 0 0 1 -3.4357,-2.65213 c -0.5233,-0.49835 -1.0468,-1.05013 -1.5376,-1.61971 -2.7646,-3.23951 -5.8076,-6.62138 -9.014,-10.1279 l -3.2718,-3.55982 -6.822,-7.49359 c -0.9326,0.44499 -1.8651,0.90777 -2.814,1.33495 a 51.33599,55.854536 0 0 1 -7.4271,2.68771 l -1.7668,0.49839 h -0.1294 c 1.6361,2.33174 3.2719,4.71685 4.7114,7.11978 a 104.70055,113.9162 0 0 1 12.2207,26.05832 85.445467,92.966297 0 0 1 4.9078,28.35446 c -1.3416,-4.53887 -2.8304,-8.89969 -4.4825,-13.31397 a 120.71646,131.34181 0 0 0 -5.5459,-12.45958 133.42777,145.17195 0 0 0 -14.3146,-22.69425 c -2.5685,-3.38187 -5.2515,-6.67476 -7.9998,-9.96767 l -1.7504,0.53399 -7.1654,2.10033 -5.0225,1.38837 c -3.0591,0.87215 -6.233,1.77993 -9.3904,2.5809 l -2.9118,0.7476 -2.0777,-6.74599 2.7156,-1.31717 c 2.9775,-1.42398 6.0039,-2.81232 8.9325,-4.14725 l 4.7114,-2.17155 4.3188,-1.92232 v 0 l -1.6358,-1.77994 -2.7647,-3.31069 q -3.5339,1.60194 -6.8058,3.32849 c -1.4885,0.78316 -2.9119,1.60193 -4.3023,2.43852 -1.636,0.99679 -3.3537,2.02913 -4.9078,3.0793 -1.9143,1.29934 -3.7463,2.6343 -5.4806,4.00485 -1.734,1.37055 -3.3536,2.77672 -4.9078,4.21846 a 49.912717,54.305989 0 0 0 -12.1061,16.19744 18.63343,20.273524 0 0 0 -1.0467,2.63436 22.379743,24.349586 0 0 0 -0.7691,2.74108 26.175139,28.479051 0 0 0 -0.5888,4.27188 23.868455,25.969334 0 0 0 0,2.8835 24.997257,27.197493 0 0 0 0.6543,5.07281 25.324448,27.553481 0 0 0 1.6359,4.89485 l 14.7234,34.72666 a 17.488265,19.027566 0 0 0 1.6686,3.47087 18.911538,20.576113 0 0 0 2.4049,2.9369 16.473979,17.924002 0 0 0 1.8652,1.65535 18.551631,20.184527 0 0 0 8.9649,3.72008 l 27.6965,3.13268 a 28.449103,30.953167 0 0 1 2.8793,0.48058 27.811085,30.25899 0 0 1 8.1798,3.39968 l 29.5943,18.49358 a 18.53527,20.166727 0 0 0 2.5029,1.31717 19.631352,21.359288 0 0 0 2.6339,0.88996 18.976975,20.647312 0 0 0 5.4313,0.48061 23.573983,25.648945 0 0 0 2.4049,-0.33819 18.469833,20.09553 0 0 0 3.2717,-1.03238 l 0.6707,-0.30258 a 17.995406,19.579345 0 0 0 1.7998,-1.01459 l 29.6596,-18.61818 c 0.8507,-0.53397 1.7179,-1.01454 2.6012,-1.45955 l 1.3414,-0.60517 a 27.811085,30.25899 0 0 1 7.051,-1.77994 l 27.6967,-3.13271 a 18.649785,20.291324 0 0 0 5.8403,-1.77991 19.206009,20.896502 0 0 0 3.1244,-1.97575 18.747944,20.398119 0 0 0 6.1187,-8.02753 l 10.0446,-23.7978 4.6135,-10.92883 a 23.344953,25.399754 0 0 0 1.2269,-3.55987 24.375597,26.521118 0 0 0 0.7525,-3.66669 c 0.1158,-0.90779 0.2125,-1.77996 0.2453,-2.72332 0,-0.48059 0,-0.96115 0,-1.44177 0,-0.48056 0,-0.96115 0,-1.44173 a 22.510618,24.491984 0 0 0 -0.6215,-4.25404 z m -122.6961,29.547 0.6871,7.67152 0.5726,7.68937 c 0.1799,2.54532 0.4907,5.10841 0.7688,7.67151 a 36.268923,39.461283 0 0 1 0.1006,7.67155 59.008579,64.202459 0 0 1 -0.9978,7.70718 36.939663,40.191058 0 0 1 -2.1597,7.70711 h -0.736 a 35.696344,38.838304 0 0 1 -2.3065,-7.65373 58.63231,63.79307 0 0 1 -1.1618,-7.67152 37.773996,41.098829 0 0 1 0,-7.68936 c 0.2289,-2.56312 0.5073,-5.12624 0.6377,-7.68935 l 0.4257,-7.68933 0.5397,-7.67154 0.1964,-2.5453 c -2.1105,-1.0324 -3.6645,-4.16512 -3.6645,-7.90298 0,-4.55664 2.3068,-8.2411 5.1533,-8.2411 2.8465,0 5.1532,3.68446 5.1532,8.2411 a 7.9834172,8.6861105 0 0 1 -3.4027,7.74275 z m 31.0829,0 0.6707,7.67152 0.5726,7.68937 c 0.18,2.54532 0.491,5.10841 0.769,7.67151 a 35.025607,38.108528 0 0 1 0.1005,7.67155 55.88392,60.802772 0 0 1 -0.9979,7.70718 36.939663,40.191058 0 0 1 -2.1597,7.70711 h -0.6541 a 36.808788,40.048666 0 0 1 -2.3067,-7.65373 55.491293,60.375587 0 0 1 -1.1451,-7.67152 36.43252,39.639278 0 0 1 0,-7.68936 c 0.2125,-2.56312 0.4907,-5.12624 0.6216,-7.68935 l 0.4254,-7.68933 0.5398,-7.67154 0.1962,-2.5453 c -2.1105,-1.0324 -3.648,-4.16512 -3.648,-7.90298 0,-4.55664 2.3066,-8.2411 5.1368,-8.2411 2.8301,0 5.1532,3.68446 5.1532,8.2411 a 7.9834172,8.6861105 0 0 1 -3.4517,7.74275 c 0.081,0.90777 0.1633,1.77993 0.2781,2.65212 z"
     id="path983"
     style="fill:#7b69a8;stroke-width:1.70641" />
  <path
     class="cls-1"
     d="m 1239.9849,127.95339 c 0.6216,0.83659 1.2761,1.65537 1.9466,2.45633 a 44.268703,48.165194 0 0 0 9.2105,8.33013 c 0.8506,0.56957 1.7341,1.12137 2.6338,1.65532 0,-0.44497 0.096,-0.88994 0.18,-1.31712 a 67.842686,73.814138 0 0 1 1.6359,-7.54696 c 0.3271,-1.24594 0.6872,-2.45633 1.0799,-3.66669 0.3923,-1.21035 0.8177,-2.4029 1.2595,-3.55988 0.4416,-1.15695 0.9326,-2.34951 1.4396,-3.55987 a 65.519642,71.286622 0 0 1 3.3701,-6.67477 c 0.6051,-1.08576 1.2596,-2.13593 1.9139,-3.16831 0.4255,-0.67637 0.8837,-1.33494 1.3251,-1.99353 l 0.6873,-0.97896 a 71.818036,78.139396 0 0 1 5.2674,-6.60358 l -0.3105,-0.14239 q 2.6175,-6.140787 5.5457,-12.085797 a 218.84052,238.10267 0 0 1 19.9914,-33.658667 c -0.8508,-0.533982 -1.636,-1.032365 -2.5848,-1.512949 -0.949,-0.480586 -2.2411,-1.121364 -3.4027,-1.619746 a 47.753268,51.956467 0 0 0 -4.7606,-1.779941 45.004879,48.966168 0 0 0 -11.5826,-1.655342 c -0.769,0 -1.5378,0 -2.3068,0 a 41.078608,44.694308 0 0 0 -4.4986,0.498379 42.534601,46.278458 0 0 0 -6.5439,1.619745 c -0.7035,0.231395 -1.3907,0.498386 -2.0776,0.765376 a 43.303494,47.115028 0 0 0 -4.008,1.77994 c -1.0633,0.551783 -2.0941,1.174763 -3.1084,1.779942 l -1.3089,1.174762 c -0.7196,0.498384 -1.4395,1.014563 -2.1266,1.566346 -0.6869,0.551782 -1.3905,1.103564 -2.0612,1.690944 -0.9653,0.836572 -1.8813,1.77994 -2.7811,2.669911 a 44.66133,48.592381 0 0 0 -7.4274,60.233207 45.593819,49.606946 0 0 0 3.403,5.3042 z"
     id="path985"
     style="fill:#7b69a8;stroke-width:1.70641" />
  <path
     class="cls-1"
     d="m 1326.8864,191.97787 a 10.699088,11.640811 0 0 0 1.5212,1.88674 20.334811,22.124664 0 0 0 13.5948,4.91263 20.334811,22.124664 0 0 0 13.5946,-4.91263 7.2472414,7.885137 0 0 0 0,-12.45959 14.87075,16.179661 0 0 0 -1.9957,-1.65534 18.698865,20.344721 0 0 0 -3.8119,-1.88672 25.209931,27.428885 0 0 0 -15.6394,0 18.698865,20.344721 0 0 0 -3.7795,1.90454 11.697016,12.726576 0 0 0 -3.517,3.55986 7.8361823,8.5259158 0 0 0 -0.9488,2.10032 6.6419413,7.226559 0 0 0 -0.3434,2.24273 6.805536,7.4045532 0 0 0 0.4088,2.31394 7.7380253,8.4191192 0 0 0 0.9163,1.99352 z"
     id="path987"
     style="fill:#7b69a8;stroke-width:1.70641" />
  <path
     class="cls-2"
     d="m 1277.3989,175.54901 7.3455,0.60518 c 2.4537,0.1958 4.9077,0.49839 7.3617,0.78319 a 52.562949,57.189492 0 0 0 7.3617,0.21359 c 2.4539,-0.12465 4.9078,-0.35598 7.3781,-0.72975 a 46.166399,50.229925 0 0 0 7.3945,-1.69097 v -0.623 a 48.211335,52.45485 0 0 0 -7.3126,-2.08249 c -2.4541,-0.49842 -4.9079,-0.85438 -7.3455,-1.10359 a 52.677466,57.314088 0 0 0 -7.3618,-0.16016 c -2.4703,0.16016 -4.9078,0.33819 -7.3781,0.40939 l -7.378,0.23139 -7.3617,0.32039 c -4.9078,0.3026 -9.8157,0.49838 -14.7235,0.87216 v 0.62299 c 4.9078,0.62299 9.8157,1.06797 14.7235,1.61976 z"
     id="path989"
     style="fill:#ffffff;stroke-width:1.70641" />
  <path
     class="cls-2"
     d="m 1316.8089,186.51345 a 47.311563,51.475884 0 0 0 -7.5252,0.76539 c -2.4541,0.44497 -4.9081,1.01456 -7.2475,1.77994 a 52.988296,57.652279 0 0 0 -6.9691,2.58089 c -2.2576,1.05017 -4.5151,2.15375 -6.8056,3.13272 l -6.8381,2.9547 -6.8873,2.9369 c -4.5319,2.10032 -9.0796,4.12944 -13.5784,6.30099 l 0.1799,0.58739 c 4.7932,-1.22818 9.5376,-2.63432 14.3143,-3.93369 l 7.2636,-2.04693 7.1001,-2.15373 c 2.3558,-0.72977 4.7607,-1.35274 7.1491,-2.01133 a 49.945435,54.341586 0 0 0 6.9856,-2.52751 c 2.2739,-1.03237 4.5151,-2.15375 6.7074,-3.41749 a 47.622392,51.814074 0 0 0 6.4128,-4.36084 z"
     id="path991"
     style="fill:#ffffff;stroke-width:1.70641" />
  <path
     class="cls-2"
     d="m 1377.2243,176.42122 c 2.4703,0.37377 4.9076,0.60515 7.3782,0.72975 a 52.710186,57.349688 0 0 0 7.3617,-0.21359 c 2.4541,-0.2848 4.9077,-0.58739 7.3453,-0.78319 l 7.3617,-0.60518 7.3454,-0.71198 c 4.908,-0.55177 9.8158,-0.99674 14.7236,-1.61973 v -0.62298 c -4.9078,-0.3738 -9.8156,-0.56956 -14.7236,-0.87218 l -7.3782,-0.32038 -7.3616,-0.23138 c -2.4538,0 -4.9078,-0.24921 -7.3783,-0.40941 a 52.677466,57.314088 0 0 0 -7.3616,0.16017 c -2.4538,0.2492 -4.9079,0.60518 -7.3454,1.10356 a 48.211335,52.45485 0 0 0 -7.3125,2.08253 v 0.62298 a 45.806491,49.83834 0 0 0 7.3453,1.69095 z"
     id="path993"
     style="fill:#ffffff;stroke-width:1.70641" />
  <path
     class="cls-2"
     d="m 1402.6469,197.65588 -6.8546,-2.9547 c -2.2742,-0.97897 -4.5315,-2.08252 -6.8055,-3.13268 a 51.957649,56.530915 0 0 0 -6.9529,-2.58092 c -2.3883,-0.69418 -4.7932,-1.26377 -7.2475,-1.77995 a 47.704189,51.903069 0 0 0 -7.5414,-0.76537 l -0.1799,0.58737 a 46.624464,50.728309 0 0 0 6.4292,4.36087 c 2.1923,1.26378 4.4335,2.38512 6.7074,3.41748 a 49.258338,53.594012 0 0 0 6.9854,2.52752 c 2.3886,0.65857 4.7771,1.28154 7.1493,2.01133 l 7.0999,2.15373 7.1326,2.08252 c 4.7606,1.29937 9.5213,2.70552 14.3148,3.93367 l 0.1798,-0.58738 c -4.4991,-2.17152 -9.0633,-4.20065 -13.5948,-6.30097 z"
     id="path995"
     style="fill:#ffffff;stroke-width:1.70641" />
  <path
     class="cls-3"
     d="m 1332.7755,186.08627 a 6.2002359,6.7459749 0 0 0 0.9326,1.15698 13.921901,15.147294 0 0 0 16.6539,0 4.4497735,4.8414387 0 0 0 0,-7.63595 7.9834172,8.6861105 0 0 0 -1.2269,-0.99678 10.699088,11.640811 0 0 0 -2.3068,-1.08576 15.328813,16.678044 0 0 0 -9.5866,0 10.33918,11.249225 0 0 0 -2.3066,1.17475 6.9036927,7.5113495 0 0 0 -2.1596,2.17154 4.0898654,4.4498517 0 0 0 -0.5888,1.26375 4.1880221,4.556648 0 0 0 0,2.75891 4.4170547,4.8058399 0 0 0 0.5888,1.19256 z"
     id="path997"
     style="fill:#b7afd7;stroke-width:1.70641" />
  <path
     class="cls-3"
     d="m 1451.7416,236.10261 c 0,-0.48057 0,-0.96118 0,-1.44176 0,-0.48059 0,-0.96117 0,-1.44175 a 22.510618,24.491984 0 0 0 -0.5889,-4.27184 22.052554,23.993603 0 0 0 -1.7996,-5.33984 c -0.5235,-1.10357 -1.1124,-2.20714 -1.7339,-3.29288 -0.6221,-1.08577 -1.309,-2.17154 -2.0452,-3.23949 -0.736,-1.06798 -1.5052,-2.13591 -2.3393,-3.1861 a 62.656736,68.171726 0 0 0 -8.3596,-8.61494 81.79731,88.997031 0 0 0 -7.9833,-6.08737 c -1.2927,-0.87218 -2.6505,-1.77995 -4.041,-2.5453 -2.6991,-1.63757 -5.5295,-3.20391 -8.5234,-4.68127 l -3.4681,-1.61975 c -0.9325,1.10358 -1.8486,2.22495 -2.781,3.31068 l -1.636,1.77994 v 0 l 2.1431,0.94338 2.1267,0.96118 4.7607,2.18933 c 2.9284,1.33495 5.9549,2.7233 8.916,4.14723 l 2.7317,1.31718 -2.0776,6.7638 -1.9302,-0.49839 -0.9653,-0.24921 c -1.6361,-0.40939 -3.1575,-0.83655 -4.7442,-1.28158 l -4.6626,-1.29932 -4.9077,-1.38837 -7.1656,-2.08255 -1.7994,-0.55177 v 0 l -1.8486,-0.55178 -5.7585,8.47253 c 0,0 44.3994,7.31557 59.1067,31.38034 a 25.438962,27.678076 0 0 0 1.1615,-4.87702 q 0.1482,-1.35278 0.2126,-2.72331 z"
     id="path999"
     style="fill:#b7afd7;stroke-width:1.70641" />
  <path
     class="cls-3"
     d="m 1291.7951,212.51837 c -2.1266,-2.72329 -4.2697,-5.4466 -6.5436,-8.11652 l -1.7505,0.53399 -7.1655,2.10033 -5.0224,1.38837 c -3.0757,0.87215 -6.2329,1.77993 -9.3904,2.5809 l -2.9118,0.7476 -2.0775,-6.74599 2.7154,-1.31717 c 2.9774,-1.42398 5.9876,-2.81232 8.9159,-4.14725 l 4.7279,-2.17155 4.3025,-1.92232 v 0 l -1.6357,-1.77994 -2.7813,-3.31069 c -2.3396,1.06796 -4.6134,2.17155 -6.7892,3.32849 -1.4889,0.78316 -2.9121,1.60193 -4.3025,2.43852 -1.6359,0.99679 -3.3537,2.02913 -4.9077,3.0793 -1.9141,1.29934 -3.7301,2.6343 -5.4642,4.00485 -1.7343,1.37055 -3.3536,2.77672 -4.9078,4.21846 a 50.239906,54.661977 0 0 0 -12.1225,16.19744 24.539191,26.699111 0 0 0 -1.0469,2.63436 23.361312,25.417552 0 0 0 -1.3415,7.01296 23.868455,25.969334 0 0 0 0,2.8835 24.293799,26.432117 0 0 0 1.4397,7.52915 c 13.5455,-21.94668 51.4503,-29.9208 58.0596,-31.16679 z"
     id="path1001"
     style="fill:#b7afd7;stroke-width:1.70641" />
  <path
     class="cls-3"
     d="m 1338.4849,26.336597 a 18.976975,20.647312 0 0 0 -9.7174,4.930434 212.90202,231.64148 0 0 0 -24.539,28.941838 82.255373,89.495417 0 0 1 36.6449,-11.640812 z"
     id="path1003"
     style="fill:#b7afd7;stroke-width:1.70641" />
  <path
     class="cls-3"
     d="m 1355.3518,31.267031 a 18.976975,20.647312 0 0 0 -9.7176,-4.930434 l -2.3886,22.178061 a 65.928629,71.731609 0 0 1 36.9398,12.139194 212.88565,231.62368 0 0 0 -24.8336,-29.386821 z"
     id="path1005"
     style="fill:#b7afd7;stroke-width:1.70641" />
  <path
     class="cls-3"
     d="m 1446.3102,70.372329 a 45.806491,49.83834 0 0 0 -3.9752,-5.500018 45.168475,49.144161 0 0 0 -6.3475,-6.283188 c -1.145,-0.925568 -2.3392,-1.779943 -3.5663,-2.616515 a 44.399578,48.30759 0 0 0 -7.787,-4.093862 c -1.3744,-0.551782 -2.7651,-1.014567 -4.2045,-1.423954 a 44.710407,48.645779 0 0 0 -11.1407,-1.530749 c -0.9818,0 -1.9796,0 -2.9449,0.106783 a 42.730913,46.492048 0 0 0 -5.8076,0.836575 c -0.9651,0.195793 -1.8978,0.444983 -2.8466,0.711974 a 43.548886,47.382019 0 0 0 -5.4968,2.046932 c -0.8998,0.391588 -1.7829,0.836573 -2.6667,1.299358 -0.8833,0.462783 -1.7339,0.978964 -2.5684,1.512951 v 0 c 2.8629,4.022663 5.5624,8.169926 8.18,12.459582 l 0.7686,1.156962 c 0,0 41.6678,-12.673177 56.9477,18.351204 a 44.775845,48.716974 0 0 0 -4.352,-13.029175 c -0.5559,-1.370557 -1.3741,-2.723312 -2.1921,-4.00487 z"
     id="path1007"
     style="fill:#b7afd7;stroke-width:1.70641" />
  <path
     class="cls-3"
     d="m 1287.967,69.375562 9.1941,-13.936934 c -0.8508,-0.533986 -1.636,-1.032366 -2.5848,-1.51295 -0.949,-0.480584 -2.2576,-1.121366 -3.4027,-1.619747 -1.3906,-0.587381 -2.7975,-1.085763 -4.2208,-1.530748 l -1.374,-0.37379 c -1.2436,-0.338188 -2.5033,-0.605179 -3.779,-0.818771 -0.5402,-0.089 -1.0473,-0.195792 -1.6361,-0.266991 a 44.775845,48.716974 0 0 0 -5.3659,-0.391588 c -0.998,0 -1.9797,0.089 -2.9776,0.142386 -1.2921,0.089 -2.552,0.213595 -3.8119,0.427188 a 43.270776,47.07943 0 0 0 -6.5435,1.619743 c -0.6872,0.231392 -1.3908,0.498384 -2.0613,0.765375 a 41.487595,45.139293 0 0 0 -4.008,1.779939 c -1.0633,0.551783 -2.0941,1.174762 -3.1084,1.779942 l -1.3089,1.050168 c -0.7362,0.49838 -1.4395,1.014565 -2.1429,1.566346 -0.7035,0.551781 -1.3742,1.103563 -2.0449,1.690944 -0.9653,0.836569 -1.8813,1.779941 -2.7811,2.66991 a 45.053957,49.019564 0 0 0 -6.2657,8.13433 c 5.3984,-3.275092 28.6126,-15.62788 50.2234,-1.174761 z"
     id="path1009"
     style="fill:#b7afd7;stroke-width:1.70641" />
  <path
     class="cls-4"
     d="m 1302.2161,129.92915 a 9.6357228,10.48385 0 0 0 -3.7462,5.33981 10.257382,11.160228 0 0 0 5.8402,14.45312 c 5.284,2.24272 15.3451,-1.37056 14.8706,-7.51136 -0.7195,-9.54046 -9.848,-14.52429 -16.9646,-12.28157 z"
     id="path1011"
     style="fill:#e4e41c;stroke-width:1.70641" />
  <path
     class="cls-4"
     d="m 1380.5617,129.92915 a 9.5539256,10.394853 0 0 1 3.746,5.33981 10.257382,11.160228 0 0 1 -5.8401,14.45312 c -5.2841,2.24272 -15.345,-1.37056 -14.8706,-7.51136 0.7197,-9.54046 9.8482,-14.52429 16.9647,-12.28157 z"
     id="path1013"
     style="fill:#e4e41c;stroke-width:1.70641" />
  <text
     xml:space="preserve"
     style="font-size:48px;fill:#000000;stroke-width:1.09097"
     x="1608.3547"
     y="68.334068"
     id="text1294"
     transform="scale(0.98158401,1.0187615)"><tspan
       sodipodi:role="line"
       id="tspan1292"
       x="1608.3547"
       y="68.334068"
       style="font-style:italic;font-variant:normal;font-weight:normal;font-stretch:normal;font-size:48px;font-family:sans-serif;-inkscape-font-specification:'sans-serif Italic';stroke-width:1.09097">Brought to you by:</tspan></text>
</svg>
