<?xml version="1.0" encoding="UTF-8" standalone="no"?>
<svg
   id="Layer_1"
   data-name="Layer 1"
   viewBox="0 0 300 470.00001"
   version="1.1"
   sodipodi:docname="login-label-its.svg"
   inkscape:version="1.2.2 (b0a8486, 2022-12-01)"
   width="300"
   height="470"
   xmlns:inkscape="http://www.inkscape.org/namespaces/inkscape"
   xmlns:sodipodi="http://sodipodi.sourceforge.net/DTD/sodipodi-0.dtd"
   xmlns="http://www.w3.org/2000/svg"
   xmlns:svg="http://www.w3.org/2000/svg">
  <sodipodi:namedview
     id="namedview1214"
     pagecolor="#ffffff"
     bordercolor="#000000"
     borderopacity="0.25"
     inkscape:showpageshadow="2"
     inkscape:pageopacity="0.0"
     inkscape:pagecheckerboard="0"
     inkscape:deskcolor="#d1d1d1"
     showgrid="false"
     inkscape:zoom="0.93149431"
     inkscape:cx="150.83291"
     inkscape:cy="207.73074"
     inkscape:window-width="1920"
     inkscape:window-height="1027"
     inkscape:window-x="1793"
     inkscape:window-y="65"
     inkscape:window-maximized="0"
     inkscape:current-layer="Layer_1"
     inkscape:lockguides="false"
     showguides="true" />
  <defs
     id="defs1163">
    <style
       id="style1161">.cls-1{fill:#11ab51;}.cls-2{fill:#1a1a1a;}.cls-3{fill:#171717;}.cls-4{fill:#fff;}</style>
  </defs>
  <polygon
     class="cls-1"
     points="300.1,86.6 300.1,271.8 150.1,358.3 0.1,271.8 0.1,86.6 150.1,0 "
     id="polygon1165" />
  <path
     class="cls-2"
     d="m 61.5,119.7 h -5 l -0.6,-3.1 a 12.5,12.5 0 0 1 -8.9,3.6 c -7,0 -9.9,-4.8 -9.9,-16.1 0,-11.3 3.7,-16 13.9,-16 a 35.4,35.4 0 0 1 9.5,1.1 l -0.6,5 -8.7,-0.2 c -5.2,0 -6.9,1.4 -6.9,10.3 0,8.9 1.2,10.1 5.1,10.1 a 10.7,10.7 0 0 0 5.5,-1.6 v -11 h 6.6 z"
     id="path1167" />
  <path
     class="cls-2"
     d="m 81.9,103.1 h -1.8 a 21,21 0 0 0 -6.8,1.5 v 15.1 H 66.6 V 97.6 h 5.2 l 0.6,3.2 c 2.9,-2.5 6.1,-3.9 8.9,-3.9 h 1.2 z"
     id="path1169" />
  <path
     class="cls-2"
     d="m 91.5,110.8 c 0.4,3.3 1.9,4.1 5.2,4.1 3.3,0 5.3,-0.2 8.3,-0.5 l 0.6,4.1 c -2.6,1.3 -6.5,1.7 -9.6,1.7 -8.4,0 -11.5,-3.4 -11.5,-11.6 0,-8.2 3.2,-11.7 11.2,-11.7 8,0 10.5,2.7 10.5,7.7 0,5 -1.9,6.2 -6.7,6.2 z m 6.1,-4 c 1.8,0 2.1,-1 2.1,-2.2 0,-1.2 -0.9,-2.8 -3.8,-2.8 -2.9,0 -4.4,0.9 -4.5,5 z"
     id="path1171" />
  <path
     class="cls-2"
     d="m 116.6,110.8 c 0.4,3.3 1.9,4.1 5.3,4.1 3.4,0 5.2,-0.2 8.2,-0.5 l 0.6,4.1 c -2.6,1.3 -6.5,1.7 -9.6,1.7 -8.4,0 -11.5,-3.4 -11.5,-11.6 0,-8.2 3.2,-11.7 11.2,-11.7 8,0 10.5,2.7 10.5,7.7 0,5 -1.9,6.2 -6.7,6.2 z m 6.1,-4 c 1.8,0 2.1,-1 2.1,-2.2 0,-1.2 -0.9,-2.8 -3.8,-2.8 -2.9,0 -4.4,0.9 -4.5,5 z"
     id="path1173" />
  <path
     class="cls-2"
     d="m 141.5,100.8 c 3.1,-2.5 6.3,-3.9 9.4,-3.9 3.1,0 6.2,2.2 6.2,6.2 v 16.6 h -6.5 v -14.6 c 0,-2 -0.6,-2.6 -2.2,-2.6 -1.6,0 -3.5,0.8 -6.1,2.1 v 15.1 h -6.7 V 97.6 h 5.4 z"
     id="path1175" />
  <path
     class="cls-2"
     d="m 169.1,95.3 a 22.4,22.4 0 0 1 -0.6,5.2 11.4,11.4 0 0 1 7.8,-3.6 c 5.7,0 8.2,3.3 8.2,11.5 0,8.2 -2,11.8 -10.9,11.8 -3.1,0 -8.5,-0.5 -11.2,-1.7 V 88.3 h 6.7 z m -0.1,19.6 a 22.8,22.8 0 0 0 4.5,0.4 c 3,-0.1 4.1,-1.6 4.1,-6.8 0,-5.2 -0.6,-6.3 -3.9,-6.3 -1.8,0 -3.1,0.8 -4.7,1.9 z"
     id="path1177" />
  <path
     class="cls-2"
     d="m 210.8,108.6 c 0,8.5 -3.1,11.7 -11.3,11.7 -8.2,0 -11.4,-3.2 -11.4,-11.7 0,-8.5 3.1,-11.7 11.4,-11.7 8.3,0 11.3,3.2 11.3,11.7 z m -15.8,0 c 0,5.3 1,6.7 4.5,6.7 3.5,0 4.4,-1.4 4.4,-6.7 0,-5.3 -1,-6.7 -4.4,-6.7 -3.4,0 -4.5,1.4 -4.5,6.7 z"
     id="path1179" />
  <path
     class="cls-2"
     d="m 221.2,100.8 c 3.1,-2.5 6.4,-3.9 9.5,-3.9 3.1,0 6.2,2.2 6.2,6.2 v 16.6 h -6.6 v -14.6 c 0,-2 -0.6,-2.6 -2.2,-2.6 -1.6,0 -3.5,0.8 -6.1,2.1 v 15.1 h -6.7 V 97.6 h 5.4 z"
     id="path1181" />
  <path
     class="cls-2"
     d="m 248.3,110.8 c 0.4,3.3 1.9,4.1 5.3,4.1 3.4,0 5.2,-0.2 8.2,-0.5 l 0.6,4.1 c -2.6,1.3 -6.5,1.7 -9.6,1.7 -8.4,0 -11.5,-3.4 -11.5,-11.6 0,-8.2 3.2,-11.7 11.2,-11.7 8,0 10.5,2.7 10.5,7.7 0,5 -1.9,6.2 -6.7,6.2 z m 6.2,-4 c 1.7,0 2,-1 2,-2.2 0,-1.2 -0.9,-2.8 -3.7,-2.8 -2.8,0 -4.4,0.9 -4.6,5 z"
     id="path1183" />
  <polygon
     class="cls-3"
     points="296.6,264.8 150.1,349.3 3.5,264.8 150,180.2 "
     id="polygon1185" />
  <path
     class="cls-4"
     d="m 83.4,243.5 c -4.1,-1.3 -5.6,-3.9 -5.6,-8 0,-6.3 2.9,-7.4 9.5,-7.4 A 33,33 0 0 1 96,229 l -0.3,3.6 -8.2,-0.2 c -3.4,0 -4.7,0.2 -4.7,3.2 0,3 1,3 3.1,3.7 l 5.4,1.6 c 4.4,1.4 5.7,4 5.7,8.1 0,6.3 -2.7,7.8 -9.9,7.8 a 47.7,47.7 0 0 1 -9,-0.9 l 0.4,-3.7 h 8.8 c 3.6,0 4.6,-0.5 4.6,-3.3 0,-2.8 -0.9,-3 -2.9,-3.7 z"
     id="path1187" />
  <path
     class="cls-4"
     d="m 123.8,242.4 c 0,11 -3,14.4 -11.5,14.4 -8.5,0 -11.4,-3.4 -11.4,-14.4 0,-11 3,-14.4 11.4,-14.4 8.4,0 11.5,3.4 11.5,14.4 z m -17.6,0 c 0,7.7 1.4,10.1 6.1,10.1 4.7,0 6.2,-2.4 6.2,-10.1 0,-7.7 -1.5,-10.1 -6.2,-10.1 -4.7,0 -6.1,2.4 -6.1,10.1 z"
     id="path1189" />
  <path
     class="cls-4"
     d="m 150,245.4 c 0,8.3 -2.8,11.4 -10.4,11.4 -7.6,0 -10.8,-3.1 -10.8,-11.4 v -16.9 h 5 v 16.9 c 0,5.4 1.4,7.1 5.6,7.1 4.2,0 5.5,-1.7 5.5,-7.1 v -16.9 h 5.1 z"
     id="path1191" />
  <path
     class="cls-4"
     d="m 171.3,256.3 -2.2,-8.6 a 3,3 0 0 0 -3.2,-2.5 h -5 v 11.2 h -5 v -27.9 a 97.7,97.7 0 0 1 10.1,-0.3 c 6.9,0 9.7,1.8 9.7,8.1 0,4.1 -1.4,6.5 -5.2,7 v 0.2 a 4.9,4.9 0 0 1 3.7,4.1 l 2.5,8.7 z M 165.9,241 c 3.6,0 4.7,-1 4.7,-4.4 0,-3.4 -1.1,-4.3 -4.7,-4.3 h -5 v 8.7 z"
     id="path1193" />
  <path
     class="cls-4"
     d="m 200,255.7 a 25,25 0 0 1 -8.5,1.1 c -8.3,0 -11.3,-3.8 -11.3,-14.4 0,-10.6 3,-14.3 11.3,-14.3 a 29.4,29.4 0 0 1 8,0.8 l -0.5,3.9 c -2.5,-0.2 -4.1,-0.3 -7.5,-0.3 -3.4,0 -6,2.3 -6,9.9 0,7.6 1.4,9.9 6,9.9 a 47.3,47.3 0 0 0 8.1,-0.4 z"
     id="path1195" />
  <path
     class="cls-4"
     d="m 222.3,256 a 119.3,119.3 0 0 1 -12.2,0.4 c -3.6,0 -5.9,-2 -5.9,-5.3 v -17.4 c 0,-3.2 2.3,-5.2 5.9,-5.2 3.6,0 8.6,0 12.2,0.3 l -0.2,3.8 h -10.9 c -1.4,0 -2,0.7 -2,2.4 v 4.8 h 11.4 v 3.9 h -11.4 v 6.2 c 0,1.7 0.6,2.3 2,2.3 h 10.9 z"
     id="path1197" />
  <path
     class="cls-4"
     d="m 95.1,293.7 a 121.3,121.3 0 0 1 -12.2,0.4 c -3.7,0 -5.9,-2.1 -6,-5.3 v -17.4 c 0.1,-3.2 2.3,-5.2 6,-5.2 3.7,0 8.5,0 12.2,0.3 l -0.3,3.8 H 84 c -1.5,0 -2,0.6 -2,2.4 v 4.8 h 11.4 v 3.9 H 82 v 6.2 c 0,1.7 0.5,2.3 2,2.3 h 10.8 z"
     id="path1199" />
  <path
     class="cls-4"
     d="m 100,266.2 c 3,-0.2 6.3,-0.3 10.4,-0.3 8.3,0 11.3,3.4 11.3,14.2 0,10.8 -3,14.2 -11.3,14.2 -4.1,0 -7.4,-0.1 -10.4,-0.3 z m 5,23.8 h 5.4 c 4.5,0 6,-2.4 6,-10 0,-7.6 -1.5,-10 -6,-10 H 105 Z"
     id="path1201" />
  <path
     class="cls-4"
     d="m 127,294 v -27.8 h 5 V 294 Z"
     id="path1203" />
  <path
     class="cls-4"
     d="M 149.5,270.5 V 294 h -5.1 v -23.5 h -8.5 v -4.3 H 158 v 4.3 z"
     id="path1205" />
  <path
     class="cls-4"
     d="m 162,294 v -27.8 h 5 V 294 Z"
     id="path1207" />
  <path
     class="cls-4"
     d="m 195.1,280.1 c 0,11 -3,14.4 -11.5,14.4 -8.5,0 -11.4,-3.4 -11.4,-14.4 0,-11 3,-14.4 11.4,-14.4 8.4,0 11.5,3.4 11.5,14.4 z m -17.6,0 c 0,7.7 1.5,10.1 6.1,10.1 4.6,0 6.2,-2.4 6.2,-10.1 0,-7.7 -1.5,-10.1 -6.2,-10.1 -4.7,0 -6.1,2.4 -6.1,10.1 z"
     id="path1209" />
  <path
     class="cls-4"
     d="M 222.8,292.1 A 1.7,1.7 0 0 1 221,294 h -4 c -1.1,0 -1.6,-0.5 -2.1,-1.6 l -7.8,-17 a 25,25 0 0 1 -1.6,-4.1 H 205 a 29.5,29.5 0 0 1 0.2,4.2 V 294 h -4.9 v -25.9 a 1.7,1.7 0 0 1 1.9,-1.9 h 3.9 c 1.1,0 1.6,0.5 2.1,1.6 l 7.5,16.5 c 0.6,1.2 1.4,2.9 2,4.4 h 0.4 c -0.1,-1.6 -0.2,-3 -0.2,-4.5 v -18 h 4.9 z"
     id="path1211" />
  <path
     d="m 171.49548,450.47689 a 3.4103852,3.1367952 0 1 0 0,6.27359 3.9983826,3.6776219 0 0 0 2.67272,-1.05707 l 0.97287,0.98332 a 5.5164852,5.0739382 0 0 1 -3.7418,1.47499 4.9017605,4.5085284 0 1 1 0.0588,-9.01214 5.3454313,4.9166067 0 0 1 3.68834,1.33731 l -0.95683,1.0964 a 3.77922,3.476041 0 0 0 -2.6941,-1.0964 z"
     id="path1220"
     style="stroke-width:0.512654" />
  <path
     d="m 181.76941,455.09851 v 2.94996 h -1.60363 v -2.9008 l -3.61352,-5.99334 h 1.65174 l 2.76359,4.33644 2.71548,-4.33644 h 1.65709 z"
     id="path1222"
     style="stroke-width:0.512654" />
  <path
     d="m 195.04211,451.38155 a 2.1381725,1.9666428 0 0 1 -1.69985,1.96664 2.3466443,2.1583904 0 0 1 2.07403,2.2518 c 0,1.52416 -1.3417,2.45831 -3.52798,2.45831 h -4.30308 v -8.90397 h 4.20686 c 2.00988,0 3.25002,0.8309 3.25002,2.22722 z m -1.67312,0.26549 c 0,-0.73749 -0.62007,-1.16031 -1.66243,-1.14557 h -2.49097 v 2.34031 h 2.49097 c 1.02633,0 1.66243,-0.42775 1.66243,-1.19474 z m 0.37418,3.78087 c 0,-0.79156 -0.7644,-1.27339 -2.03661,-1.25865 h -2.49097 v 2.54189 h 2.49097 c 1.27221,0.0148 2.03661,-0.45724 2.03661,-1.28324 z"
     id="path1224"
     style="stroke-width:0.512654" />
  <path
     d="m 205.24654,449.15433 v 1.34714 h -5.28663 v 2.43373 h 4.73605 v 1.33731 h -4.73605 v 2.45831 h 5.45234 v 1.35206 h -7.0827 v -8.92855 z"
     id="path1226"
     style="stroke-width:0.512654" />
  <path
     d="m 214.52621,458.06321 -1.77468,-2.69921 c -0.13364,0 -0.28866,0 -0.43833,0 h -2.29854 v 2.68939 h -1.63035 v -8.89906 h 3.92889 c 2.47493,0 3.90216,1.10624 3.90216,3.03846 a 3.1163864,2.8663817 0 0 1 -2.00988,2.89096 l 2.17559,2.97946 z m -2.21301,-4.03653 c 1.49137,0 2.35199,-0.58507 2.35199,-1.79456 0,-1.20949 -0.86062,-1.73065 -2.35199,-1.73065 h -2.29854 v 3.52521 z"
     id="path1228"
     style="stroke-width:0.512654" />
  <path
     d="m 222.41606,450.50147 c -0.95148,0 -1.5769,0.32942 -1.5769,0.92925 0,1.96663 5.23318,0.90465 5.21714,4.11028 0,1.59298 -1.52344,2.57138 -3.65093,2.57138 a 5.9655014,5.4869332 0 0 1 -3.96096,-1.41107 l 0.7056,-1.29797 a 5.1476503,4.7346923 0 0 0 3.28209,1.29797 c 1.13324,0 1.81211,-0.39332 1.81211,-1.08165 0,-1.96664 -5.22784,-0.88007 -5.22784,-4.04637 0,-1.52906 1.42189,-2.45829 3.52799,-2.45829 a 6.3236453,5.8163458 0 0 1 3.389,0.91448 l -0.67887,1.32257 a 5.8051384,5.339435 0 0 0 -2.83843,-0.85058 z"
     id="path1230"
     style="stroke-width:0.512654" />
  <path
     d="m 235.85983,449.15433 v 1.34714 h -5.28664 v 2.43373 h 4.73071 v 1.33731 h -4.73071 v 2.45831 h 5.45769 v 1.35206 h -7.08805 v -8.92855 z"
     id="path1232"
     style="stroke-width:0.512654" />
  <path
     d="m 243.31136,450.47689 a 3.4103852,3.1367952 0 1 0 0,6.27359 4.0197644,3.6972882 0 0 0 2.69944,-1.05707 l 0.96752,0.98332 a 5.5057943,5.0641049 0 0 1 -3.7418,1.47499 4.9017605,4.5085284 0 1 1 0.0588,-9.01214 5.3454313,4.9166067 0 0 1 3.67766,1.37173 l -0.95149,1.0964 a 3.7899108,3.4858742 0 0 0 -2.71013,-1.13082 z"
     id="path1234"
     style="stroke-width:0.512654" />
  <path
     d="m 253.6708,456.77507 c 1.57691,0 2.56046,-0.88991 2.56046,-2.40422 v -5.21652 h 1.63036 v 5.21652 c 0,2.33046 -1.60363,3.75628 -4.20685,3.75628 -2.60323,0 -4.21755,-1.42582 -4.21755,-3.75628 v -5.21652 h 1.63036 v 5.21652 a 2.4161349,2.2223062 0 0 0 2.60322,2.40422 z"
     id="path1236"
     style="stroke-width:0.512654" />
  <path
     d="m 267.30165,458.06321 -1.76934,-2.69921 c -0.13898,0 -0.28865,0 -0.44366,0 h -2.2932 v 2.68939 h -1.64105 v -8.89906 h 3.92889 c 2.48029,0 3.90217,1.10624 3.90217,3.03846 a 3.111041,2.8614651 0 0 1 -2.00453,2.89096 l 2.17024,2.97946 z m -2.213,-4.03653 c 1.49671,0 2.35198,-0.58507 2.35198,-1.79456 0,-1.20949 -0.85527,-1.73065 -2.35198,-1.73065 h -2.2932 v 3.52521 z"
     id="path1238"
     style="stroke-width:0.512654" />
  <path
     d="m 273.77497,449.15433 v 8.90888 h -1.6357 v -8.90888 z"
     id="path1240"
     style="stroke-width:0.512654" />
  <path
     d="m 283.90456,449.15433 v 1.34714 h -3.07363 v 7.56174 h -1.60362 v -7.56174 h -3.10569 v -1.34714 z"
     id="path1242"
     style="stroke-width:0.512654" />
  <path
     d="m 290.24424,455.09851 v 2.94996 h -1.60362 v -2.9008 l -3.61352,-5.99334 h 1.64639 l 2.76894,4.33644 2.71013,-4.33644 h 1.66243 z"
     id="path1244"
     style="stroke-width:0.512654" />
  <path
     d="m 132.41504,412.52561 a 11.792022,10.846034 0 0 0 -9.17276,4.02669 11.802712,10.855868 0 0 0 -20.99151,6.83409 v 15.87081 a 2.6352977,2.4238871 0 1 0 5.26525,0 v -15.87081 a 6.54281,6.0179285 0 0 1 13.08562,0 v 15.87081 a 2.6353,2.4238893 0 1 0 5.2706,0 v -15.87081 a 6.5428079,6.0179267 0 0 1 13.08027,0 v 15.87081 a 2.6352977,2.4238871 0 1 0 5.27059,0 v -15.87081 a 11.824094,10.875534 0 0 0 -11.80806,-10.86078 z"
     id="path1246"
     style="stroke-width:0.512654" />
  <path
     d="m 179.33723,412.52561 a 11.792022,10.846034 0 0 0 -9.1781,4.02669 11.802712,10.855868 0 0 0 -20.98616,6.83409 v 15.87081 a 2.6352977,2.4238871 0 1 0 5.26524,0 v -15.87081 a 6.54281,6.0179286 0 0 1 13.08562,0 v 15.87081 a 2.6352991,2.4238885 0 0 0 5.27059,0 v -15.87081 a 6.5428079,6.0179267 0 0 1 13.08028,0 v 15.87081 a 2.6352991,2.4238885 0 1 0 5.27059,0 v -15.87081 a 11.824094,10.875534 0 0 0 -11.80806,-10.86078 z"
     id="path1248"
     style="stroke-width:0.512654" />
  <path
     d="m 245.85578,412.52561 a 2.6352977,2.4238871 0 0 0 -2.6353,2.42389 v 15.86096 a 6.5428079,6.0179267 0 0 1 -13.06958,0 V 414.9495 a 2.6352977,2.4238871 0 1 0 -5.26525,0 v 15.86096 a 11.813403,10.865701 0 0 0 23.62146,0 V 414.9495 a 2.6352977,2.4238871 0 0 0 -2.65133,-2.42389 z"
     id="path1250"
     style="stroke-width:0.512654" />
  <path
     d="m 94.665604,412.52561 a 2.6352977,2.4238871 0 0 0 -2.635295,2.42389 v 24.3077 a 2.6352977,2.4238871 0 0 0 5.27059,0 v -24.3077 a 2.6352977,2.4238871 0 0 0 -2.635295,-2.42389 z"
     id="path1252"
     style="stroke-width:0.512654" />
  <path
     d="m 264.99777,425.89386 v 0 l -2.43752,-1.47498 h -0.0374 c -2.99878,-1.77982 -3.65092,-2.41405 -3.74179,-2.52222 l -0.0267,-0.0295 a 2.8223878,2.5959684 0 0 1 -0.83924,-1.79948 2.3894078,2.1977232 0 0 1 0.42764,-1.28323 3.2981311,3.0335464 0 0 1 1.38446,-1.02758 5.3454313,4.9166067 0 0 1 2.29854,-0.44249 5.5913211,5.1427707 0 0 1 2.50167,0.51624 9.2689775,8.525396 0 0 1 2.76892,2.21248 2.6727156,2.4583034 0 0 0 3.71508,0.29499 2.5390799,2.3353882 0 0 0 0.32607,-3.33837 14.432664,13.274839 0 0 0 -4.46343,-3.41704 10.963479,10.08396 0 0 0 -4.84831,-1.01282 10.690862,9.8332138 0 0 0 -4.55965,0.90465 8.5526905,7.8665708 0 0 0 -3.5066,2.67956 7.4194587,6.82425 0 0 0 -1.30963,3.93328 7.9005475,7.2667446 0 0 0 2.09006,4.82318 c 0.53454,0.55559 1.54483,1.47499 4.86968,3.44164 l 2.41614,1.47497 v 0 0 c 2.99878,1.78473 3.65093,2.41406 3.74181,2.52223 l 0.0321,0.0295 a 2.8437694,2.6156348 0 0 1 0.83389,1.79948 2.3894078,2.1977232 0 0 1 -0.4223,1.28816 3.308822,3.0433797 0 0 1 -1.3898,1.02265 5.3133588,4.8871071 0 0 1 -2.29319,0.44741 5.6287392,5.1771869 0 0 1 -2.50166,-0.49166 9.3812318,8.6286448 0 0 1 -2.77428,-2.21739 2.6727156,2.4583034 0 0 0 -3.70973,-0.29499 2.5337344,2.3304716 0 0 0 -0.32608,3.33837 14.213502,13.073257 0 0 0 4.46344,3.44163 10.963479,10.08396 0 0 0 4.84831,1.01281 10.749663,9.8872959 0 0 0 4.55965,-0.90465 8.5526905,7.8665708 0 0 0 3.5066,-2.67463 7.4836039,6.8832493 0 0 0 1.30963,-3.93329 7.9112383,7.2765778 0 0 0 -2.0954,-4.87236 c -0.47575,-0.58507 -1.50742,-1.47989 -4.8109,-3.44653 z"
     id="path1254"
     style="stroke-width:0.512654" />
  <path
     d="m 293.02387,429.33549 c -0.53455,-0.55558 -1.54483,-1.44548 -4.84831,-3.41213 v 0 l -2.43217,-1.50448 h -0.0374 c -2.99879,-1.77982 -3.65093,-2.41405 -3.7418,-2.52222 l -0.032,-0.0295 a 2.8330786,2.6058016 0 0 1 -0.83389,-1.79948 2.3519898,2.163307 0 0 1 0.42764,-1.28323 3.2072588,2.9499641 0 0 1 1.38446,-1.02758 5.3454313,4.9166067 0 0 1 2.29853,-0.44249 5.5485577,5.1034378 0 0 1 2.49632,0.51624 9.2689775,8.525396 0 0 1 2.77428,2.21248 2.6727156,2.4583034 0 0 0 3.70973,0.29499 2.5337344,2.3304716 0 0 0 0.32607,-3.33837 14.282993,13.137173 0 0 0 -4.49551,-3.46129 10.958134,10.079044 0 0 0 -4.81089,-1.01283 10.760354,9.8971299 0 0 0 -4.56499,0.90466 8.5526905,7.8665708 0 0 0 -3.50661,2.67955 7.4836039,6.8832493 0 0 0 -1.30963,3.93329 7.9005475,7.2667446 0 0 0 2.08472,4.86743 c 0.53454,0.55559 1.54483,1.47499 4.86969,3.44164 l 2.41613,1.47497 v 0 0 c 2.99879,1.78473 3.65093,2.41406 3.74181,2.52223 v 0.0295 a 2.8330786,2.6058016 0 0 1 0.83923,1.79948 2.3947532,2.2026398 0 0 1 -0.42764,1.28816 3.2927857,3.0286298 0 0 1 -1.38446,1.02265 5.3454313,4.9166067 0 0 1 -2.29854,0.44741 5.6447755,5.1919368 0 0 1 -2.50166,-0.49166 9.3170869,8.5696457 0 0 1 -2.76893,-2.21739 2.6727156,2.4583034 0 0 0 -3.71508,-0.29499 2.5390799,2.3353882 0 0 0 -0.32607,3.33837 14.331101,13.181423 0 0 0 4.46343,3.44163 10.963479,10.08396 0 0 0 4.84831,1.01281 10.690862,9.8332138 0 0 0 4.55966,-0.90465 8.4938902,7.8124879 0 0 0 3.5066,-2.67463 7.4248041,6.8291665 0 0 0 1.30963,-3.93329 7.9112383,7.2765778 0 0 0 -2.02057,-4.87727 z"
     id="path1256"
     style="stroke-width:0.512654" />
  <path
     d="m 217.08133,412.52561 a 2.6352977,2.4238871 0 0 0 -2.63531,2.42389 v 1.32748 c -1.60362,-2.21739 -3.74179,-3.75137 -6.5428,-3.75137 a 11.824094,10.875534 0 0 0 -11.80806,10.86078 v 7.42407 a 11.824094,10.875534 0 0 0 11.80806,10.86079 c 2.81704,0 4.98194,-1.56348 6.5428,-3.8202 v 1.39631 a 2.6353,2.4238893 0 0 0 5.2706,0 V 414.9495 a 2.6352977,2.4238871 0 0 0 -2.63529,-2.42389 z m -2.63531,10.86078 v 7.44866 a 6.5428079,6.0179267 0 1 1 -13.08561,0 v 0 0 -7.44866 0 -0.10325 a 6.5428079,6.0179267 0 0 1 13.08561,0 z"
     id="path1258"
     style="stroke-width:0.512654" />
  <path
     d="m 67.692558,426.7346 c 0.384872,-0.43266 0.753706,-0.88007 1.117195,-1.34224 0.935451,-0.0836 1.897628,-0.16716 2.85446,-0.27041 l 0.967523,-0.10817 -0.05345,-1.96663 -0.967523,-0.059 -1.122541,-0.064 a 15.287934,14.061495 0 0 0 1.437921,-3.71695 13.823285,12.714345 0 0 0 0.203126,-1.42582 17.265743,15.88064 0 1 0 -15.961458,-28.08366 72.879611,67.033017 0 0 0 -6.815424,-6.57842 9.4346866,8.6778108 0 0 0 -12.294492,0 72.879611,67.033017 0 0 0 -6.826116,6.57842 17.265743,15.88064 0 1 0 -15.961458,28.08366 12.684709,11.667108 0 0 0 0.203126,1.42582 15.106189,13.894331 0 0 0 1.459303,3.73662 l -1.12254,0.0639 -0.972869,0.059 -0.04811,1.96665 0.967523,0.10816 c 0.951487,0.0983 1.913665,0.18683 2.85446,0.27042 0.36349,0.46216 0.732325,0.90956 1.117195,1.34223 -6.339681,2.58122 -10.9848609,6.10642 -13.181833,10.09379 a 10.621372,9.7692977 0 0 0 -0.1175997,8.56473 l 4.8108887,9.59722 a 9.0872328,8.358231 0 0 0 7.275132,4.80844 l 9.049815,0.86041 a 6.0991371,5.6098483 0 0 1 2.426826,0.72766 l 9.691266,5.14277 a 9.0872328,8.358231 0 0 0 9.055161,0 l 9.691268,-5.14277 a 6.0991371,5.6098483 0 0 1 2.426826,-0.72766 l 9.04447,-0.86041 a 9.0872328,8.358231 0 0 0 7.30186,-4.80845 l 4.810888,-9.59721 a 10.637408,9.784047 0 0 0 -0.1176,-8.56474 C 78.672074,432.86069 74.03224,429.33549 67.692558,426.7346 Z"
     id="path1260"
     style="stroke-width:0.512654" />
  <path
     class="cls-1"
     d="m 79.655633,401.59599 a 14.432664,13.274839 0 0 0 -1.646392,-4.68553 c -0.224509,-0.37857 -0.470398,-0.75224 -0.732324,-1.10624 a 14.352483,13.201089 0 0 0 -1.29894,-1.51923 14.715972,13.535419 0 0 0 -2.068682,-1.73556 c -0.379526,-0.25566 -0.764396,-0.49167 -1.165304,-0.72274 a 14.55561,13.38792 0 0 0 -2.549771,-1.13082 c -0.449016,-0.15241 -0.903378,-0.28024 -1.368431,-0.39333 a 14.651827,13.476419 0 0 0 -3.645583,-0.42282 q -0.481089,0 -0.962178,0.0295 A 14.07452,12.945426 0 0 0 62.3204,390.1403 c -0.310035,0.054 -0.62007,0.12292 -0.930105,0.19666 a 14.523537,13.35842 0 0 0 -1.796065,0.56541 c -0.293999,0.10817 -0.582652,0.23108 -0.86596,0.35892 -0.283307,0.12782 -0.566615,0.2704 -0.844578,0.4179 a 71.153036,65.444952 0 0 1 4.554308,6.08676 72.772702,66.934684 0 0 1 3.811292,6.55876 c 0,0 0.876651,0.98332 1.603629,1.86339 l 0.229854,0.27041 c 0.144326,0.18192 0.293998,0.36383 0.43298,0.55066 0.213817,0.28517 0.422289,0.57525 0.625415,0.87516 a 20.676129,19.017435 0 0 1 1.421885,2.51239 c 0.04811,0.0983 0.101563,0.19666 0.144326,0.29991 0.04277,0.10325 0.08018,0.18192 0.1176,0.27533 a 18.976281,17.453954 0 0 1 0.652142,1.72573 22.167504,20.389168 0 0 1 0.534543,2.08464 c 0,0.11801 0.04277,0.24091 0.0588,0.36383 0.293998,-0.1475 0.582652,-0.29991 0.860614,-0.45725 a 14.967208,13.766499 0 0 0 1.60363,-1.06198 14.582336,13.412503 0 0 0 3.431766,-3.8202 c 0.149672,-0.25567 0.293999,-0.49166 0.427635,-0.77192 0.133636,-0.28024 0.235199,-0.49165 0.342107,-0.71782 a 14.566301,13.397753 0 0 0 1.069086,-5.01494 14.224193,13.08309 0 0 0 -0.149671,-1.70605 z"
     id="path1262"
     style="fill:#7b69a8;stroke-width:0.512654" />
  <path
     class="cls-1"
     d="m 62.106582,427.67859 c 0.561271,-0.60966 1.117196,-1.2144 1.657085,-1.81915 l -1.753302,0.12291 c -0.587998,0.0393 -1.197377,0.10326 -1.780029,0.15734 l -0.593343,0.059 c -0.261926,0 -0.534543,0.0393 -0.780433,0.054 -0.486434,0.52116 -0.988904,1.04232 -1.502066,1.55856 l -0.796469,0.8014 -0.272617,-0.064 v 0 c -0.775087,-0.18683 -1.566211,-0.34415 -2.368026,-0.49166 a 15.05808,13.850081 0 0 0 -2.432171,-0.19666 v 0 0 l -0.0588,0.16224 a 15.56055,14.312242 0 0 0 2.100754,1.20457 c 0.716288,0.34908 1.448613,0.65883 2.191628,0.94399 a 16.319602,15.010401 0 0 0 2.282499,0.69817 c 0.780433,0.1819 1.560865,0.35399 2.335954,0.55557 l 2.319916,0.59491 2.330608,0.57524 c 1.555521,0.35891 3.111041,0.74733 4.677253,1.08657 v 0 0 l 0.0588,-0.16225 c -1.469993,-0.60474 -2.961368,-1.16032 -4.436707,-1.74048 l -2.234391,-0.84562 -2.239736,-0.81616 v 0 l -0.662833,-0.25068 0.710942,-0.79158 z"
     id="path1264"
     style="fill:#7b69a8;stroke-width:0.512654" />
  <path
     class="cls-1"
     d="m 28.040148,399.28027 a 22.306485,20.517 0 0 1 4.057183,-1.38157 38.027398,34.976741 0 0 0 -6.708516,4.68552 27.117373,24.941946 0 0 0 -5.024706,5.85077 21.018236,19.332098 0 0 0 -1.603629,3.31871 19.687224,18.107862 0 0 0 -0.823197,3.48587 11.102461,10.211793 0 0 0 1.496721,6.47517 c 0.219163,0.35891 0.454362,0.71291 0.705598,1.06691 0.251235,0.35399 0.470397,0.63916 0.721632,0.98332 l -1.154613,0.0393 -1.886937,0.0885 -0.898032,0.0344 c -0.678871,0.0295 -1.35774,0.0639 -2.03661,0.10817 v 0.17209 0 0 c 1.60363,0.17207 3.207259,0.29498 4.810889,0.4474 l 2.400098,0.19667 2.400098,0.16716 c 0.801815,0.054 1.60363,0.13767 2.405445,0.21633 a 17.174871,15.797058 0 0 0 2.405444,0.059 c 0.801815,-0.0344 1.603629,-0.0983 2.41079,-0.20158 a 15.084807,13.874665 0 0 0 2.416135,-0.46707 v -0.17209 0 0 0 a 15.817132,14.54824 0 0 0 -2.394754,-0.57524 c -0.796469,-0.13767 -1.603629,-0.236 -2.400098,-0.30483 a 17.212289,15.831474 0 0 0 -2.405444,-0.0443 l -1.635703,0.0836 c -0.24589,-0.31959 -0.475743,-0.63916 -0.700251,-0.95382 -1.913664,-2.72872 -2.956023,-5.40827 -2.29319,-7.89608 a 20.216421,18.594607 0 0 1 4.762779,-8.11732 21.916269,20.158088 0 0 1 32.286405,0 20.152276,18.535608 0 0 1 4.757435,8.11732 c 0.668178,2.48781 -0.374181,5.16736 -2.287846,7.89608 -0.224507,0.31466 -0.454361,0.63423 -0.700251,0.95382 l -1.603629,-0.0836 c -0.411598,0 -0.817851,0 -1.22945,0 -0.411597,0 -0.785778,0.0245 -1.175994,0.059 -0.801815,0.0688 -1.603629,0.16717 -2.400099,0.30484 l -0.534543,0.11307 c -0.09087,0 -0.181744,0.0443 -0.272617,0.0639 -0.342107,0.0738 -0.68956,0.16224 -1.031669,0.25566 -0.106908,0.0295 -0.208471,0.0443 -0.31538,0.0787 l -0.229853,0.064 v 0 h -0.03208 v 0.17207 a 14.967208,13.766499 0 0 0 2.416134,0.46708 c 0.80716,0.10326 1.60363,0.16717 2.41079,0.20159 0.192436,0 0.384871,0 0.577307,0 0.192435,0 0.416943,0 0.625415,0 v 0 c 0.213817,0 0.427635,0 0.641452,-0.0393 0.213817,-0.0393 0.358143,0 0.534543,0 0.801814,-0.0787 1.603629,-0.16225 2.400098,-0.21633 l 2.405445,-0.16716 2.400098,-0.19667 c 1.60363,-0.15242 3.207259,-0.27532 4.810889,-0.4474 v 0 0 -0.17209 c -0.67887,-0.0443 -1.35774,-0.0787 -2.03661,-0.10817 l -0.898032,-0.0443 -1.886938,-0.0885 -1.154613,-0.0393 q 0.374181,-0.49166 0.721634,-0.98333 c 0.251235,-0.35399 0.486433,-0.70799 0.705596,-1.0669 a 11.102461,10.211793 0 0 0 1.523449,-6.47517 19.687224,18.107862 0 0 0 -0.85527,-3.48587 21.018236,19.332098 0 0 0 -1.603629,-3.31871 27.005119,24.838697 0 0 0 -5.030051,-5.85076 38.182416,35.119322 0 0 0 -6.703171,-4.68553 22.306485,20.517 0 0 1 4.057182,1.38156 28.74773,26.441511 0 0 1 2.875843,1.40616 69.308862,63.748723 0 0 0 -13.684305,-15.70856 6.1793186,5.6835974 0 0 0 -3.175186,-1.36191 l -1.165304,9.24322 -1.170649,-9.24322 a 6.2220821,5.7229303 0 0 0 -3.175186,1.36191 69.28748,63.729057 0 0 0 -13.662923,15.73313 28.74773,26.441511 0 0 1 2.838424,-1.45531 z"
     id="path1266"
     style="fill:#7b69a8;stroke-width:0.512654" />
  <path
     class="cls-1"
     d="m 25.64005,430.12706 -2.239735,0.81615 -2.255773,0.85057 c -1.480684,0.58016 -2.966714,1.13575 -4.436708,1.74049 l 0.0588,0.16224 v 0 0 c 1.566211,-0.33925 3.116385,-0.72765 4.677252,-1.08657 l 2.373371,-0.56541 2.319917,-0.5949 c 0.769742,-0.20158 1.555521,-0.37367 2.335953,-0.55558 a 16.319602,15.010401 0 0 0 2.293191,-0.69816 c 0.336762,-0.12783 0.662833,-0.29009 0.999595,-0.43266 l 0.315381,-0.13276 v 0 l 0.149672,-0.0737 c 0.235199,-0.10325 0.475744,-0.19174 0.705597,-0.29991 a 15.56055,14.312242 0 0 0 2.1061,-1.20949 v 0 0 l -0.07483,-0.18683 c -0.304689,0 -0.598688,0 -0.892687,0.0492 -0.106909,0 -0.208471,0 -0.31538,0.0295 h -0.144327 c -0.352799,0.0295 -0.705597,0.059 -1.069086,0.10817 h -0.05345 c -0.801815,0.12291 -1.60363,0.28023 -2.368026,0.49165 v 0 l -0.272617,0.0688 c -0.272617,-0.26549 -0.534544,-0.5359 -0.807161,-0.8014 -0.534543,-0.52117 -1.010286,-1.04232 -1.49672,-1.56348 -0.256581,0 -0.534543,-0.0295 -0.780433,-0.054 l -0.593344,-0.059 c -0.587997,-0.054 -1.19203,-0.118 -1.780027,-0.15733 l -0.908724,-0.0639 -0.844579,-0.059 c 0.267272,0.30484 0.534544,0.60475 0.817852,0.90958 l 0.839233,0.90957 c 0.422289,0.49165 0.849923,0.93415 1.272212,1.40615 0.240545,0.26058 0.475744,0.52608 0.716288,0.79158 l -0.662833,0.25074 z"
     id="path1268"
     style="fill:#7b69a8;stroke-width:0.512654" />
  <path
     class="cls-1"
     d="m 78.843128,439.60628 a 6.9490607,6.3915888 0 0 0 -0.587997,-1.47499 c -0.171054,-0.30483 -0.36349,-0.60966 -0.566616,-0.90957 -0.203126,-0.29991 -0.427635,-0.59983 -0.662833,-0.89482 -0.2352,-0.295 -0.497126,-0.58999 -0.769743,-0.88007 a 20.152276,18.535608 0 0 0 -2.731515,-2.37964 26.727156,24.583034 0 0 0 -2.60857,-1.68148 c -0.42229,-0.24091 -0.865961,-0.49166 -1.320322,-0.70308 q -1.314977,-0.67849 -2.78497,-1.29307 c -0.368835,-0.15241 -0.74836,-0.29991 -1.133231,-0.44741 -0.299345,0.30484 -0.604034,0.61458 -0.908724,0.91449 l -0.534543,0.49166 0.700252,0.26058 0.694906,0.2655 1.55552,0.60474 c 0.956832,0.36875 1.945737,0.75224 2.918606,1.14557 l 0.887341,0.36383 -0.668179,1.86832 -0.630761,-0.13767 -0.31538,-0.0688 c -0.534543,-0.11309 -1.031668,-0.23109 -1.544829,-0.354 l -1.523448,-0.35892 -1.60363,-0.3835 -2.346644,-0.57524 -0.587998,-0.15241 c -0.898032,0.90957 -1.774683,1.81914 -2.613915,2.75329 a 43.233848,39.765515 0 0 0 -4.677253,6.26868 38.203798,35.138989 0 0 0 -1.812101,3.44162 c -0.534543,1.19474 -1.026323,2.42389 -1.464648,3.67762 a 28.074205,25.822018 0 0 1 1.603629,-7.83216 34.435269,31.672781 0 0 1 3.998383,-7.1979 c 0.49178,-0.67849 1.010287,-1.34224 1.539484,-1.96665 h -0.03742 l -0.288653,-0.0688 -0.288654,-0.064 c -0.427634,-0.10324 -0.849923,-0.21632 -1.256176,-0.33924 -0.406253,-0.12292 -0.801814,-0.26058 -1.18134,-0.40807 -0.379526,-0.14751 -0.614724,-0.24092 -0.914069,-0.36875 -0.743015,0.69816 -1.491375,1.39139 -2.229045,2.06989 l -1.069086,0.98332 c -1.069086,0.98332 -2.041955,1.90272 -2.950678,2.79755 a 6.7459343,6.2047578 0 0 1 -1.603629,1.17999 6.6871346,6.1506751 0 0 1 -6.56419,0 7.0238968,6.4604213 0 0 1 -1.122541,-0.73258 c -0.171054,-0.13767 -0.342108,-0.29009 -0.50247,-0.44741 -0.903378,-0.89483 -1.897628,-1.82898 -2.945333,-2.79755 l -1.069086,-0.98332 -2.229045,-2.06989 c -0.30469,0.12291 -0.609379,0.25074 -0.919414,0.36875 a 16.773964,15.428312 0 0 1 -2.426826,0.7424 l -0.577306,0.13767 h -0.04277 c 0.534543,0.64407 1.069086,1.30289 1.539485,1.96663 a 34.21076,31.466284 0 0 1 3.993037,7.19792 27.919188,25.679437 0 0 1 1.603629,7.83215 c -0.438325,-1.25373 -0.92476,-2.4583 -1.464648,-3.67762 a 39.443938,36.279642 0 0 0 -1.812101,-3.44162 43.597338,40.099845 0 0 0 -4.677252,-6.26868 c -0.839233,-0.93415 -1.715884,-1.84373 -2.613917,-2.75329 l -0.57196,0.14749 -2.3413,0.58017 -1.641047,0.38348 c -0.999596,0.24092 -2.03661,0.49166 -3.068278,0.71292 l -0.951486,0.20649 -0.67887,-1.86339 0.887342,-0.36383 c 0.972868,-0.39332 1.961772,-0.77683 2.918605,-1.14557 l 1.539484,-0.59982 1.411194,-0.531 v 0 l -0.534543,-0.49166 -0.903378,-0.91449 q -1.154613,0.4425 -2.223699,0.91941 c -0.486435,0.21633 -0.951487,0.44249 -1.405849,0.67358 -0.534543,0.27533 -1.095813,0.56048 -1.603629,0.85057 -0.625415,0.3589 -1.224104,0.72765 -1.79072,1.10623 -0.566616,0.37858 -1.095813,0.76699 -1.603629,1.16524 a 16.308911,15.000567 0 0 0 -3.9556196,4.47411 6.0884463,5.600015 0 0 0 -0.3421074,0.72766 7.31255,6.725918 0 0 0 -0.2512352,0.75715 8.5526905,7.8665708 0 0 0 -0.1924356,1.17999 7.7989843,7.1733293 0 0 0 0,0.79649 8.1678191,7.5125749 0 0 0 0.2138176,1.40124 8.2747276,7.6109075 0 0 0 0.5345431,1.35206 l 4.8108881,9.5923 a 5.7142661,5.2558526 0 0 0 0.545233,0.95873 6.1793186,5.6835974 0 0 0 0.78578,0.81125 5.3828494,4.951023 0 0 0 0.609379,0.45724 6.0617191,5.5754321 0 0 0 2.929296,1.02758 l 9.049815,0.86532 a 9.295705,8.5499793 0 0 1 0.940796,0.13274 9.0872328,8.358231 0 0 1 2.672716,0.93908 l 9.669885,5.10835 a 6.0563737,5.5705155 0 0 0 0.81785,0.36383 6.4145176,5.8999281 0 0 0 0.860615,0.24583 6.2007003,5.7032638 0 0 0 1.774684,0.13275 7.7027665,7.0848305 0 0 0 0.785778,-0.0934 6.0349919,5.550849 0 0 0 1.069086,-0.28516 l 0.219162,-0.0836 a 5.8799745,5.4082674 0 0 0 0.587998,-0.28025 l 9.691267,-5.14277 c 0.277962,-0.1475 0.56127,-0.28025 0.849924,-0.40317 l 0.438325,-0.16716 a 9.0872328,8.358231 0 0 1 2.303881,-0.49165 l 9.049817,-0.8653 a 6.0937917,5.6049317 0 0 0 1.908319,-0.49166 6.2755364,5.7720964 0 0 0 1.020978,-0.54575 6.1258643,5.6344314 0 0 0 1.999191,-2.21738 l 3.282094,-6.57351 1.507412,-3.01879 a 7.6279305,7.0159979 0 0 0 0.400908,-0.98333 7.9646926,7.3257441 0 0 0 0.245889,-1.01282 c 0.03742,-0.25074 0.06949,-0.49166 0.08018,-0.75224 0,-0.13274 0,-0.2655 0,-0.39824 0,-0.13275 0,-0.26549 0,-0.39825 a 7.3553135,6.7652512 0 0 0 -0.203126,-1.17506 z m -40.090735,8.16156 0.224508,2.11906 0.18709,2.12397 c 0.0588,0.70308 0.160363,1.41107 0.251235,2.11906 a 11.850821,10.900117 0 0 1 0.03208,2.11906 19.28097,17.7342 0 0 1 -0.326072,2.12889 12.069984,11.101698 0 0 1 -0.705597,2.12889 H 38.17509 a 11.663731,10.728035 0 0 1 -0.753706,-2.11414 19.158026,17.621119 0 0 1 -0.379525,-2.11906 12.342601,11.352446 0 0 1 0,-2.12397 c 0.07483,-0.70799 0.165708,-1.41598 0.208471,-2.12398 l 0.138982,-2.12397 0.176399,-2.11905 0.06414,-0.70308 c -0.689561,-0.28517 -1.197376,-1.15049 -1.197376,-2.18298 0,-1.25865 0.753705,-2.27639 1.683811,-2.27639 0.930104,0 1.68381,1.01774 1.68381,2.27639 a 2.6085705,2.3993041 0 0 1 -1.11185,2.13872 z m 10.15632,0 0.219162,2.11906 0.18709,2.12397 c 0.0588,0.70308 0.160364,1.41107 0.251236,2.11906 a 11.444569,10.526455 0 0 1 0.03207,2.11906 18.259993,16.795129 0 0 1 -0.326071,2.12889 12.069984,11.101698 0 0 1 -0.705597,2.12889 h -0.213818 a 12.02722,11.062365 0 0 1 -0.753705,-2.11414 18.131703,16.67713 0 0 1 -0.37418,-2.11906 11.904276,10.949283 0 0 1 0,-2.12397 c 0.06949,-0.70799 0.160362,-1.41598 0.203126,-2.12398 l 0.138981,-2.12397 0.176399,-2.11905 0.06414,-0.70308 c -0.68956,-0.28517 -1.19203,-1.15049 -1.19203,-2.18298 0,-1.25865 0.753705,-2.27639 1.678465,-2.27639 0.924759,0 1.683811,1.01774 1.683811,2.27639 a 2.6085705,2.3993041 0 0 1 -1.127886,2.13872 c 0.02672,0.25075 0.05345,0.49167 0.09087,0.73258 z"
     id="path1270"
     style="fill:#7b69a8;stroke-width:0.512654" />
  <path
     class="cls-1"
     d="m 9.8549917,411.70945 c 0.2031263,0.23108 0.4169433,0.45724 0.6361053,0.67849 a 14.464737,13.304337 0 0 0 3.009478,2.30097 c 0.277963,0.15733 0.566616,0.30975 0.860615,0.45724 0,-0.12291 0.03208,-0.24582 0.0588,-0.36382 a 22.167504,20.389168 0 0 1 0.534543,-2.08464 c 0.106909,-0.34417 0.224508,-0.67849 0.352798,-1.01283 0.128291,-0.33433 0.267272,-0.66374 0.411598,-0.98331 0.144327,-0.31958 0.30469,-0.649 0.470398,-0.98333 a 21.408452,19.69101 0 0 1 1.10116,-1.84373 c 0.19778,-0.29991 0.411598,-0.58999 0.625415,-0.87515 0.138981,-0.18683 0.288653,-0.36875 0.43298,-0.55066 l 0.224508,-0.27042 a 23.466443,21.583904 0 0 1 1.721229,-1.82406 l -0.101563,-0.0393 q 0.855268,-1.69624 1.8121,-3.33838 a 71.505835,65.769448 0 0 1 6.532118,-9.29731 c -0.277963,-0.1475 -0.534543,-0.28516 -0.844579,-0.4179 -0.310034,-0.13276 -0.732323,-0.30976 -1.111849,-0.44742 a 15.603314,14.351575 0 0 0 -1.555521,-0.49166 14.705281,13.525585 0 0 0 -3.784565,-0.45724 c -0.251235,0 -0.50247,0 -0.753705,0 a 13.422378,12.3456 0 0 0 -1.469995,0.13766 13.898121,12.783177 0 0 0 -2.138172,0.44741 c -0.229853,0.0639 -0.454362,0.13766 -0.67887,0.21141 a 14.149356,13.014258 0 0 0 -1.30963,0.49167 c -0.347453,0.15241 -0.684216,0.32449 -1.015632,0.49166 l -0.427635,0.32449 c -0.235199,0.13766 -0.470398,0.28025 -0.694906,0.43267 -0.224508,0.15241 -0.454362,0.30483 -0.673525,0.46708 -0.31538,0.23107 -0.614724,0.49166 -0.908722,0.73748 a 14.593027,13.422336 0 0 0 -2.4268263,16.6378 14.897717,13.702583 0 0 0 1.11185,1.46515 z"
     id="path1272"
     style="fill:#7b69a8;stroke-width:0.512654" />
  <path
     class="cls-1"
     d="m 38.249922,429.39448 a 3.4959121,3.2154608 0 0 0 0.497126,0.52117 6.6443711,6.1113422 0 0 0 4.442053,1.35698 6.6443711,6.1113422 0 0 0 4.442053,-1.35698 2.3680261,2.1780567 0 0 0 0,-3.44164 4.8589971,4.4691955 0 0 0 -0.652142,-0.45723 6.109828,5.6196815 0 0 0 -1.245485,-0.52117 8.2373097,7.5764909 0 0 0 -5.110233,0 6.109828,5.6196815 0 0 0 -1.234795,0.52608 3.8219834,3.5153738 0 0 0 -1.149268,0.98332 2.5604616,2.3550546 0 0 0 -0.310034,0.58016 2.1702451,1.9961423 0 0 0 -0.112255,0.6195 2.2236994,2.0453084 0 0 0 0.133637,0.63915 2.528389,2.325555 0 0 0 0.299343,0.55066 z"
     id="path1274"
     style="fill:#7b69a8;stroke-width:0.512654" />
  <path
     class="cls-2"
     d="m 22.079993,424.85645 2.400099,0.16717 c 0.801814,0.054 1.603628,0.13766 2.405443,0.21633 a 17.174871,15.797058 0 0 0 2.405444,0.059 c 0.801815,-0.0345 1.60363,-0.0983 2.41079,-0.20158 a 15.084807,13.874665 0 0 0 2.416135,-0.46707 v -0.17208 a 15.752986,14.48924 0 0 0 -2.389408,-0.57526 c -0.801814,-0.13766 -1.603629,-0.23599 -2.400098,-0.30482 a 17.212289,15.831474 0 0 0 -2.405444,-0.0443 c -0.807161,0.0443 -1.60363,0.0934 -2.41079,0.11308 l -2.41079,0.0639 -2.405443,0.0885 c -1.60363,0.0836 -3.207259,0.13767 -4.810889,0.24092 v 0.17208 c 1.60363,0.17209 3.207259,0.295 4.810889,0.44742 z"
     id="path1276"
     style="fill:#ffffff;stroke-width:0.512654" />
  <path
     class="cls-2"
     d="m 34.957137,427.88509 a 15.458988,14.218826 0 0 0 -2.458899,0.21141 c -0.801814,0.12291 -1.603629,0.28024 -2.368026,0.49166 a 17.313852,15.924889 0 0 0 -2.277154,0.71291 c -0.737669,0.29007 -1.475339,0.5949 -2.223698,0.86532 l -2.234391,0.81616 -2.250427,0.81123 c -1.480684,0.58016 -2.966714,1.14066 -4.436708,1.74049 l 0.0588,0.16224 c 1.566211,-0.33925 3.116385,-0.72765 4.677252,-1.08657 l 2.373371,-0.56541 2.319917,-0.5949 c 0.769742,-0.20158 1.555521,-0.37367 2.335953,-0.55558 a 16.319602,15.010401 0 0 0 2.2825,-0.69816 c 0.743015,-0.28516 1.475339,-0.59491 2.191627,-0.94399 a 15.56055,14.312242 0 0 0 2.095409,-1.20457 z"
     id="path1278"
     style="fill:#ffffff;stroke-width:0.512654" />
  <path
     class="cls-2"
     d="m 54.697815,425.09737 c 0.80716,0.10325 1.603629,0.16716 2.41079,0.20158 a 17.22298,15.841307 0 0 0 2.405444,-0.059 c 0.801814,-0.0787 1.603629,-0.16224 2.400098,-0.21632 l 2.405444,-0.16717 2.400099,-0.19666 c 1.603629,-0.15241 3.207259,-0.27534 4.810888,-0.44741 v -0.17208 c -1.603629,-0.10325 -3.207259,-0.15734 -4.810888,-0.24092 l -2.41079,-0.0885 -2.405443,-0.064 c -0.801815,0 -1.60363,-0.0688 -2.41079,-0.11308 a 17.212289,15.831474 0 0 0 -2.405444,0.0443 c -0.801815,0.0688 -1.60363,0.16716 -2.400099,0.30483 a 15.752986,14.48924 0 0 0 -2.389408,0.57525 v 0.17208 a 14.967208,13.766499 0 0 0 2.400099,0.46708 z"
     id="path1280"
     style="fill:#ffffff;stroke-width:0.512654" />
  <path
     class="cls-2"
     d="m 63.004615,430.96288 -2.239736,-0.81616 c -0.743014,-0.27041 -1.480684,-0.57524 -2.223699,-0.86532 a 16.977089,15.615144 0 0 0 -2.271808,-0.7129 c -0.780433,-0.19176 -1.566212,-0.34909 -2.368026,-0.49167 a 15.587278,14.336825 0 0 0 -2.464244,-0.21141 l -0.0588,0.16225 a 15.234479,14.012329 0 0 0 2.100754,1.20457 c 0.716288,0.34907 1.448612,0.65882 2.191626,0.94398 a 16.095093,14.803903 0 0 0 2.282499,0.69816 c 0.780434,0.18191 1.560867,0.35399 2.335954,0.55557 l 2.319918,0.59492 2.330608,0.57524 c 1.55552,0.35892 3.111041,0.74733 4.677251,1.08657 l 0.0588,-0.16225 c -1.469994,-0.59982 -2.961369,-1.16032 -4.442054,-1.74048 z"
     id="path1282"
     style="fill:#ffffff;stroke-width:0.512654" />
  <path
     class="cls-3"
     d="m 40.174277,427.76708 a 2.0259184,1.863394 0 0 0 0.30469,0.31959 4.5489621,4.1840323 0 0 0 5.44165,0 1.4539573,1.3373171 0 0 0 0,-2.10923 2.6085705,2.3993041 0 0 0 -0.400908,-0.27533 3.4959121,3.2154608 0 0 0 -0.753705,-0.29991 5.0086692,4.6068605 0 0 0 -3.132423,0 3.3783126,3.1072954 0 0 0 -0.753707,0.3245 2.2557721,2.0748081 0 0 0 -0.705597,0.59982 1.3363578,1.2291517 0 0 0 -0.192434,0.34908 1.3684304,1.2586513 0 0 0 0,0.76208 1.4432664,1.3274839 0 0 0 0.192434,0.3294 z"
     id="path1284"
     style="fill:#b7afd7;stroke-width:0.512654" />
  <path
     class="cls-3"
     d="m 79.046254,441.58275 c 0,-0.13275 0,-0.26549 0,-0.39824 0,-0.13275 0,-0.2655 0,-0.39825 a 7.3553135,6.7652512 0 0 0 -0.192435,-1.17998 7.2056414,6.6275859 0 0 0 -0.587997,-1.47499 c -0.171054,-0.30483 -0.36349,-0.60966 -0.566616,-0.90957 -0.203127,-0.29991 -0.427635,-0.59983 -0.668179,-0.89482 -0.240545,-0.295 -0.49178,-0.58999 -0.764397,-0.88007 a 20.473002,18.830604 0 0 0 -2.731515,-2.37964 26.727156,24.583034 0 0 0 -2.60857,-1.68148 c -0.42229,-0.24091 -0.865961,-0.49166 -1.320323,-0.70308 -0.881996,-0.45232 -1.806755,-0.88499 -2.784969,-1.29307 l -1.133231,-0.44741 c -0.30469,0.30484 -0.604034,0.61458 -0.908724,0.91449 l -0.534543,0.49166 v 0 l 0.700251,0.26058 0.694906,0.2655 1.555521,0.60474 c 0.956832,0.36875 1.945737,0.75224 2.91326,1.14557 l 0.892687,0.36383 -0.67887,1.86832 -0.630761,-0.13767 -0.31538,-0.0688 c -0.534543,-0.11309 -1.031668,-0.23109 -1.550175,-0.354 l -1.523448,-0.35892 -1.603629,-0.3835 -2.341299,-0.57524 -0.587998,-0.15241 v 0 l -0.604033,-0.15243 -1.881592,2.34031 c 0,0 14.5075,2.02073 19.313043,8.66798 a 8.3121457,7.6453235 0 0 0 0.379526,-1.34714 q 0.04811,-0.37367 0.06949,-0.75225 z"
     id="path1286"
     style="fill:#b7afd7;stroke-width:0.512654" />
  <path
     class="cls-3"
     d="m 26.783973,435.06825 c -0.694907,-0.75224 -1.395158,-1.50449 -2.138173,-2.24197 l -0.571961,0.14749 -2.341299,0.58016 -1.641048,0.3835 c -1.004941,0.24092 -2.036609,0.49166 -3.068277,0.71291 l -0.951487,0.2065 -0.67887,-1.8634 0.887342,-0.36383 c 0.972868,-0.39333 1.956428,-0.77682 2.91326,-1.14557 l 1.54483,-0.59982 1.405848,-0.53099 v 0 l -0.534543,-0.49167 -0.908724,-0.91449 c -0.764396,0.295 -1.507411,0.59983 -2.218354,0.91941 -0.486434,0.21633 -0.951486,0.44248 -1.405848,0.67357 -0.534543,0.27533 -1.095814,0.56049 -1.603629,0.85057 -0.625416,0.35892 -1.218759,0.72766 -1.785375,1.10624 -0.566615,0.37858 -1.095813,0.76699 -1.603629,1.16524 a 16.41582,15.098899 0 0 0 -3.9609643,4.47411 8.0181469,7.3749104 0 0 0 -0.3421075,0.72766 7.6332759,7.0209145 0 0 0 -0.4383253,1.93714 7.7989843,7.1733293 0 0 0 0,0.79649 7.9379655,7.3011613 0 0 0 0.4703982,2.07972 c 4.4260169,-6.06218 16.8113809,-8.26481 18.9709359,-8.60897 z"
     id="path1288"
     style="fill:#b7afd7;stroke-width:0.512654" />
  <path
     class="cls-3"
     d="m 42.039833,383.64055 a 6.2007003,5.7032638 0 0 0 -3.175186,1.36189 69.565443,63.98472 0 0 0 -8.018147,7.99441 26.876829,24.720699 0 0 1 11.973767,-3.21547 z"
     id="path1290"
     style="fill:#b7afd7;stroke-width:0.512654" />
  <path
     class="cls-3"
     d="m 47.550973,385.00244 a 6.2007003,5.7032638 0 0 0 -3.175186,-1.36189 l -0.780433,6.12609 a 21.542088,19.813925 0 0 1 12.069984,3.35312 69.560098,63.979804 0 0 0 -8.114365,-8.11732 z"
     id="path1292"
     style="fill:#b7afd7;stroke-width:0.512654" />
  <path
     class="cls-3"
     d="m 77.271571,395.80422 a 14.967208,13.766499 0 0 0 -1.298939,-1.51923 14.758735,13.574751 0 0 0 -2.074028,-1.73556 c -0.37418,-0.25566 -0.764396,-0.49167 -1.165304,-0.72274 a 14.5075,13.343671 0 0 0 -2.544425,-1.13082 c -0.449017,-0.15241 -0.903378,-0.28024 -1.373777,-0.39333 a 14.609064,13.437087 0 0 0 -3.640237,-0.42282 c -0.320727,0 -0.646798,0 -0.962178,0.0295 a 13.962266,12.842177 0 0 0 -1.897628,0.23109 c -0.315381,0.054 -0.62007,0.12292 -0.930106,0.19666 a 14.229538,13.088007 0 0 0 -1.796064,0.56541 c -0.293999,0.10817 -0.582653,0.23108 -0.871305,0.35892 -0.288654,0.12782 -0.566616,0.2704 -0.839233,0.4179 v 0 c 0.93545,1.11115 1.817446,2.25673 2.672715,3.44163 l 0.251235,0.31958 c 0,0 13.614814,-3.50062 18.607447,5.06902 a 14.630446,13.456752 0 0 0 -1.421885,-3.59896 c -0.181745,-0.37857 -0.449016,-0.75224 -0.716288,-1.10624 z"
     id="path1294"
     style="fill:#b7afd7;stroke-width:0.512654" />
  <path
     class="cls-3"
     d="m 25.533142,395.52889 3.004132,-3.8497 c -0.277963,-0.1475 -0.534543,-0.28516 -0.844579,-0.4179 -0.310034,-0.13276 -0.737669,-0.30976 -1.111849,-0.44742 -0.454362,-0.16225 -0.914069,-0.29991 -1.379122,-0.42283 l -0.449016,-0.10325 c -0.406252,-0.0934 -0.81785,-0.16717 -1.234795,-0.22617 -0.176399,-0.0245 -0.342107,-0.054 -0.534543,-0.0737 a 14.630446,13.456752 0 0 0 -1.753301,-0.10816 c -0.326071,0 -0.646797,0.0245 -0.972868,0.0393 -0.422289,0.0246 -0.833887,0.059 -1.245486,0.11799 a 14.138665,13.004425 0 0 0 -2.138173,0.44741 c -0.224507,0.064 -0.454361,0.13767 -0.673524,0.21142 a 13.556014,12.468514 0 0 0 -1.30963,0.49166 c -0.347453,0.15242 -0.684216,0.3245 -1.015632,0.49167 l -0.427635,0.29007 c -0.240544,0.13766 -0.470398,0.28024 -0.700251,0.43266 -0.229853,0.15242 -0.449017,0.30483 -0.66818,0.46708 -0.31538,0.23109 -0.614724,0.49166 -0.908722,0.73749 a 14.721318,13.540335 0 0 0 -2.0473006,2.24689 c 1.7639926,-0.90466 9.3491586,-4.31678 16.4104746,-0.3245 z"
     id="path1296"
     style="fill:#b7afd7;stroke-width:0.512654" />
  <path
     class="cls-4"
     d="m 30.189012,412.25519 a 3.1484591,2.8958814 0 0 0 -1.224104,1.47499 3.3515854,3.0827125 0 0 0 1.908319,3.99227 c 1.726575,0.6195 5.014015,-0.37857 4.858998,-2.07481 -0.2352,-2.63529 -3.21795,-4.01194 -5.543213,-3.39245 z"
     id="path1298"
     style="fill:#e4e41c;stroke-width:0.512654" />
  <path
     class="cls-4"
     d="m 55.788283,412.25519 a 3.1217319,2.8712983 0 0 1 1.224104,1.47499 3.3515854,3.0827125 0 0 1 -1.90832,3.99227 c -1.726573,0.6195 -5.014014,-0.37857 -4.858997,-2.07481 0.235199,-2.63529 3.21795,-4.01194 5.543213,-3.39245 z"
     id="path1300"
     style="fill:#e4e41c;stroke-width:0.512654" />
  <text
     xml:space="preserve"
     style="fill:#000000"
     x="39.473728"
     y="373.86172"
     id="text1581"><tspan
       sodipodi:role="line"
       id="tspan1579"
       x="39.473728"
       y="373.86172">Containerized and brought to you by:</tspan></text>
</svg>
