<svg id="Layer_1" data-name="Layer 1" xmlns="http://www.w3.org/2000/svg" viewBox="0 0 300 358.3"><defs><style>.cls-1{fill:#11ab51;}.cls-2{fill:#1a1a1a;}.cls-3{fill:#171717;}.cls-4{fill:#fff;}</style></defs><polygon class="cls-1" points="300.1 86.6 300.1 271.8 150.1 358.3 0.1 271.8 0.1 86.6 150.1 0 300.1 86.6"/><path class="cls-2" d="M61.5,119.7h-5l-.6-3.1a12.5,12.5,0,0,1-8.9,3.6c-7,0-9.9-4.8-9.9-16.1s3.7-16,13.9-16a35.4,35.4,0,0,1,9.5,1.1l-.6,5L51.2,94c-5.2,0-6.9,1.4-6.9,10.3s1.2,10.1,5.1,10.1a10.7,10.7,0,0,0,5.5-1.6v-11h6.6Z"/><path class="cls-2" d="M81.9,103.1H80.1a21,21,0,0,0-6.8,1.5v15.1H66.6V97.6h5.2l.6,3.2c2.9-2.5,6.1-3.9,8.9-3.9h1.2Z"/><path class="cls-2" d="M91.5,110.8c.4,3.3,1.9,4.1,5.2,4.1s5.3-.2,8.3-.5l.6,4.1c-2.6,1.3-6.5,1.7-9.6,1.7-8.4,0-11.5-3.4-11.5-11.6s3.2-11.7,11.2-11.7,10.5,2.7,10.5,7.7-1.9,6.2-6.7,6.2Zm6.1-4c1.8,0,2.1-1,2.1-2.2s-.9-2.8-3.8-2.8-4.4.9-4.5,5Z"/><path class="cls-2" d="M116.6,110.8c.4,3.3,1.9,4.1,5.3,4.1s5.2-.2,8.2-.5l.6,4.1c-2.6,1.3-6.5,1.7-9.6,1.7-8.4,0-11.5-3.4-11.5-11.6s3.2-11.7,11.2-11.7,10.5,2.7,10.5,7.7-1.9,6.2-6.7,6.2Zm6.1-4c1.8,0,2.1-1,2.1-2.2s-.9-2.8-3.8-2.8-4.4.9-4.5,5Z"/><path class="cls-2" d="M141.5,100.8c3.1-2.5,6.3-3.9,9.4-3.9s6.2,2.2,6.2,6.2v16.6h-6.5V105.1c0-2-.6-2.6-2.2-2.6s-3.5.8-6.1,2.1v15.1h-6.7V97.6H141Z"/><path class="cls-2" d="M169.1,95.3a22.4,22.4,0,0,1-.6,5.2,11.4,11.4,0,0,1,7.8-3.6c5.7,0,8.2,3.3,8.2,11.5s-2,11.8-10.9,11.8c-3.1,0-8.5-.5-11.2-1.7V88.3h6.7Zm-.1,19.6a22.8,22.8,0,0,0,4.5.4c3-.1,4.1-1.6,4.1-6.8s-.6-6.3-3.9-6.3c-1.8,0-3.1.8-4.7,1.9Z"/><path class="cls-2" d="M210.8,108.6c0,8.5-3.1,11.7-11.3,11.7s-11.4-3.2-11.4-11.7,3.1-11.7,11.4-11.7S210.8,100.1,210.8,108.6Zm-15.8,0c0,5.3,1,6.7,4.5,6.7s4.4-1.4,4.4-6.7-1-6.7-4.4-6.7-4.5,1.4-4.5,6.7Z"/><path class="cls-2" d="M221.2,100.8c3.1-2.5,6.4-3.9,9.5-3.9s6.2,2.2,6.2,6.2v16.6h-6.6V105.1c0-2-.6-2.6-2.2-2.6s-3.5.8-6.1,2.1v15.1h-6.7V97.6h5.4Z"/><path class="cls-2" d="M248.3,110.8c.4,3.3,1.9,4.1,5.3,4.1s5.2-.2,8.2-.5l.6,4.1c-2.6,1.3-6.5,1.7-9.6,1.7-8.4,0-11.5-3.4-11.5-11.6s3.2-11.7,11.2-11.7,10.5,2.7,10.5,7.7-1.9,6.2-6.7,6.2Zm6.2-4c1.7,0,2-1,2-2.2s-.9-2.8-3.7-2.8-4.4.9-4.6,5Z"/><polygon class="cls-3" points="3.5 264.8 150 180.2 296.6 264.8 150.1 349.3 3.5 264.8"/><path class="cls-4" d="M83.4,243.5c-4.1-1.3-5.6-3.9-5.6-8,0-6.3,2.9-7.4,9.5-7.4a33,33,0,0,1,8.7.9l-.3,3.6-8.2-.2c-3.4,0-4.7.2-4.7,3.2s1,3,3.1,3.7l5.4,1.6c4.4,1.4,5.7,4,5.7,8.1,0,6.3-2.7,7.8-9.9,7.8a47.7,47.7,0,0,1-9-.9l.4-3.7h8.8c3.6,0,4.6-.5,4.6-3.3s-.9-3-2.9-3.7Z"/><path class="cls-4" d="M123.8,242.4c0,11-3,14.4-11.5,14.4s-11.4-3.4-11.4-14.4,3-14.4,11.4-14.4S123.8,231.4,123.8,242.4Zm-17.6,0c0,7.7,1.4,10.1,6.1,10.1s6.2-2.4,6.2-10.1-1.5-10.1-6.2-10.1S106.2,234.7,106.2,242.4Z"/><path class="cls-4" d="M150,245.4c0,8.3-2.8,11.4-10.4,11.4s-10.8-3.1-10.8-11.4V228.5h5v16.9c0,5.4,1.4,7.1,5.6,7.1s5.5-1.7,5.5-7.1V228.5H150Z"/><path class="cls-4" d="M171.3,256.3l-2.2-8.6a3,3,0,0,0-3.2-2.5h-5v11.2h-5V228.5a97.7,97.7,0,0,1,10.1-.3c6.9,0,9.7,1.8,9.7,8.1,0,4.1-1.4,6.5-5.2,7v.2a4.9,4.9,0,0,1,3.7,4.1l2.5,8.7ZM165.9,241c3.6,0,4.7-1,4.7-4.4s-1.1-4.3-4.7-4.3h-5V241Z"/><path class="cls-4" d="M200,255.7a25,25,0,0,1-8.5,1.1c-8.3,0-11.3-3.8-11.3-14.4s3-14.3,11.3-14.3a29.4,29.4,0,0,1,8,.8l-.5,3.9c-2.5-.2-4.1-.3-7.5-.3s-6,2.3-6,9.9,1.4,9.9,6,9.9a47.3,47.3,0,0,0,8.1-.4Z"/><path class="cls-4" d="M222.3,256a119.3,119.3,0,0,1-12.2.4c-3.6,0-5.9-2-5.9-5.3V233.7c0-3.2,2.3-5.2,5.9-5.2s8.6,0,12.2.3l-.2,3.8H211.2c-1.4,0-2,.7-2,2.4v4.8h11.4v3.9H209.2v6.2c0,1.7.6,2.3,2,2.3h10.9Z"/><path class="cls-4" d="M95.1,293.7a121.3,121.3,0,0,1-12.2.4c-3.7,0-5.9-2.1-6-5.3V271.4c.1-3.2,2.3-5.2,6-5.2s8.5,0,12.2.3l-.3,3.8H84c-1.5,0-2,.6-2,2.4v4.8H93.4v3.9H82v6.2c0,1.7.5,2.3,2,2.3H94.8Z"/><path class="cls-4" d="M100,266.2c3-.2,6.3-.3,10.4-.3,8.3,0,11.3,3.4,11.3,14.2s-3,14.2-11.3,14.2c-4.1,0-7.4-.1-10.4-.3Zm5,23.8h5.4c4.5,0,6-2.4,6-10s-1.5-10-6-10H105Z"/><path class="cls-4" d="M127,294V266.2h5V294Z"/><path class="cls-4" d="M149.5,270.5V294h-5.1V270.5h-8.5v-4.3H158v4.3Z"/><path class="cls-4" d="M162,294V266.2h5V294Z"/><path class="cls-4" d="M195.1,280.1c0,11-3,14.4-11.5,14.4s-11.4-3.4-11.4-14.4,3-14.4,11.4-14.4S195.1,269.1,195.1,280.1Zm-17.6,0c0,7.7,1.5,10.1,6.1,10.1s6.2-2.4,6.2-10.1-1.5-10.1-6.2-10.1S177.5,272.4,177.5,280.1Z"/><path class="cls-4" d="M222.8,292.1A1.7,1.7,0,0,1,221,294h-4c-1.1,0-1.6-.5-2.1-1.6l-7.8-17a25,25,0,0,1-1.6-4.1H205a29.5,29.5,0,0,1,.2,4.2V294h-4.9V268.1a1.7,1.7,0,0,1,1.9-1.9h3.9c1.1,0,1.6.5,2.1,1.6l7.5,16.5c.6,1.2,1.4,2.9,2,4.4h.4c-.1-1.6-.2-3-.2-4.5v-18h4.9Z"/></svg>